<svg width="116" height="94" viewBox="0 0 116 94" fill="none" xmlns="http://www.w3.org/2000/svg">
<defs>
<linearGradient id="paint0_linear_2548_370" x1="69" y1="0" x2="90.15" y2="101.05" gradientUnits="userSpaceOnUse">
<stop stop-color="#00C2FF"/>
<stop offset="1" stop-color="#004686"/>
</linearGradient>
<linearGradient id="paint1_linear_2548_370" x1="19" y1="28" x2="10" y2="77" gradientUnits="userSpaceOnUse">
<stop stop-color="#DDD400"/>
<stop offset="1" stop-color="#DD5D00"/>
</linearGradient>
<clipPath id="clip0_2548_370">
<rect width="41" height="51" fill="white" transform="translate(48 22)"/>
</clipPath>
</defs>
<circle cx="69" cy="47" r="47" fill="url(#paint0_linear_2548_370)"/>
<circle cx="69" cy="47" r="47" fill="#06C149"/>
<g clip-path="url(#clip0_2548_370)">
<path d="M72.7326 42.9351C78.3631 40.6243 81.0265 34.2529 78.6816 28.7042C76.3368 23.1555 69.8715 20.5307 64.2411 22.8415C58.6107 25.1523 55.9473 31.5237 58.2921 37.0724C60.637 42.6212 67.1022 45.246 72.7326 42.9351Z" fill="white"/>
<path d="M68.4927 47.5C57.1712 47.5 48 56.5382 48 67.6953C48 70.6215 50.4135 73 53.3828 73H83.6172C86.5865 73 89 70.6215 89 67.6953C89 56.5382 79.8288 47.5 68.5073 47.5H68.4927Z" fill="white"/>
</g>
<path d="M36.5 47.5C36.5 57.4781 28.6285 65.5 19 65.5C9.37151 65.5 1.5 57.4781 1.5 47.5C1.5 37.5219 9.37151 29.5 19 29.5C28.6285 29.5 36.5 37.5219 36.5 47.5Z" fill="url(#paint1_linear_2548_370)" stroke="#020412" stroke-width="3"/>
<path d="M18.9998 45.125C17.5041 45.125 16.2915 46.3375 16.2915 47.8333C16.2915 49.3291 17.5041 50.5416 18.9998 50.5416C20.4956 50.5416 21.7082 49.3291 21.7082 47.8333C21.7082 46.3375 20.4956 45.125 18.9998 45.125Z" fill="#020412"/>
<path fill-rule="evenodd" clip-rule="evenodd" d="M22.0416 38.8675C20.3069 37.3256 17.6928 37.3256 15.9581 38.8675L15.7783 39.0274C15.2848 39.466 14.6475 39.7083 13.9873 39.7083C11.8081 39.7083 10.0415 41.4749 10.0415 43.6541V47.871C10.0415 49.4014 10.0415 50.6011 10.1446 51.5529C10.2498 52.5242 10.4684 53.3112 10.9566 53.9831C11.2522 54.3899 11.6099 54.7476 12.0167 55.0432C12.6886 55.5314 13.4756 55.75 14.4469 55.8552C15.3987 55.9583 16.5983 55.9583 18.1287 55.9583H19.8709C21.4013 55.9583 22.601 55.9583 23.5528 55.8552C24.5241 55.75 25.311 55.5314 25.983 55.0432C26.3898 54.7476 26.7475 54.3899 27.043 53.9831C27.5312 53.3112 27.7498 52.5242 27.8551 51.5529C27.9582 50.6011 27.9582 49.4015 27.9582 47.8711V43.6541C27.9582 41.4749 26.1916 39.7083 24.0124 39.7083C23.3522 39.7083 22.7149 39.466 22.2214 39.0274L22.0416 38.8675ZM15.0415 47.8333C15.0415 45.6472 16.8137 43.875 18.9998 43.875C21.186 43.875 22.9582 45.6472 22.9582 47.8333C22.9582 50.0194 21.186 51.7916 18.9998 51.7916C16.8137 51.7916 15.0415 50.0194 15.0415 47.8333ZM23.9998 44.5C23.5396 44.5 23.1665 44.1269 23.1665 43.6667C23.1665 43.2064 23.5396 42.8333 23.9998 42.8333C24.4601 42.8333 24.8332 43.2064 24.8332 43.6667C24.8332 44.1269 24.4601 44.5 23.9998 44.5Z" fill="#020412"/>
</svg>
