<svg width="23" height="23" viewBox="0 0 23 23" fill="none" xmlns="http://www.w3.org/2000/svg">
<path d="M13.375 18.2084C13.375 18.7607 13.8227 19.2084 14.375 19.2084C14.9273 19.2084 15.375 18.7607 15.375 18.2084H13.375ZM1.875 18.2084C1.875 18.7607 2.32272 19.2084 2.875 19.2084C3.42728 19.2084 3.875 18.7607 3.875 18.2084H1.875ZM17.2083 15.3334C17.2083 15.8857 17.656 16.3334 18.2083 16.3334C18.7606 16.3334 19.2083 15.8857 19.2083 15.3334H17.2083ZM19.2083 9.58337C19.2083 9.03109 18.7606 8.58337 18.2083 8.58337C17.656 8.58337 17.2083 9.03109 17.2083 9.58337H19.2083ZM15.3333 11.4584C14.781 11.4584 14.3333 11.9061 14.3333 12.4584C14.3333 13.0107 14.781 13.4584 15.3333 13.4584V11.4584ZM21.0833 13.4584C21.6356 13.4584 22.0833 13.0107 22.0833 12.4584C22.0833 11.9061 21.6356 11.4584 21.0833 11.4584V13.4584ZM15.375 18.2084C15.375 16.7114 14.4649 15.4786 13.2456 14.6657C12.0192 13.8482 10.3827 13.375 8.625 13.375V15.375C10.0429 15.375 11.2814 15.76 12.1362 16.3298C12.9979 16.9044 13.375 17.5882 13.375 18.2084H15.375ZM8.625 13.375C6.86729 13.375 5.23075 13.8482 4.00444 14.6657C2.78511 15.4786 1.875 16.7114 1.875 18.2084H3.875C3.875 17.5882 4.25207 16.9044 5.11384 16.3298C5.96861 15.76 7.20707 15.375 8.625 15.375V13.375ZM19.2083 15.3334V9.58337H17.2083V15.3334H19.2083ZM15.3333 13.4584H21.0833V11.4584H15.3333V13.4584ZM8.625 10.5C7.06019 10.5 5.79167 9.23151 5.79167 7.66671H3.79167C3.79167 10.3361 5.95562 12.5 8.625 12.5V10.5ZM5.79167 7.66671C5.79167 6.1019 7.06019 4.83337 8.625 4.83337V2.83337C5.95562 2.83337 3.79167 4.99733 3.79167 7.66671H5.79167ZM8.625 4.83337C10.1898 4.83337 11.4583 6.1019 11.4583 7.66671H13.4583C13.4583 4.99733 11.2944 2.83337 8.625 2.83337V4.83337ZM11.4583 7.66671C11.4583 9.23151 10.1898 10.5 8.625 10.5V12.5C11.2944 12.5 13.4583 10.3361 13.4583 7.66671H11.4583Z" fill="white"/>
</svg>
