<svg width="95" height="171" viewBox="0 0 95 171" fill="none" xmlns="http://www.w3.org/2000/svg">
<path d="M34.2047 131.253C33.9556 132.254 35.2025 132.931 35.9064 132.176L74.2229 91.0963C74.6347 90.6548 74.5643 89.9518 74.0731 89.6007L53.4621 74.869C53.1283 74.6304 52.9741 74.2122 53.0732 73.814L61.7953 38.7471C62.0444 37.7456 60.7975 37.069 60.0935 37.8237L21.7771 78.9037C21.3653 79.3452 21.4357 80.0482 21.9269 80.3993L42.5379 95.131C42.8717 95.3696 43.0259 95.7878 42.9268 96.186L34.2047 131.253Z" fill="white"/>
<rect x="1.5" y="14.5" width="92" height="155" rx="14.5" stroke="white" stroke-width="3"/>
<path d="M8 146H87V153C87 158.523 82.5229 163 77 163H18C12.4772 163 8 158.523 8 153V146Z" fill="url(#paint0_linear_121_182)"/>
<path d="M32 7C32 3.13401 35.134 0 39 0H56C59.866 0 63 3.13401 63 7V13H32V7Z" fill="white"/>
<defs>
<linearGradient id="paint0_linear_121_182" x1="24.5" y1="146" x2="28.1562" y2="169.569" gradientUnits="userSpaceOnUse">
<stop stop-color="#FFD600"/>
<stop offset="1" stop-color="#2A7671"/>
</linearGradient>
</defs>
</svg>
