<svg width="18" height="19" viewBox="0 0 18 19" fill="none" xmlns="http://www.w3.org/2000/svg">
<path fill-rule="evenodd" clip-rule="evenodd" d="M14.8556 2.44512C17.8048 4.69366 18.3697 9.45452 16.0511 13.49C13.7259 17.5256 9.33814 19.4114 5.92256 17.9739C5.03582 17.5981 4.24104 17.2024 3.30176 16.6551L7.85368 8.74237L12.4056 0.82959C13.3449 1.37689 14.0937 1.86485 14.8556 2.45171V2.44512Z" fill="url(#paint0_linear_445_636)"/>
<path style="mix-blend-mode:screen" fill-rule="evenodd" clip-rule="evenodd" d="M14.7572 3.5199C16.7934 5.07608 17.4831 8.52473 16.2745 11.5382C15.0659 14.5516 12.386 16.0485 10.1068 15.0989C9.51559 14.855 8.97698 14.5846 8.33984 14.2153L10.711 8.31372L13.0822 2.41211C13.7194 2.78137 14.2317 3.11767 14.7572 3.5199Z" fill="url(#paint1_radial_445_636)"/>
<path style="mix-blend-mode:multiply" fill-rule="evenodd" clip-rule="evenodd" d="M15.0527 3.34825C17.5618 5.2671 18.1201 9.40812 16.235 12.9557C14.4812 16.2527 11.197 17.9539 8.41856 17.2022C6.66479 17.6902 4.85191 17.5451 3.30176 16.6483C4.24104 17.1956 5.04239 17.5978 5.92256 17.9671C9.33814 19.4046 13.7259 17.5187 16.0511 13.4832C18.3763 9.44768 17.8048 4.68683 14.8556 2.43828C14.0937 1.85801 13.3514 1.37005 12.4187 0.822754C13.3449 1.36346 14.0871 2.12177 14.6257 3.02514C14.7702 3.13065 14.9082 3.22956 15.0527 3.34166V3.34825Z" fill="url(#paint2_radial_445_636)"/>
<g style="mix-blend-mode:screen">
<path fill-rule="evenodd" clip-rule="evenodd" d="M12.9179 1.19201C16.2612 3.13064 17.0034 8.12887 14.5666 12.3622C12.1297 16.5955 7.44638 18.4485 4.10305 16.5098C0.759718 14.5778 0.0174861 9.57296 2.45437 5.34621C4.88469 1.11288 9.56798 -0.746625 12.9179 1.19201Z" fill="#FCCE3A"/>
</g>
<path fill-rule="evenodd" clip-rule="evenodd" d="M12.4067 0.830125C15.9405 2.88085 16.7681 8.0835 14.259 12.4553C11.7433 16.8271 6.84321 18.7064 3.30283 16.6623C-0.230982 14.6115 -1.0586 9.4023 1.45053 5.03049C3.96624 0.658682 8.87286 -1.2206 12.4067 0.830125Z" fill="url(#paint3_radial_445_636)"/>
<g style="mix-blend-mode:screen">
<path fill-rule="evenodd" clip-rule="evenodd" d="M8.75994 15.1383C8.71396 15.3362 8.53004 15.5142 8.28044 15.5867C8.06369 15.6461 7.8535 15.6065 7.70899 15.4944C6.65147 15.745 5.58082 15.6725 4.60869 15.2175C1.80398 13.9053 0.890965 9.90272 2.57248 6.27603C3.49206 4.29784 4.99623 2.84057 6.6252 2.14161C6.63834 1.91082 6.83539 1.68662 7.1244 1.60749C7.38714 1.53496 7.64988 1.60749 7.78781 1.77894C8.16221 1.7064 8.54318 1.66684 8.91101 1.68003C8.98983 1.54815 9.17375 1.47561 9.3708 1.51518C9.52845 1.54815 9.65325 1.64706 9.70579 1.76575C10.0474 1.83169 10.3823 1.94379 10.7042 2.09545C13.5089 3.40765 14.4219 7.4102 12.7404 11.0369C11.834 12.9821 10.3626 14.4262 8.75994 15.1383Z" fill="#FFFCE4"/>
</g>
<path fill-rule="evenodd" clip-rule="evenodd" d="M11.1973 2.43848C13.8444 3.96828 14.3962 7.97743 12.4322 11.3931C10.4682 14.8088 6.73737 16.332 4.09029 14.7956C1.44321 13.2658 0.891467 9.25666 2.85543 5.84098C4.81939 2.43189 8.55025 0.908678 11.1973 2.43848Z" fill="url(#paint4_radial_445_636)"/>
<path style="mix-blend-mode:multiply" opacity="0.5" fill-rule="evenodd" clip-rule="evenodd" d="M4.29364 7.19934C6.15251 3.96828 9.68632 2.5242 12.1889 3.97488C12.5502 4.18589 12.8654 4.43646 13.1413 4.73319C12.7406 3.76387 12.0838 2.95941 11.1905 2.43848C8.54342 0.908678 4.81255 2.43189 2.84859 5.84098C0.884631 9.25666 1.43638 13.2658 4.08345 14.7956C4.27394 14.9077 4.47099 15 4.67461 15.0791C2.8683 13.3515 2.64497 10.0479 4.29364 7.19274V7.19934Z" fill="url(#paint5_radial_445_636)"/>
<path fill-rule="evenodd" clip-rule="evenodd" d="M3.72903 6.34871C5.52878 3.22317 8.80642 1.68017 11.3747 2.61652C11.4535 2.64949 11.5389 2.67586 11.6177 2.71543C11.5455 2.66268 11.4798 2.61652 11.4075 2.56377C11.3418 2.51761 11.2696 2.47805 11.1973 2.43848C8.55025 0.908678 4.81939 2.43189 2.85543 5.84098C0.891467 9.25666 1.44321 13.2658 4.09029 14.7956C4.16254 14.8352 4.2348 14.8747 4.30705 14.9143C4.38587 14.9539 4.46469 14.9934 4.54351 15.0264C4.47126 14.9736 4.40558 14.9209 4.33989 14.8615C2.24456 13.0944 1.93585 9.47426 3.7356 6.34871H3.72903Z" fill="url(#paint6_linear_445_636)"/>
<path style="mix-blend-mode:multiply" fill-rule="evenodd" clip-rule="evenodd" d="M9.52895 2.35911C10.1661 2.32614 10.7901 2.41186 11.3747 2.62287C11.4535 2.65584 11.5389 2.68221 11.6177 2.72178C11.5455 2.66902 11.4798 2.62287 11.4075 2.57011C11.3418 2.52396 11.2696 2.48439 11.1973 2.44483C8.55025 0.915025 4.81939 2.43823 2.85543 5.84732C0.891467 9.26301 1.44321 13.2721 4.09029 14.802C4.16254 14.8415 4.2348 14.8811 4.30705 14.9206C4.38587 14.9602 4.46469 14.9998 4.54351 15.0327C4.47126 14.98 4.40558 14.9272 4.33989 14.8679C4.01804 14.5975 3.7356 14.281 3.49913 13.925C1.54831 12.283 1.22646 8.90034 2.85543 5.97261C4.39901 3.18335 7.20372 1.73927 9.52895 2.35911Z" fill="url(#paint7_radial_445_636)"/>
<path style="mix-blend-mode:screen" fill-rule="evenodd" clip-rule="evenodd" d="M11.7817 3.92211C7.09843 1.78566 2.71729 7.91147 3.361 11.8745C5.95553 10.9051 10.2644 8.76869 11.7817 3.92211Z" fill="url(#paint8_radial_445_636)"/>
<defs>
<linearGradient id="paint0_linear_445_636" x1="7.40046" y1="19.0356" x2="16.5574" y2="3.23421" gradientUnits="userSpaceOnUse">
<stop stop-color="#E86F0C"/>
<stop offset="0.69" stop-color="#FC940D"/>
<stop offset="1" stop-color="#E86F0C"/>
</linearGradient>
<radialGradient id="paint1_radial_445_636" cx="0" cy="0" r="1" gradientUnits="userSpaceOnUse" gradientTransform="translate(10.7308 8.46538) scale(8.55209 8.58536)">
<stop stop-color="#FFF369"/>
<stop offset="0.11" stop-color="#FAEE67"/>
<stop offset="0.23" stop-color="#ECE161"/>
<stop offset="0.36" stop-color="#D6CC58"/>
<stop offset="0.5" stop-color="#B6AE4B"/>
<stop offset="0.64" stop-color="#8E873A"/>
<stop offset="0.78" stop-color="#5C5826"/>
<stop offset="0.92" stop-color="#22210E"/>
<stop offset="1"/>
</radialGradient>
<radialGradient id="paint2_radial_445_636" cx="0" cy="0" r="1" gradientUnits="userSpaceOnUse" gradientTransform="translate(6.25098 7.87831) scale(12.4078 12.456)">
<stop offset="0.51" stop-color="white"/>
<stop offset="0.68" stop-color="#E5DCC2"/>
<stop offset="1" stop-color="#B09444"/>
</radialGradient>
<radialGradient id="paint3_radial_445_636" cx="0" cy="0" r="1" gradientUnits="userSpaceOnUse" gradientTransform="translate(4.59024 0.500426) scale(15.9087 15.9706)">
<stop stop-color="#FCF80D"/>
<stop offset="1" stop-color="#FC9C0D"/>
</radialGradient>
<radialGradient id="paint4_radial_445_636" cx="0" cy="0" r="1" gradientUnits="userSpaceOnUse" gradientTransform="translate(0.0112966 -1.0827) scale(19.4425 19.5182)">
<stop stop-color="#FCF80D"/>
<stop offset="1" stop-color="#F78A0C"/>
</radialGradient>
<radialGradient id="paint5_radial_445_636" cx="0" cy="0" r="1" gradientUnits="userSpaceOnUse" gradientTransform="translate(10.8555 10.1073) scale(11.232 11.2757)">
<stop offset="0.51" stop-color="white"/>
<stop offset="0.69" stop-color="#FFE1C2"/>
<stop offset="1" stop-color="#FFA84B"/>
</radialGradient>
<linearGradient id="paint6_linear_445_636" x1="1.90957" y1="13.5427" x2="8.95239" y2="1.38734" gradientUnits="userSpaceOnUse">
<stop stop-color="#FC940D"/>
<stop offset="1" stop-color="#E86F0C"/>
</linearGradient>
<radialGradient id="paint7_radial_445_636" cx="0" cy="0" r="1" gradientUnits="userSpaceOnUse" gradientTransform="translate(11.0528 10.5818) scale(10.8905 10.9328)">
<stop offset="0.51" stop-color="white"/>
<stop offset="0.68" stop-color="#E5DCC2"/>
<stop offset="1" stop-color="#B09444"/>
</radialGradient>
<radialGradient id="paint8_radial_445_636" cx="0" cy="0" r="1" gradientUnits="userSpaceOnUse" gradientTransform="translate(-0.369868 -0.858526) scale(14.4768 14.5331)">
<stop stop-color="#FFF369"/>
<stop offset="0.11" stop-color="#FAEE67"/>
<stop offset="0.23" stop-color="#ECE161"/>
<stop offset="0.36" stop-color="#D6CC58"/>
<stop offset="0.5" stop-color="#B6AE4B"/>
<stop offset="0.64" stop-color="#8E873A"/>
<stop offset="0.78" stop-color="#5C5826"/>
<stop offset="0.92" stop-color="#22210E"/>
<stop offset="1"/>
</radialGradient>
</defs>
</svg>
