<svg width="43" height="43" viewBox="0 0 43 43" fill="none" xmlns="http://www.w3.org/2000/svg">
<circle cx="21.5" cy="21.5" r="18.5" fill="#2A7671" stroke="black" stroke-width="6"/>
<path d="M16 27.9999H15.25C15.25 28.1988 15.329 28.3896 15.4697 28.5302C15.6103 28.6709 15.8011 28.7499 16 28.7499L16 27.9999ZM16 24.9999L15.4697 24.4696C15.329 24.6102 15.25 24.801 15.25 24.9999H16ZM24.1515 16.8484L23.6211 16.3181L23.6211 16.3181L24.1515 16.8484ZM25.8485 16.8484L25.3182 17.3787L25.3182 17.3787L25.8485 16.8484ZM27.1515 18.1514L27.6818 17.621L27.6818 17.621L27.1515 18.1514ZM27.1515 19.8484L26.6211 19.3181L26.6211 19.3181L27.1515 19.8484ZM19 27.9999L19 28.7499C19.1989 28.7499 19.3897 28.6709 19.5303 28.5302L19 27.9999ZM27.6526 18.7682L28.3659 18.5364L28.3659 18.5364L27.6526 18.7682ZM27.6526 19.2316L26.9394 18.9999L26.9394 18.9999L27.6526 19.2316ZM24.7683 16.3473L24.5365 15.634L24.5365 15.634L24.7683 16.3473ZM25.2318 16.3473L25.4636 15.634L25.4636 15.634L25.2318 16.3473ZM22.5303 18.4696C22.2374 18.1767 21.7626 18.1767 21.4697 18.4696C21.1768 18.7625 21.1768 19.2373 21.4697 19.5302L22.5303 18.4696ZM24.4697 22.5302C24.7626 22.8231 25.2374 22.8231 25.5303 22.5302C25.8232 22.2373 25.8232 21.7625 25.5303 21.4696L24.4697 22.5302ZM16.75 27.9999V24.9999H15.25V27.9999H16.75ZM16.5303 25.5302L24.6818 17.3787L23.6211 16.3181L15.4697 24.4696L16.5303 25.5302ZM25.3182 17.3787L26.6211 18.6817L27.6818 17.621L26.3788 16.3181L25.3182 17.3787ZM26.6211 19.3181L18.4697 27.4696L19.5303 28.5302L27.6818 20.3787L26.6211 19.3181ZM19 27.2499L16 27.2499L16 28.7499L19 28.7499L19 27.2499ZM26.6211 18.6817C26.7784 18.8389 26.864 18.9254 26.9208 18.9923C26.9719 19.0525 26.9543 19.046 26.9394 18.9999L28.3659 18.5364C28.2953 18.3191 28.1756 18.1527 28.0643 18.0215C27.9587 17.8971 27.8215 17.7608 27.6818 17.621L26.6211 18.6817ZM27.6818 20.3787C27.8216 20.239 27.9587 20.1027 28.0643 19.9782C28.1757 19.8471 28.2953 19.6807 28.3659 19.4634L26.9394 18.9999C26.9543 18.9538 26.9719 18.9473 26.9208 19.0075C26.864 19.0744 26.7784 19.1608 26.6211 19.3181L27.6818 20.3787ZM26.9394 18.9999L26.9394 18.9999L28.3659 19.4634C28.4638 19.1621 28.4638 18.8377 28.3659 18.5364L26.9394 18.9999ZM24.6818 17.3787C24.839 17.2215 24.9255 17.1359 24.9924 17.0791C25.0526 17.028 25.046 17.0456 25 17.0605L24.5365 15.634C24.3192 15.7046 24.1528 15.8242 24.0217 15.9356C23.8972 16.0412 23.7609 16.1783 23.6211 16.3181L24.6818 17.3787ZM26.3788 16.3181C26.2391 16.1784 26.1028 16.0412 25.9784 15.9356C25.8473 15.8243 25.6809 15.7046 25.4636 15.634L25 17.0605C24.954 17.0456 24.9474 17.0279 25.0076 17.079C25.0745 17.1358 25.1609 17.2215 25.3182 17.3787L26.3788 16.3181ZM25 17.0605H25L25.4636 15.634C25.1623 15.5361 24.8378 15.5361 24.5365 15.634L25 17.0605ZM21.4697 19.5302L24.4697 22.5302L25.5303 21.4696L22.5303 18.4696L21.4697 19.5302Z" fill="white"/>
</svg>
