<svg width="24" height="24" viewBox="0 0 24 24" fill="none" xmlns="http://www.w3.org/2000/svg">
<defs>
<filter id="filter0_b_963_2425" x="-30" y="-30" width="84" height="84" filterUnits="userSpaceOnUse" color-interpolation-filters="sRGB">
<feFlood flood-opacity="0" result="BackgroundImageFix"/>
<feGaussianBlur in="BackgroundImageFix" stdDeviation="15"/>
<feComposite in2="SourceAlpha" operator="in" result="effect1_backgroundBlur_963_2425"/>
<feBlend mode="normal" in="SourceGraphic" in2="effect1_backgroundBlur_963_2425" result="shape"/>
</filter>
</defs>
<g filter="url(#filter0_b_963_2425)">
<circle cx="12" cy="12" r="12" fill="#020412" fill-opacity="0.5"/>
</g>
<path d="M13.3672 8.41135C14.3644 8.41135 15.1729 7.60292 15.1729 6.60568C15.1729 5.60843 14.3644 4.8 13.3672 4.8C12.37 4.8 11.5615 5.60843 11.5615 6.60568C11.5615 7.60292 12.37 8.41135 13.3672 8.41135Z" fill="white"/>
<path d="M15.2134 15.7379C15.1635 15.7043 15.1074 15.6811 15.0484 15.6695C14.9895 15.6579 14.9287 15.6582 14.8699 15.6704C14.811 15.6826 14.7552 15.7064 14.7056 15.7405C14.6561 15.7746 14.6139 15.8182 14.5814 15.8688C14.145 16.5151 13.6104 17.0893 12.9969 17.5706C12.848 17.6835 12.2927 18.1123 12.058 18.0221C11.8955 17.9724 11.9903 17.6519 12.0219 17.5165L12.2611 16.8077C12.3604 16.5188 14.0894 11.3907 14.279 10.8039C14.5588 9.94618 14.437 9.10203 13.1594 9.30517C12.8119 9.34128 9.28628 9.79721 9.22308 9.80173C9.1638 9.80558 9.10586 9.82107 9.05256 9.84732C8.99927 9.87356 8.95166 9.91005 8.91247 9.95469C8.87328 9.99934 8.84326 10.0513 8.82413 10.1075C8.80501 10.1637 8.79715 10.2232 8.801 10.2825C8.80485 10.3418 8.82035 10.3997 8.84659 10.453C8.87284 10.5063 8.90932 10.5539 8.95397 10.5931C8.99861 10.6323 9.05053 10.6623 9.10678 10.6814C9.16302 10.7006 9.22248 10.7084 9.28176 10.7046C9.28176 10.7046 10.636 10.5285 10.785 10.515C10.8613 10.5075 10.9381 10.5223 11.0062 10.5576C11.0743 10.5928 11.1307 10.647 11.1687 10.7136C11.2505 10.9664 11.2393 11.2402 11.1371 11.4855C11.0197 11.9369 9.16439 17.1644 9.10571 17.4668C9.04277 17.7199 9.06024 17.9863 9.15571 18.229C9.25117 18.4717 9.41988 18.6787 9.63838 18.8211C10.0485 19.0944 10.5368 19.226 11.0288 19.1958C11.5071 19.1899 11.9801 19.095 12.4236 18.9159C13.5477 18.4645 14.7214 17.2637 15.3398 16.3202C15.3931 16.2244 15.4096 16.1124 15.3863 16.0052C15.3631 15.8981 15.3016 15.803 15.2134 15.7379Z" fill="white"/>
</svg>
