<svg width="22" height="22" viewBox="0 0 22 22" fill="none" xmlns="http://www.w3.org/2000/svg">
<defs>
<linearGradient id="paint0_linear_1268_3023" x1="6.7463" y1="-4.42882" x2="26.6993" y2="14.6696" gradientUnits="userSpaceOnUse">
<stop offset="0.0011048" stop-color="#FBE18A"/>
<stop offset="0.2094" stop-color="#FCBB45"/>
<stop offset="0.3765" stop-color="#F75274"/>
<stop offset="0.5238" stop-color="#D53692"/>
<stop offset="0.7394" stop-color="#8F39CE"/>
<stop offset="1" stop-color="#5B4FE9"/>
</linearGradient>
<linearGradient id="paint1_linear_1268_3023" x1="1.11623" y1="1.45317" x2="21.0693" y2="20.5516" gradientUnits="userSpaceOnUse">
<stop offset="0.0011048" stop-color="#FBE18A"/>
<stop offset="0.2094" stop-color="#FCBB45"/>
<stop offset="0.3765" stop-color="#F75274"/>
<stop offset="0.5238" stop-color="#D53692"/>
<stop offset="0.7394" stop-color="#8F39CE"/>
<stop offset="1" stop-color="#5B4FE9"/>
</linearGradient>
<linearGradient id="paint2_linear_1268_3023" x1="1.07301" y1="1.4984" x2="21.0259" y2="20.5966" gradientUnits="userSpaceOnUse">
<stop offset="0.0011048" stop-color="#FBE18A"/>
<stop offset="0.2094" stop-color="#FCBB45"/>
<stop offset="0.3765" stop-color="#F75274"/>
<stop offset="0.5238" stop-color="#D53692"/>
<stop offset="0.7394" stop-color="#8F39CE"/>
<stop offset="1" stop-color="#5B4FE9"/>
</linearGradient>
<clipPath id="clip0_1268_3023">
<rect width="22" height="22" fill="white"/>
</clipPath>
</defs>
<g clip-path="url(#clip0_1268_3023)">
<path d="M16.8264 3.92993C16.1114 3.92993 15.5393 4.50822 15.5393 5.2171C15.5393 5.93219 16.1176 6.50427 16.8264 6.50427C17.5415 6.50427 18.1136 5.92597 18.1136 5.2171C18.1136 4.50822 17.5353 3.92993 16.8264 3.92993Z" fill="url(#paint0_linear_1268_3023)"/>
<path d="M11.0933 5.58392C8.10853 5.58392 5.67722 8.01524 5.67722 11C5.67722 13.9847 8.10853 16.416 11.0933 16.416C14.078 16.416 16.5093 13.9847 16.5093 11C16.5093 8.01524 14.078 5.58392 11.0933 5.58392ZM11.0933 14.4697C9.17806 14.4697 7.62351 12.9152 7.62351 11C7.62351 9.08477 9.17806 7.53022 11.0933 7.53022C13.0085 7.53022 14.563 9.08477 14.563 11C14.563 12.9152 13.0023 14.4697 11.0933 14.4697Z" fill="url(#paint1_linear_1268_3023)"/>
<path d="M15.39 22H6.60995C2.96608 22 0 19.0339 0 15.39V6.60995C0 2.96608 2.96608 0 6.60995 0H15.3963C19.0401 0 22.0062 2.96608 22.0062 6.60995V15.3963C22 19.0339 19.0339 22 15.39 22ZM6.60995 2.07066C4.11023 2.07066 2.07066 4.10401 2.07066 6.60995V15.3963C2.07066 17.896 4.10401 19.9356 6.60995 19.9356H15.3963C17.896 19.9356 19.9356 17.9022 19.9356 15.3963V6.60995C19.9356 4.11023 17.9022 2.07066 15.3963 2.07066H6.60995Z" fill="url(#paint2_linear_1268_3023)"/>
</g>
</svg>
