<svg width="30" height="21" viewBox="0 0 30 21" fill="none" xmlns="http://www.w3.org/2000/svg">
<g>
<path fill-rule="evenodd" clip-rule="evenodd" d="M15 0C12.4112 0 10.3125 2.09867 10.3125 4.6875C10.3125 7.27633 12.4112 9.375 15 9.375C17.5888 9.375 19.6875 7.27633 19.6875 4.6875C19.6875 2.09867 17.5888 0 15 0ZM12.1875 4.6875C12.1875 3.1342 13.4467 1.875 15 1.875C16.5533 1.875 17.8125 3.1342 17.8125 4.6875C17.8125 6.2408 16.5533 7.5 15 7.5C13.4467 7.5 12.1875 6.2408 12.1875 4.6875Z" fill="white"/>
<path fill-rule="evenodd" clip-rule="evenodd" d="M11.25 11.25C8.66117 11.25 6.5625 13.3487 6.5625 15.9375C6.5625 18.5263 8.66117 20.625 11.25 20.625H18.75C21.3388 20.625 23.4375 18.5263 23.4375 15.9375C23.4375 13.3487 21.3388 11.25 18.75 11.25H11.25ZM8.4375 15.9375C8.4375 14.3842 9.6967 13.125 11.25 13.125H18.75C20.3033 13.125 21.5625 14.3842 21.5625 15.9375C21.5625 17.4908 20.3033 18.75 18.75 18.75H11.25C9.6967 18.75 8.4375 17.4908 8.4375 15.9375Z" fill="white"/>
<path d="M9.69018 7.98582C9.49302 7.66909 9.12308 7.5 8.75 7.5C7.1967 7.5 5.9375 6.2408 5.9375 4.6875C5.9375 3.1342 7.1967 1.875 8.75 1.875C9.12308 1.875 9.49302 1.70591 9.69018 1.38918C9.6989 1.37518 9.70767 1.3612 9.7165 1.34727C10.0447 0.829135 9.87843 0.0955007 9.26875 0.028379C9.09842 0.00962624 8.92533 0 8.75 0C6.16117 0 4.0625 2.09867 4.0625 4.6875C4.0625 7.27633 6.16117 9.375 8.75 9.375C8.92533 9.375 9.09842 9.36537 9.26875 9.34662C9.87843 9.2795 10.0447 8.54587 9.7165 8.02773C9.70767 8.0138 9.6989 7.99983 9.69018 7.98582Z" fill="white"/>
<path d="M5.88536 17.8961C5.74346 17.6593 5.49299 17.5 5.21698 17.5H5C3.4467 17.5 2.1875 16.2408 2.1875 14.6875C2.1875 13.1342 3.4467 11.875 5 11.875H5.21698C5.49299 11.875 5.74346 11.7157 5.88536 11.4789C6.23174 10.901 5.85586 10 5.18211 10H5C2.41117 10 0.3125 12.0987 0.3125 14.6875C0.3125 17.2763 2.41117 19.375 5 19.375H5.18211C5.85586 19.375 6.23174 18.474 5.88536 17.8961Z" fill="white"/>
<path d="M20.2835 8.02773C19.9552 8.54587 20.1216 9.2795 20.7312 9.34662C20.9016 9.36537 21.0747 9.375 21.25 9.375C23.8388 9.375 25.9375 7.27633 25.9375 4.6875C25.9375 2.09867 23.8388 0 21.25 0C21.0747 0 20.9016 0.0096263 20.7312 0.0283792C20.1216 0.095501 19.9552 0.829134 20.2835 1.34727C20.2923 1.3612 20.3011 1.37517 20.3098 1.38918C20.507 1.70591 20.8769 1.875 21.25 1.875C22.8033 1.875 24.0625 3.1342 24.0625 4.6875C24.0625 6.2408 22.8033 7.5 21.25 7.5C20.8769 7.5 20.507 7.66909 20.3098 7.98582C20.3011 7.99983 20.2923 8.0138 20.2835 8.02773Z" fill="white"/>
<path d="M24.1146 17.8961C23.7683 18.474 24.1441 19.375 24.8179 19.375H25C27.5888 19.375 29.6875 17.2763 29.6875 14.6875C29.6875 12.0987 27.5888 10 25 10H24.8179C24.1441 10 23.7683 10.901 24.1146 11.4789C24.2565 11.7157 24.507 11.875 24.783 11.875H25C26.5533 11.875 27.8125 13.1342 27.8125 14.6875C27.8125 16.2408 26.5533 17.5 25 17.5H24.783C24.507 17.5 24.2565 17.6593 24.1146 17.8961Z" fill="white"/>
</g>
</svg>
