<svg width="24" height="24" viewBox="0 0 24 24" fill="none" xmlns="http://www.w3.org/2000/svg">
<path d="M11.4697 14.4697C11.1768 14.7626 11.1768 15.2374 11.4697 15.5303C11.7626 15.8232 12.2374 15.8232 12.5303 15.5303L11.4697 14.4697ZM15 12L15.5303 12.5303C15.8232 12.2374 15.8232 11.7626 15.5303 11.4697L15 12ZM12.5303 8.46967C12.2374 8.17678 11.7626 8.17678 11.4697 8.46967C11.1768 8.76256 11.1768 9.23744 11.4697 9.53033L12.5303 8.46967ZM4 11.25C3.58579 11.25 3.25 11.5858 3.25 12C3.25 12.4142 3.58579 12.75 4 12.75L4 11.25ZM10.2344 19.8478L9.94736 20.5407L10.2344 19.8478ZM9.75 17C9.75 16.5858 9.41421 16.25 9 16.25C8.58579 16.25 8.25 16.5858 8.25 17H9.75ZM9.15224 18.7654L8.45933 19.0524V19.0524L9.15224 18.7654ZM19.7822 18.908L19.114 18.5675L19.7822 18.908ZM18.9078 19.782L18.5673 19.1137L18.9078 19.782ZM18.9078 4.21799L19.2483 3.54973V3.54973L18.9078 4.21799ZM19.7822 5.09204L19.114 5.43253L19.7822 5.09204ZM8.25 6.99999C8.25 7.4142 8.58579 7.74999 9 7.74999C9.41421 7.74999 9.75 7.4142 9.75 6.99999H8.25ZM12.5303 15.5303L15.5303 12.5303L14.4697 11.4697L11.4697 14.4697L12.5303 15.5303ZM15.5303 11.4697L12.5303 8.46967L11.4697 9.53033L14.4697 12.5303L15.5303 11.4697ZM15 11.25L4 11.25L4 12.75L15 12.75V11.25ZM12 4.75H16.8V3.25H12V4.75ZM19.25 7.19995V16.8H20.75V7.19995H19.25ZM16.8 19.25H12V20.75H16.8V19.25ZM12 19.25C11.5238 19.25 11.2041 19.2496 10.9566 19.2327C10.7158 19.2163 10.5985 19.1868 10.5214 19.1549L9.94736 20.5407C10.2378 20.661 10.5374 20.7076 10.8545 20.7292C11.1649 20.7504 11.5443 20.75 12 20.75V19.25ZM8.25 17C8.25 17.4557 8.24959 17.835 8.27077 18.1454C8.29241 18.4625 8.33905 18.762 8.45933 19.0524L9.84515 18.4784C9.81319 18.4012 9.78372 18.284 9.76729 18.0433C9.75041 17.7958 9.75 17.4762 9.75 17H8.25ZM10.5214 19.1549C10.2153 19.0281 9.9721 18.7848 9.84515 18.4784L8.45933 19.0524C8.73836 19.726 9.27335 20.2615 9.94736 20.5407L10.5214 19.1549ZM19.25 16.8C19.25 17.3725 19.2495 17.7567 19.2253 18.0526C19.2019 18.3398 19.1601 18.4771 19.114 18.5675L20.4505 19.2485C20.6224 18.9112 20.6894 18.5544 20.7204 18.1745C20.7506 17.8034 20.75 17.3476 20.75 16.8H19.25ZM16.8 20.75C17.3477 20.75 17.8035 20.7506 18.1746 20.7202C18.5545 20.6892 18.911 20.6221 19.2483 20.4502L18.5673 19.1137C18.4767 19.1599 18.3394 19.2018 18.0524 19.2252C17.7566 19.2494 17.3724 19.25 16.8 19.25V20.75ZM19.114 18.5675C18.9943 18.8024 18.8029 18.9937 18.5673 19.1137L19.2483 20.4502C19.7653 20.1868 20.1866 19.7664 20.4505 19.2485L19.114 18.5675ZM16.8 4.75C17.3724 4.75 17.7566 4.75058 18.0524 4.77476C18.3395 4.79821 18.4767 4.84009 18.5673 4.88624L19.2483 3.54973C18.911 3.3779 18.5544 3.31078 18.1746 3.27974C17.8035 3.24942 17.3477 3.25 16.8 3.25V4.75ZM20.75 7.19995C20.75 6.65235 20.7506 6.1965 20.7204 5.82543C20.6894 5.4456 20.6224 5.08889 20.4505 4.75155L19.114 5.43253C19.1601 5.52302 19.2019 5.66021 19.2253 5.94735C19.2495 6.24326 19.25 6.62745 19.25 7.19995H20.75ZM18.5673 4.88624C18.8028 5.00624 18.9943 5.19764 19.114 5.43253L20.4505 4.75155C20.1867 4.2338 19.7654 3.81323 19.2483 3.54973L18.5673 4.88624ZM9.75 6.99999C9.75 6.52378 9.75041 6.20419 9.76729 5.95673C9.78372 5.716 9.81319 5.59878 9.84515 5.52163L8.45933 4.94761C8.33905 5.238 8.29241 5.53752 8.27077 5.85462C8.24959 6.16499 8.25 6.54431 8.25 6.99999H9.75ZM12 3.25C11.5443 3.25 11.1649 3.24959 10.8545 3.27077C10.5374 3.2924 10.2378 3.33904 9.94736 3.45933L10.5214 4.84515C10.5985 4.8132 10.7158 4.78372 10.9566 4.76729C11.2041 4.75041 11.5238 4.75 12 4.75V3.25ZM9.84515 5.52163C9.97209 5.21518 10.2153 4.97195 10.5214 4.84515L9.94736 3.45933C9.27337 3.73851 8.73837 4.27395 8.45933 4.94761L9.84515 5.52163Z" fill="white"/>
</svg>
