<svg width="42" height="42" viewBox="0 0 42 42" fill="none" xmlns="http://www.w3.org/2000/svg">
<path d="M26.25 35H15.75M35 14.35V24.15C35 26.1102 35.0004 27.0903 34.6189 27.8389C34.2833 28.4975 33.7472 29.0329 33.0886 29.3685C32.3399 29.7499 31.3605 29.75 29.4003 29.75H12.6003C10.6402 29.75 9.65934 29.7499 8.91064 29.3685C8.25208 29.0329 7.71703 28.4975 7.38148 27.8389C7 27.0903 7 26.1102 7 24.15V14.35C7 12.3898 7 11.4098 7.38148 10.6611C7.71703 10.0025 8.25208 9.46703 8.91064 9.13148C9.65934 8.75 10.6402 8.75 12.6003 8.75H29.4003C31.3605 8.75 32.3399 8.75 33.0886 9.13148C33.7472 9.46703 34.2833 10.0025 34.6189 10.6611C35.0004 11.4098 35 12.3898 35 14.35Z" stroke="white" stroke-width="2" stroke-linecap="round" stroke-linejoin="round"/>
</svg>
