<svg width="22" height="22" viewBox="0 0 22 22" fill="none" xmlns="http://www.w3.org/2000/svg">
<path d="M11 2.75L11.0011 1.75C10.6876 1.74966 10.392 1.89638 10.2028 2.14633C10.0135 2.39629 9.95242 2.72054 10.0378 3.02222L11 2.75ZM11.1394 3.74662L10.1394 3.74889L10.1395 3.75397L11.1394 3.74662ZM9.6899 6.54711L10.2586 7.36968L10.2618 7.36746L9.6899 6.54711ZM6.875 6.86825L7.24358 5.93866C6.90637 5.80496 6.5232 5.86435 6.24229 6.09386C5.96138 6.32338 5.82679 6.68702 5.89058 7.04411L6.875 6.86825ZM6.93935 7.58487L5.93934 7.58721L5.93938 7.59234L6.93935 7.58487ZM5.63741 10.34L5.00786 9.56304L5.0047 9.56562L5.63741 10.34ZM2.75 11L2.9575 10.0218C2.66188 9.95908 2.35376 10.0334 2.11925 10.224C1.88475 10.4146 1.74902 10.7011 1.75001 11.0033L2.75 11ZM11 19.25L11.0032 20.25L11.0033 20.25L11 19.25ZM19.25 11L18.25 11.0011L18.25 11.0032L19.25 11ZM9.16846 15.5833H10.1685C10.1685 15.031 9.72074 14.5833 9.16846 14.5833V15.5833ZM9.16846 15.5852L9.14454 16.5849C9.41382 16.5913 9.67432 16.4889 9.86706 16.3007C10.0598 16.1125 10.1685 15.8545 10.1685 15.5852H9.16846ZM9.16667 15.5851H8.16667C8.16667 16.1281 8.59994 16.5719 9.14275 16.5848L9.16667 15.5851ZM9.16667 15.5833V14.5833C8.61438 14.5833 8.16667 15.031 8.16667 15.5833H9.16667ZM13.7518 13.75H14.7518C14.7518 13.1977 14.3041 12.75 13.7518 12.75V13.75ZM13.7518 13.7518L13.7279 14.7515C13.9972 14.758 14.2577 14.6555 14.4504 14.4673C14.6431 14.2792 14.7518 14.0212 14.7518 13.7518H13.7518ZM13.75 13.7518H12.75C12.75 14.2948 13.1833 14.7385 13.7261 14.7515L13.75 13.7518ZM13.75 13.75V12.75C13.1977 12.75 12.75 13.1977 12.75 13.75H13.75ZM10.0851 11H11.0851C11.0851 10.4477 10.6374 10 10.0851 10V11ZM10.0851 11.0018L10.0612 12.0015C10.3305 12.008 10.591 11.9055 10.7837 11.7173C10.9765 11.5292 11.0851 11.2712 11.0851 11.0018H10.0851ZM10.0833 11.0018H9.08333C9.08333 11.5448 9.5166 11.9885 10.0594 12.0015L10.0833 11.0018ZM10.0833 11V10C9.53105 10 9.08333 10.4477 9.08333 11H10.0833ZM14.6685 9.16667H15.6685C15.6685 8.61438 15.2207 8.16667 14.6685 8.16667V9.16667ZM14.6685 9.1685L14.6445 10.1682C14.9138 10.1747 15.1743 10.0722 15.3671 9.88401C15.5598 9.69584 15.6685 9.43786 15.6685 9.1685H14.6685ZM14.6667 9.16846H13.6667C13.6667 9.71142 14.0999 10.1552 14.6427 10.1682L14.6667 9.16846ZM14.6667 9.16667V8.16667C14.1144 8.16667 13.6667 8.61438 13.6667 9.16667H14.6667ZM2.75179 6.41667H3.75179C3.75179 5.86438 3.30408 5.41667 2.75179 5.41667V6.41667ZM2.75179 6.4185L2.72787 7.41821C2.99716 7.42466 3.25766 7.32219 3.45039 7.13401C3.64312 6.94584 3.75179 6.68786 3.75179 6.4185H2.75179ZM2.75 6.41846H1.75C1.75 6.96142 2.18327 7.40518 2.72608 7.41817L2.75 6.41846ZM2.75 6.41667V5.41667C2.19772 5.41667 1.75 5.86438 1.75 6.41667H2.75ZM7.33512 2.75H8.33512C8.33512 2.19772 7.88741 1.75 7.33512 1.75V2.75ZM7.33512 2.75183L7.31113 3.75155C7.58043 3.75801 7.84095 3.65555 8.0337 3.46737C8.22645 3.27919 8.33512 3.02121 8.33512 2.75183H7.33512ZM7.33333 2.75179H6.33333C6.33333 3.29473 6.76656 3.73848 7.30934 3.7515L7.33333 2.75179ZM7.33333 2.75V1.75C6.78105 1.75 6.33333 2.19772 6.33333 2.75H7.33333ZM3.66846 2.75H4.66846C4.66846 2.19772 4.22074 1.75 3.66846 1.75V2.75ZM3.66846 2.75183L3.64446 3.75155C3.91376 3.75801 4.17428 3.65555 4.36703 3.46737C4.55978 3.27919 4.66846 3.02121 4.66846 2.75183H3.66846ZM3.66667 2.75179H2.66667C2.66667 3.29473 3.09989 3.73848 3.64267 3.7515L3.66667 2.75179ZM3.66667 2.75V1.75C3.11438 1.75 2.66667 2.19772 2.66667 2.75H3.66667ZM10.0378 3.02222C10.1047 3.25871 10.1389 3.50319 10.1394 3.74889L12.1394 3.74435C12.1384 3.31606 12.0788 2.88992 11.9622 2.47778L10.0378 3.02222ZM10.1395 3.75397C10.1452 4.53878 9.76358 5.27676 9.11805 5.72675L10.2618 7.36746C11.4474 6.54099 12.15 5.18412 12.1394 3.73928L10.1395 3.75397ZM9.12123 5.72455C8.57094 6.10498 7.8661 6.18548 7.24358 5.93866L6.50642 7.79785C7.74994 8.2909 9.15818 8.13042 10.2586 7.36967L9.12123 5.72455ZM5.89058 7.04411C5.92261 7.22337 5.93893 7.40511 5.93935 7.58721L7.93935 7.58252C7.93865 7.28408 7.9119 6.98622 7.85942 6.6924L5.89058 7.04411ZM5.93938 7.59234C5.94508 8.35589 5.60259 9.08117 5.00787 9.56305L6.26695 11.117C7.33378 10.2526 7.94957 8.95019 7.93932 7.5774L5.93938 7.59234ZM5.0047 9.56562C4.45494 10.0148 3.70867 10.1811 2.9575 10.0218L2.5425 11.9783C3.82941 12.2512 5.20743 11.9827 6.27012 11.1144L5.0047 9.56562ZM1.75001 11.0033C1.76658 16.0954 5.88564 20.2665 11.0032 20.25L10.9968 18.25C7.00172 18.2629 3.76303 15.0025 3.74999 10.9968L1.75001 11.0033ZM11.0033 20.25C16.104 20.2334 20.2665 16.1058 20.25 10.9968L18.25 11.0032C18.2629 14.992 15.0087 18.2369 10.9967 18.25L11.0033 20.25ZM20.25 10.9989C20.2443 5.90121 16.1074 1.7556 11.0011 1.75L10.9989 3.75C15.0011 3.75439 18.2455 7.00506 18.25 11.0011L20.25 10.9989ZM8.16846 15.5833V15.5852H10.1685V15.5833H8.16846ZM9.19238 14.5855L9.19059 14.5854L9.14275 16.5848L9.14454 16.5849L9.19238 14.5855ZM10.1667 15.5851V15.5833H8.16667V15.5851H10.1667ZM9.16667 16.5833H9.16846V14.5833H9.16667V16.5833ZM12.7518 13.75V13.7518H14.7518V13.75H12.7518ZM13.7757 12.7521L13.7739 12.7521L13.7261 14.7515L13.7279 14.7515L13.7757 12.7521ZM14.75 13.7518V13.75H12.75V13.7518H14.75ZM13.75 14.75H13.7518V12.75H13.75V14.75ZM9.08512 11V11.0018H11.0851V11H9.08512ZM10.109 10.0021L10.1073 10.0021L10.0594 12.0015L10.0612 12.0015L10.109 10.0021ZM11.0833 11.0018V11H9.08333V11.0018H11.0833ZM10.0833 12H10.0851V10H10.0833V12ZM13.6685 9.16667V9.1685H15.6685V9.16667H13.6685ZM14.6924 8.16879L14.6906 8.16874L14.6427 10.1682L14.6445 10.1682L14.6924 8.16879ZM15.6667 9.16846V9.16667H13.6667V9.16846H15.6667ZM14.6667 10.1667H14.6685V8.16667H14.6667V10.1667ZM1.75179 6.41667V6.4185H3.75179V6.41667H1.75179ZM2.77571 5.41879L2.77392 5.41874L2.72608 7.41817L2.72787 7.41821L2.77571 5.41879ZM3.75 6.41846V6.41667H1.75V6.41846H3.75ZM2.75 7.41667H2.75179V5.41667H2.75V7.41667ZM6.33512 2.75V2.75183H8.33512V2.75H6.33512ZM7.35912 1.75212L7.35733 1.75208L7.30934 3.7515L7.31113 3.75155L7.35912 1.75212ZM8.33333 2.75179V2.75H6.33333V2.75179H8.33333ZM7.33333 3.75H7.33512V1.75H7.33333V3.75ZM2.66846 2.75V2.75183H4.66846V2.75H2.66846ZM3.69245 1.75212L3.69066 1.75208L3.64267 3.7515L3.64446 3.75155L3.69245 1.75212ZM4.66667 2.75179V2.75H2.66667V2.75179H4.66667ZM3.66667 3.75H3.66846V1.75H3.66667V3.75Z" fill="#00A610"/>
</svg>
