<svg width="26" height="26" viewBox="0 0 26 26" fill="none" xmlns="http://www.w3.org/2000/svg">
<path d="M14.0029 22.3504L14.3122 23.0337L14.0029 22.3504ZM11.9968 22.3504L11.6875 23.0337L11.9968 22.3504ZM4.56948 4.43304L5.23774 4.77354L4.56948 4.43304ZM5.51611 3.48615L5.8566 4.15441L5.51611 3.48615ZM13.3671 22.5617L13.2402 21.8225L13.3671 22.5617ZM12.6337 22.5617L12.7606 21.8225L12.6337 22.5617ZM21.4307 4.43304L20.7625 4.77354V4.77354L21.4307 4.43304ZM20.4834 3.48615L20.8239 2.8179L20.4834 3.48615ZM16.7803 10.2803C17.0732 9.98744 17.0732 9.51256 16.7803 9.21967C16.4874 8.92678 16.0126 8.92678 15.7197 9.21967L16.7803 10.2803ZM11.9167 14.0833L11.3863 14.6137C11.527 14.7543 11.7178 14.8333 11.9167 14.8333C12.1156 14.8333 12.3063 14.7543 12.447 14.6137L11.9167 14.0833ZM10.2803 11.3863C9.98744 11.0934 9.51256 11.0934 9.21967 11.3863C8.92677 11.6792 8.92677 12.1541 9.21967 12.447L10.2803 11.3863ZM20.9167 6.71661V11.0119H22.4167V6.71661H20.9167ZM20.9167 11.0119C20.9167 17.668 15.8996 20.6687 13.6937 21.6672L14.3122 23.0337C16.6696 21.9666 22.4167 18.587 22.4167 11.0119H20.9167ZM12.306 21.6672C10.1002 20.6687 5.08333 17.668 5.08333 11.0119H3.58333C3.58333 18.587 9.33005 21.9666 11.6875 23.0337L12.306 21.6672ZM5.08333 11.0119V6.71661H3.58333V11.0119H5.08333ZM7.80021 4H18.2002V2.5H7.80021V4ZM5.08333 6.71661C5.08333 6.09751 5.08392 5.67832 5.11036 5.35467C5.13609 5.03978 5.18251 4.88193 5.23774 4.77354L3.90123 4.09255C3.72031 4.44763 3.64865 4.82484 3.61534 5.23251C3.58275 5.63142 3.58333 6.12227 3.58333 6.71661H5.08333ZM7.80021 2.5C7.20586 2.5 6.71489 2.49942 6.31587 2.53201C5.90814 2.56531 5.53075 2.63695 5.17562 2.8179L5.8566 4.15441C5.96495 4.0992 6.12289 4.05277 6.43798 4.02703C6.76177 4.00058 7.18112 4 7.80021 4V2.5ZM5.23774 4.77354C5.37366 4.50678 5.59024 4.29013 5.8566 4.15441L5.17562 2.8179C4.62662 3.09763 4.18076 3.54394 3.90123 4.09255L5.23774 4.77354ZM13.6937 21.6672C13.4663 21.7701 13.4169 21.7922 13.2402 21.8225L13.494 23.3009C13.8649 23.2372 14.0558 23.1497 14.3122 23.0337L13.6937 21.6672ZM11.6875 23.0337C11.945 23.1502 12.1365 23.2374 12.5068 23.3009L12.7606 21.8225C12.5833 21.7921 12.5323 21.7696 12.306 21.6672L11.6875 23.0337ZM13.2402 21.8225C13.2403 21.8225 13.2333 21.8237 13.2176 21.8253C13.2026 21.8268 13.1834 21.8283 13.1601 21.8297C13.1134 21.8324 13.0581 21.834 13.0004 21.834C12.9427 21.834 12.8874 21.8324 12.8406 21.8297C12.8174 21.8283 12.7982 21.8268 12.7832 21.8253C12.7675 21.8237 12.7605 21.8225 12.7606 21.8225L12.5068 23.3009C12.6572 23.3267 12.8485 23.334 13.0004 23.334C13.1523 23.334 13.3435 23.3267 13.494 23.3009L13.2402 21.8225ZM22.4167 6.71661C22.4167 6.12234 22.4173 5.63149 22.3848 5.23263C22.3515 4.825 22.28 4.44772 22.099 4.09255L20.7625 4.77354C20.8177 4.88185 20.8641 5.03962 20.8897 5.35455C20.9161 5.67825 20.9167 6.09744 20.9167 6.71661H22.4167ZM18.2002 4C18.8193 4 19.2384 4.00058 19.562 4.02703C19.8767 4.05275 20.0345 4.09916 20.1429 4.15441L20.8239 2.8179C20.4689 2.63699 20.0918 2.56533 19.6842 2.53201C19.2853 2.49942 18.7946 2.5 18.2002 2.5V4ZM22.099 4.09255C21.8192 3.54344 21.3724 3.09737 20.8239 2.8179L20.1429 4.15441C20.4098 4.29038 20.6268 4.50728 20.7625 4.77354L22.099 4.09255ZM15.7197 9.21967L11.3863 13.553L12.447 14.6137L16.7803 10.2803L15.7197 9.21967ZM12.447 13.553L10.2803 11.3863L9.21967 12.447L11.3863 14.6137L12.447 13.553Z" fill="#45548E"/>
</svg>
