<svg width="203" height="162" viewBox="0 0 203 162" fill="none" xmlns="http://www.w3.org/2000/svg">
<path d="M24.78 51L16.38 35.4H15.12V51H3.36V8.7H21.9C25.3 8.7 28.18 9.3 30.54 10.5C32.9 11.66 34.68 13.28 35.88 15.36C37.08 17.4 37.68 19.7 37.68 22.26C37.68 25.14 36.88 27.68 35.28 29.88C33.72 32.04 31.42 33.58 28.38 34.5L37.92 51H24.78ZM15.12 27.36H20.94C22.54 27.36 23.74 26.98 24.54 26.22C25.34 25.46 25.74 24.36 25.74 22.92C25.74 21.56 25.32 20.5 24.48 19.74C23.68 18.94 22.5 18.54 20.94 18.54H15.12V27.36ZM75.188 33.78C75.188 34.7 75.128 35.62 75.008 36.54H52.748C52.868 38.38 53.368 39.76 54.248 40.68C55.168 41.56 56.328 42 57.728 42C59.688 42 61.088 41.12 61.928 39.36H74.468C73.948 41.68 72.928 43.76 71.408 45.6C69.928 47.4 68.048 48.82 65.768 49.86C63.488 50.9 60.968 51.42 58.208 51.42C54.888 51.42 51.928 50.72 49.328 49.32C46.768 47.92 44.748 45.92 43.268 43.32C41.828 40.72 41.108 37.66 41.108 34.14C41.108 30.62 41.828 27.58 43.268 25.02C44.708 22.42 46.708 20.42 49.268 19.02C51.868 17.62 54.848 16.92 58.208 16.92C61.528 16.92 64.468 17.6 67.028 18.96C69.588 20.32 71.588 22.28 73.028 24.84C74.468 27.36 75.188 30.34 75.188 33.78ZM63.188 30.84C63.188 29.4 62.708 28.28 61.748 27.48C60.788 26.64 59.588 26.22 58.148 26.22C56.708 26.22 55.528 26.62 54.608 27.42C53.688 28.18 53.088 29.32 52.808 30.84H63.188ZM98.1806 27.12H92.9006V51H81.0806V27.12H77.4206V17.34H81.0806V17.04C81.0806 12.72 82.3406 9.42 84.8606 7.14C87.4206 4.82 91.0806 3.66 95.8406 3.66C96.8006 3.66 97.5406 3.68 98.0606 3.72V13.74C97.7406 13.7 97.3006 13.68 96.7406 13.68C95.4606 13.68 94.5206 13.98 93.9206 14.58C93.3206 15.14 92.9806 16.06 92.9006 17.34H98.1806V27.12ZM148.597 6.6V51H136.837V6.6H148.597ZM167.054 6.6V51H155.294V6.6H167.054ZM19.02 101.42C15.66 101.42 12.64 100.72 9.96 99.32C7.32 97.92 5.24 95.92 3.72 93.32C2.2 90.72 1.44 87.66 1.44 84.14C1.44 80.66 2.2 77.62 3.72 75.02C5.28 72.42 7.38 70.42 10.02 69.02C12.7 67.62 15.72 66.92 19.08 66.92C22.44 66.92 25.44 67.62 28.08 69.02C30.76 70.42 32.86 72.42 34.38 75.02C35.94 77.62 36.72 80.66 36.72 84.14C36.72 87.62 35.94 90.68 34.38 93.32C32.86 95.92 30.76 97.92 28.08 99.32C25.4 100.72 22.38 101.42 19.02 101.42ZM19.02 91.22C20.66 91.22 22.02 90.62 23.1 89.42C24.22 88.18 24.78 86.42 24.78 84.14C24.78 81.86 24.22 80.12 23.1 78.92C22.02 77.72 20.68 77.12 19.08 77.12C17.48 77.12 16.14 77.72 15.06 78.92C13.98 80.12 13.44 81.86 13.44 84.14C13.44 86.46 13.96 88.22 15 89.42C16.04 90.62 17.38 91.22 19.02 91.22ZM63.5245 67.04C67.4045 67.04 70.4845 68.34 72.7645 70.94C75.0445 73.5 76.1845 76.98 76.1845 81.38V101H64.4245V82.94C64.4245 81.02 63.9245 79.52 62.9245 78.44C61.9245 77.32 60.5845 76.76 58.9045 76.76C57.1445 76.76 55.7645 77.32 54.7645 78.44C53.7645 79.52 53.2645 81.02 53.2645 82.94V101H41.5045V67.34H53.2645V72.14C54.3045 70.62 55.7045 69.4 57.4645 68.48C59.2245 67.52 61.2445 67.04 63.5245 67.04ZM113.982 90.98V101H108.882C100.282 101 95.9817 96.74 95.9817 88.22V77.12H91.8417V67.34H95.9817V59.18H107.802V67.34H113.922V77.12H107.802V88.4C107.802 89.32 108.002 89.98 108.402 90.38C108.842 90.78 109.562 90.98 110.562 90.98H113.982ZM141.516 67.04C145.356 67.04 148.396 68.34 150.636 70.94C152.916 73.5 154.056 76.98 154.056 81.38V101H142.296V82.94C142.296 81.02 141.796 79.52 140.796 78.44C139.796 77.32 138.456 76.76 136.776 76.76C135.016 76.76 133.636 77.32 132.636 78.44C131.636 79.52 131.136 81.02 131.136 82.94V101H119.376V56.6H131.136V72.14C132.176 70.62 133.576 69.4 135.336 68.48C137.136 67.52 139.196 67.04 141.516 67.04ZM192.668 83.78C192.668 84.7 192.608 85.62 192.488 86.54H170.228C170.348 88.38 170.848 89.76 171.728 90.68C172.648 91.56 173.808 92 175.208 92C177.168 92 178.568 91.12 179.408 89.36H191.948C191.428 91.68 190.408 93.76 188.888 95.6C187.408 97.4 185.528 98.82 183.248 99.86C180.968 100.9 178.448 101.42 175.688 101.42C172.368 101.42 169.408 100.72 166.808 99.32C164.248 97.92 162.228 95.92 160.748 93.32C159.308 90.72 158.588 87.66 158.588 84.14C158.588 80.62 159.308 77.58 160.748 75.02C162.188 72.42 164.188 70.42 166.748 69.02C169.348 67.62 172.328 66.92 175.688 66.92C179.008 66.92 181.948 67.6 184.508 68.96C187.068 70.32 189.068 72.28 190.508 74.84C191.948 77.36 192.668 80.34 192.668 83.78ZM180.668 80.84C180.668 79.4 180.188 78.28 179.228 77.48C178.268 76.64 177.068 76.22 175.628 76.22C174.188 76.22 173.008 76.62 172.088 77.42C171.168 78.18 170.568 79.32 170.288 80.84H180.668Z" fill="white"/>
<path d="M30.36 122.62C29.68 121.5 28.74 120.64 27.54 120.04C26.38 119.44 25 119.14 23.4 119.14C20.44 119.14 18.1 120.1 16.38 122.02C14.7 123.94 13.86 126.52 13.86 129.76C13.86 133.4 14.76 136.18 16.56 138.1C18.4 139.98 21.06 140.92 24.54 140.92C28.66 140.92 31.6 139.06 33.36 135.34H21.54V126.88H43.5V138.28C42.58 140.52 41.22 142.62 39.42 144.58C37.66 146.54 35.42 148.16 32.7 149.44C29.98 150.68 26.88 151.3 23.4 151.3C19.16 151.3 15.4 150.4 12.12 148.6C8.88 146.76 6.36 144.22 4.56 140.98C2.8 137.7 1.92 133.96 1.92 129.76C1.92 125.6 2.8 121.9 4.56 118.66C6.36 115.38 8.88 112.84 12.12 111.04C15.36 109.2 19.1 108.28 23.34 108.28C28.66 108.28 33.06 109.56 36.54 112.12C40.02 114.68 42.18 118.18 43.02 122.62H30.36ZM69.0502 151.42C65.0902 151.42 61.4502 150.5 58.1302 148.66C54.8102 146.78 52.1702 144.2 50.2102 140.92C48.2902 137.6 47.3302 133.86 47.3302 129.7C47.3302 125.54 48.2902 121.82 50.2102 118.54C52.1702 115.22 54.8102 112.64 58.1302 110.8C61.4502 108.96 65.0902 108.04 69.0502 108.04C73.0502 108.04 76.6902 108.96 79.9702 110.8C83.2902 112.64 85.9102 115.22 87.8302 118.54C89.7502 121.82 90.7102 125.54 90.7102 129.7C90.7102 133.86 89.7502 137.6 87.8302 140.92C85.9102 144.2 83.2902 146.78 79.9702 148.66C76.6502 150.5 73.0102 151.42 69.0502 151.42ZM69.0502 140.5C72.0502 140.5 74.4102 139.52 76.1302 137.56C77.8902 135.6 78.7702 132.98 78.7702 129.7C78.7702 126.34 77.8902 123.7 76.1302 121.78C74.4102 119.82 72.0502 118.84 69.0502 118.84C66.0102 118.84 63.6302 119.82 61.9102 121.78C60.1902 123.7 59.3302 126.34 59.3302 129.7C59.3302 133.02 60.1902 135.66 61.9102 137.62C63.6302 139.54 66.0102 140.5 69.0502 140.5Z" fill="#EDC700"/>
<path d="M109.974 54.2295C109.727 55.233 110.978 55.9062 111.679 55.1469L132.235 32.8814C132.642 32.4407 132.572 31.7435 132.086 31.3923L120.865 23.2896C120.535 23.051 120.382 22.6356 120.479 22.2398L125.026 3.77052C125.273 2.76702 124.022 2.09379 123.321 2.85315L102.765 25.1186C102.358 25.5593 102.428 26.2566 102.914 26.6077L114.135 34.7104C114.465 34.949 114.618 35.3644 114.521 35.7602L109.974 54.2295Z" fill="url(#paint0_linear_121_179)"/>
<defs>
<linearGradient id="paint0_linear_121_179" x1="102" y1="18.8939" x2="123.603" y2="57.8844" gradientUnits="userSpaceOnUse">
<stop stop-color="#FFDF6C"/>
<stop offset="1" stop-color="#EDC700"/>
</linearGradient>
</defs>
</svg>
