<svg width="29" height="29" viewBox="0 0 29 29" fill="none" xmlns="http://www.w3.org/2000/svg">
<circle cx="14.5" cy="14.5" r="14.5" fill="#22264E"/>
<path fill-rule="evenodd" clip-rule="evenodd" d="M19.0571 9.88852C19.5366 10.368 19.7054 11.0399 19.5641 11.6551C20.5224 11.75 21.2709 12.5584 21.2709 13.5417C21.2709 14.0901 21.038 14.5842 20.6657 14.9303C20.6876 15.2771 20.6876 15.5981 20.6876 16.2336V16.2656C20.6876 16.9642 20.6876 17.51 20.6589 17.9503C20.6298 18.3975 20.5697 18.767 20.4349 19.108C20.0979 19.9605 19.4487 20.6441 18.6237 21.0021C18.2916 21.1462 17.9325 21.2099 17.5021 21.2407C17.0798 21.2708 16.5572 21.2708 15.8921 21.2708H14.1081C13.443 21.2708 12.9204 21.2708 12.498 21.2407C12.0677 21.2099 11.7086 21.1462 11.3764 21.0021C10.5515 20.6441 9.90231 19.9605 9.56525 19.108C9.43042 18.767 9.37038 18.3975 9.34126 17.9503C9.31258 17.5099 9.31258 16.9643 9.31258 16.2656V16.25C9.31258 15.9726 9.30705 15.749 9.30222 15.5534C9.29614 15.3075 9.29115 15.1059 9.29962 14.8972C8.94768 14.553 8.72925 14.0728 8.72925 13.5417C8.72925 12.5279 9.52504 11.6999 10.526 11.6484C10.3875 11.035 10.5568 10.3662 11.0345 9.88853C11.7749 9.14816 12.9753 9.14816 13.7156 9.88853L14.9531 11.126C14.9854 11.1583 15.0163 11.1915 15.0458 11.2255C15.0753 11.1915 15.1063 11.1583 15.1386 11.126L16.376 9.88852C17.1164 9.14815 18.3168 9.14815 19.0571 9.88852ZM16.9947 10.5072C17.3934 10.1086 18.0398 10.1086 18.4384 10.5072C18.7461 10.8149 18.8165 11.2708 18.6489 11.6458H15.8561L16.9947 10.5072ZM13.0969 10.5072L14.2355 11.6458H11.4428C11.2752 11.2708 11.3456 10.8149 11.6533 10.5072C12.0519 10.1086 12.6983 10.1086 13.0969 10.5072ZM9.60425 13.5417C9.60425 12.9779 10.0613 12.5208 10.6251 12.5208H14.5626V14.5625H10.6251C10.0613 14.5625 9.60425 14.1055 9.60425 13.5417ZM15.4376 20.25L15.4376 15.4375H19.3751C19.5241 15.4375 19.6692 15.4203 19.8083 15.3878C19.8125 15.6029 19.8126 15.8649 19.8126 16.25C19.8126 16.9676 19.8124 17.4848 19.7858 17.8934C19.7594 18.2985 19.7084 18.5657 19.6212 18.7862C19.3662 19.4311 18.8798 19.9371 18.2754 20.1994C18.0715 20.2879 17.8229 20.3405 17.4398 20.3679C17.0522 20.3956 16.5608 20.3958 15.8751 20.3958H15.4127C15.4288 20.3502 15.4376 20.3011 15.4376 20.25ZM14.5626 20.25L14.5626 15.4375H10.6251C10.4695 15.4375 10.3183 15.4188 10.1736 15.3834L10.1758 15.4642C10.181 15.6581 10.1876 15.9009 10.1876 16.25C10.1876 16.9676 10.1878 17.4848 10.2144 17.8934C10.2408 18.2985 10.2918 18.5657 10.379 18.7862C10.6339 19.4311 11.1204 19.9371 11.7247 20.1994C11.9286 20.2879 12.1772 20.3405 12.5604 20.3679C12.9479 20.3956 13.4393 20.3958 14.1251 20.3958H14.5875C14.5714 20.3502 14.5626 20.3011 14.5626 20.25ZM20.3959 13.5417C20.3959 12.9779 19.9389 12.5208 19.3751 12.5208H15.4376V14.5625H19.3751C19.9389 14.5625 20.3959 14.1055 20.3959 13.5417Z" fill="#FAFAFA"/>
</svg>
