<svg width="19" height="19" viewBox="0 0 19 19" fill="none" xmlns="http://www.w3.org/2000/svg">
<path d="M14.5303 13.4697C14.2374 13.1768 13.7626 13.1768 13.4697 13.4697C13.1768 13.7626 13.1768 14.2374 13.4697 14.5303L14.5303 13.4697ZM16.9697 18.0303C17.2626 18.3232 17.7374 18.3232 18.0303 18.0303C18.3232 17.7374 18.3232 17.2626 18.0303 16.9697L16.9697 18.0303ZM8.58333 15.4167C4.80939 15.4167 1.75 12.3573 1.75 8.58333H0.25C0.25 13.1857 3.98096 16.9167 8.58333 16.9167V15.4167ZM1.75 8.58333C1.75 4.80939 4.80939 1.75 8.58333 1.75V0.25C3.98096 0.25 0.25 3.98096 0.25 8.58333H1.75ZM8.58333 1.75C12.3573 1.75 15.4167 4.80939 15.4167 8.58333H16.9167C16.9167 3.98096 13.1857 0.25 8.58333 0.25V1.75ZM15.4167 8.58333C15.4167 12.3573 12.3573 15.4167 8.58333 15.4167V16.9167C13.1857 16.9167 16.9167 13.1857 16.9167 8.58333H15.4167ZM13.4697 14.5303L16.9697 18.0303L18.0303 16.9697L14.5303 13.4697L13.4697 14.5303Z" fill="white"/>
</svg>
