<svg width="22" height="23" viewBox="0 0 22 23" fill="none" xmlns="http://www.w3.org/2000/svg">
<g>
<path d="M18.5774 3.22273C17.9131 3.00527 17.1666 2.89969 16.3041 2.84442C15.3182 2.78125 14.1201 2.78125 12.6503 2.78125H9.33254C7.59554 2.78124 6.23383 2.78124 5.14597 2.88865C4.03712 2.99814 3.12918 3.22514 2.32879 3.73448C1.49062 4.26787 0.785909 4.99968 0.272279 5.87009C0.254082 5.90092 0.236259 5.93191 0.218803 5.96306C0.302538 4.33953 0.521248 3.26424 1.0925 2.413C1.39145 1.96754 1.7533 1.57579 2.16476 1.25214C3.43881 0.25 5.25621 0.25 8.89102 0.25H14.7071C16.535 0.25 17.4489 0.25 18.0167 0.864756C18.4528 1.3369 18.554 2.03006 18.5774 3.22273Z" fill="white"/>
<path d="M0.964947 6.31095C0.166748 7.66359 0.166748 9.50489 0.166748 13.1875C0.166748 16.8701 0.166748 18.7114 0.964947 20.0641C1.41158 20.8209 2.02437 21.4573 2.75321 21.9211C4.05576 22.75 5.82887 22.75 9.37508 22.75H12.6251C16.1713 22.75 17.9444 22.75 19.247 21.9211C19.9758 21.4573 20.5886 20.8209 21.0352 20.0641C21.5594 19.1757 21.7394 18.0766 21.8011 16.3835H14.9396C12.8591 16.3835 11.1725 14.6321 11.1725 12.4716C11.1725 10.3111 12.8591 8.55968 14.9396 8.55968H21.7009C21.5923 7.62857 21.3947 6.92019 21.0352 6.31095C20.5886 5.55407 19.9758 4.91771 19.247 4.4539C19.0395 4.32186 18.82 4.21086 18.5834 4.11754C17.3345 3.625 15.6064 3.625 12.6251 3.625H9.37508C5.82887 3.625 4.05576 3.625 2.75321 4.4539C2.02437 4.91771 1.41158 5.55407 0.964947 6.31095Z" fill="white"/>
<path fill-rule="evenodd" clip-rule="evenodd" d="M21.8095 10.2472H14.9396C13.7566 10.2472 12.7975 11.2431 12.7975 12.4716C12.7975 13.7001 13.7566 14.696 14.9396 14.696H21.8309C21.8334 14.2301 21.8334 13.7287 21.8334 13.1875C21.8334 12.0431 21.8334 11.0765 21.8095 10.2472ZM14.9396 11.6279C14.4908 11.6279 14.1271 12.0056 14.1271 12.4716C14.1271 12.9376 14.4908 13.3154 14.9396 13.3154H17.8941C18.3428 13.3154 18.7066 12.9376 18.7066 12.4716C18.7066 12.0056 18.3428 11.6279 17.8941 11.6279H14.9396Z" fill="white"/>
</g>
</svg>
