<svg width="28" height="28" viewBox="0 0 28 28" fill="none" xmlns="http://www.w3.org/2000/svg">
<path d="M17.5 16.75C17.0858 16.75 16.75 17.0858 16.75 17.5C16.75 17.9142 17.0858 18.25 17.5 18.25V16.75ZM20.7667 17.5V16.75V17.5ZM9.75 10.5001C9.75 10.9143 10.0858 11.2501 10.5 11.2501C10.9142 11.2501 11.25 10.9143 11.25 10.5001H9.75ZM11.7738 3.75432L11.4333 3.08606V3.08606L11.7738 3.75432ZM10.7543 4.77405L11.4226 5.11454V5.11454L10.7543 4.77405ZM24.5002 7.23336H23.7502H24.5002ZM24.2459 4.77405L23.5777 5.11454L24.2459 4.77405ZM23.2258 3.75432L23.5662 3.08606L23.2258 3.75432ZM23.2258 17.2456L23.5662 17.9139L23.2258 17.2456ZM24.5002 13.7667H25.2502H24.5002ZM24.2459 16.226L24.9142 16.5665L24.2459 16.226ZM13.7669 24.5V23.75V24.5ZM7.23356 24.5L7.23356 25.25H7.23356V24.5ZM17.5002 20.7667H18.2502H17.5002ZM17.2459 23.226L17.9142 23.5665L17.2459 23.226ZM16.2258 24.2456L16.5662 24.9139L16.2258 24.2456ZM16.2258 10.7543L16.5662 10.0861L16.2258 10.7543ZM17.5002 14.2334H16.7502H17.5002ZM17.2459 11.774L16.5777 12.1145L17.2459 11.774ZM3.75432 11.774L4.42257 12.1145L3.75432 11.774ZM4.77376 10.7543L4.43327 10.0861L4.77376 10.7543ZM3.75432 23.226L3.08606 23.5665H3.08606L3.75432 23.226ZM4.77376 24.2456L5.11426 23.5774L4.77376 24.2456ZM17.5 18.25H20.7667V16.75H17.5V18.25ZM20.7669 2.75H14.2336V4.25H20.7669V2.75ZM9.75 7.23342V10.5001H11.25V7.23342H9.75ZM14.2336 2.75C13.5925 2.75 13.0666 2.74942 12.6397 2.78428C12.2042 2.81985 11.8062 2.89603 11.4333 3.08606L12.1143 4.42257C12.2404 4.35829 12.419 4.30731 12.7618 4.2793C13.1134 4.25058 13.5678 4.25 14.2336 4.25V2.75ZM11.25 7.23342C11.25 6.56765 11.2506 6.11341 11.2793 5.76193C11.3073 5.4192 11.3583 5.24075 11.4226 5.11454L10.0861 4.43355C9.89605 4.80647 9.81986 5.20431 9.78428 5.63979C9.74942 6.06652 9.75 6.5924 9.75 7.23342H11.25ZM11.4333 3.08606C10.8529 3.38177 10.3816 3.85358 10.0861 4.43355L11.4226 5.11454C11.5745 4.81642 11.8165 4.57427 12.1143 4.42257L11.4333 3.08606ZM25.2502 7.23336C25.2502 6.59234 25.2508 6.06647 25.216 5.63976C25.1804 5.20429 25.1042 4.80647 24.9142 4.43355L23.5777 5.11454C23.642 5.24075 23.693 5.4192 23.721 5.76191C23.7497 6.11337 23.7502 6.56759 23.7502 7.23336L25.2502 7.23336ZM20.7669 4.25C21.4327 4.25 21.8868 4.25058 22.2381 4.2793C22.5806 4.30729 22.759 4.35824 22.8853 4.42257L23.5662 3.08606C23.1934 2.89607 22.7957 2.81987 22.3603 2.78428C21.9337 2.74942 21.4079 2.75 20.7669 2.75V4.25ZM24.9142 4.43355C24.6184 3.85308 24.1461 3.38152 23.5662 3.08606L22.8853 4.42257C23.1835 4.57453 23.426 4.81692 23.5777 5.11454L24.9142 4.43355ZM20.7667 18.25C21.4077 18.25 21.9335 18.2506 22.3602 18.2157C22.7956 18.1801 23.1934 18.1039 23.5662 17.9139L22.8853 16.5774C22.759 16.6417 22.5806 16.6927 22.238 16.7207C21.8866 16.7494 21.4324 16.75 20.7667 16.75V18.25ZM23.7502 13.7667C23.7502 14.4325 23.7497 14.8867 23.721 15.2382C23.693 15.5809 23.642 15.7593 23.5777 15.8855L24.9142 16.5665C25.1042 16.1936 25.1804 15.7958 25.216 15.3603C25.2508 14.9336 25.2502 14.4077 25.2502 13.7667H23.7502ZM23.5662 17.9139C24.146 17.6185 24.6184 17.1471 24.9142 16.5665L23.5777 15.8855C23.4261 16.1831 23.1836 16.4254 22.8853 16.5774L23.5662 17.9139ZM25.2502 13.7667V7.23336H23.7502V13.7667H25.2502ZM4.25 20.7668V14.2334H2.75V20.7668H4.25ZM7.23356 11.25H13.7669V9.75H7.23356V11.25ZM13.7669 23.75H7.23356V25.25H13.7669V23.75ZM16.7502 20.7667C16.7502 21.4325 16.7497 21.8867 16.721 22.2382C16.693 22.5809 16.642 22.7593 16.5777 22.8855L17.9142 23.5665C18.1042 23.1936 18.1804 22.7958 18.216 22.3603C18.2508 21.9336 18.2502 21.4077 18.2502 20.7667H16.7502ZM13.7669 25.25C14.4079 25.25 14.9337 25.2506 15.3603 25.2157C15.7957 25.1801 16.1934 25.1039 16.5662 24.9139L15.8853 23.5774C15.759 23.6417 15.5806 23.6927 15.2381 23.7207C14.8868 23.7494 14.4327 23.75 13.7669 23.75L13.7669 25.25ZM16.5777 22.8855C16.4261 23.1831 16.1836 23.4254 15.8853 23.5774L16.5662 24.9139C17.146 24.6185 17.6184 24.1471 17.9142 23.5665L16.5777 22.8855ZM13.7669 11.25C14.4327 11.25 14.8868 11.2506 15.2381 11.2793C15.5806 11.3073 15.759 11.3582 15.8853 11.4226L16.5662 10.0861C16.1934 9.89607 15.7957 9.81987 15.3603 9.78428C14.9337 9.74942 14.4079 9.75 13.7669 9.75V11.25ZM18.2502 14.2334C18.2502 13.5923 18.2508 13.0665 18.216 12.6398C18.1804 12.2043 18.1042 11.8065 17.9142 11.4336L16.5777 12.1145C16.642 12.2408 16.693 12.4192 16.721 12.7619C16.7497 13.1134 16.7502 13.5676 16.7502 14.2334H18.2502ZM15.8853 11.4226C16.1835 11.5745 16.426 11.8169 16.5777 12.1145L17.9142 11.4336C17.6184 10.8531 17.1461 10.3815 16.5662 10.0861L15.8853 11.4226ZM4.25 14.2334C4.25 13.5676 4.25058 13.1134 4.2793 12.7619C4.3073 12.4192 4.35827 12.2407 4.42257 12.1145L3.08606 11.4336C2.89605 11.8065 2.81986 12.2043 2.78428 12.6398C2.74942 13.0665 2.75 13.5924 2.75 14.2334H4.25ZM7.23356 9.75C6.59254 9.75 6.06656 9.74942 5.63973 9.78428C5.2042 9.81985 4.80623 9.89603 4.43327 10.0861L5.11426 11.4226C5.24042 11.3583 5.41895 11.3073 5.76184 11.2793C6.11344 11.2506 6.5678 11.25 7.23356 11.25V9.75ZM4.42257 12.1145C4.57447 11.8164 4.81653 11.5743 5.11426 11.4226L4.43327 10.0861C3.85291 10.3818 3.38157 10.8536 3.08606 11.4336L4.42257 12.1145ZM2.75 20.7668C2.75 21.4078 2.74942 21.9336 2.78428 22.3603C2.81986 22.7958 2.89605 23.1936 3.08606 23.5665L4.42257 22.8855C4.35826 22.7593 4.3073 22.5809 4.2793 22.2382C4.25058 21.8867 4.25 21.4325 4.25 20.7668H2.75ZM7.23356 23.75C6.56781 23.75 6.11345 23.7494 5.76186 23.7207C5.41898 23.6927 5.24044 23.6417 5.11426 23.5774L4.43327 24.9139C4.80622 25.1039 5.20418 25.1801 5.63972 25.2157C6.06655 25.2506 6.59252 25.25 7.23356 25.25L7.23356 23.75ZM3.08606 23.5665C3.38161 24.1466 3.85299 24.6182 4.43327 24.9139L5.11426 23.5774C4.81645 23.4256 4.57443 23.1836 4.42257 22.8855L3.08606 23.5665ZM16.7502 14.2334V20.7667H18.2502V14.2334H16.7502Z" fill="#B7C1E8"/>
</svg>
