<svg width="27" height="27" viewBox="0 0 27 27" fill="none" xmlns="http://www.w3.org/2000/svg">
<path d="M16.5 11.25C16.5 10.8358 16.1642 10.5 15.75 10.5C15.3358 10.5 15 10.8358 15 11.25H16.5ZM15 19.125C15 19.5392 15.3358 19.875 15.75 19.875C16.1642 19.875 16.5 19.5392 16.5 19.125H15ZM12 11.25C12 10.8358 11.6642 10.5 11.25 10.5C10.8358 10.5 10.5 10.8358 10.5 11.25H12ZM10.5 19.125C10.5 19.5392 10.8358 19.875 11.25 19.875C11.6642 19.875 12 19.5392 12 19.125H10.5ZM20.25 6.75H21C21 6.33579 20.6642 6 20.25 6V6.75ZM6.75 6.75V6C6.33579 6 6 6.33579 6 6.75H6.75ZM7.97827 23.3797L8.31876 22.7115L7.97827 23.3797ZM6.99524 22.3965L6.32698 22.737L6.99524 22.3965ZM20.005 22.3965L19.3368 22.056L20.005 22.3965ZM19.0213 23.3797L18.6808 22.7115L19.0213 23.3797ZM4.5 6C4.08579 6 3.75 6.33579 3.75 6.75C3.75 7.16421 4.08579 7.5 4.5 7.5V6ZM22.5 7.5C22.9142 7.5 23.25 7.16421 23.25 6.75C23.25 6.33579 22.9142 6 22.5 6V7.5ZM18 6.75V7.5C18.4142 7.5 18.75 7.16421 18.75 6.75H18ZM9 6.75H8.25C8.25 7.16421 8.58579 7.5 9 7.5V6.75ZM17.8286 4.76395L18.5215 4.47693L17.8286 4.76395ZM16.611 3.54627L16.8981 2.85336V2.85336L16.611 3.54627ZM15 11.25V19.125H16.5V11.25H15ZM10.5 11.25L10.5 19.125H12L12 11.25H10.5ZM19.5 6.75V20.025H21V6.75H19.5ZM16.6502 22.875H10.3502V24.375H16.6502V22.875ZM7.5 20.025V6.75H6V20.025H7.5ZM6.75 7.5H20.25V6H6.75V7.5ZM10.3502 22.875C9.7078 22.875 9.27095 22.8744 8.93326 22.8468C8.60428 22.8199 8.43603 22.7712 8.31876 22.7115L7.63778 24.048C8.00181 24.2335 8.38948 24.3074 8.81112 24.3418C9.22405 24.3756 9.73252 24.375 10.3502 24.375V22.875ZM6 20.025C6 20.6427 5.99942 21.1511 6.03315 21.5639C6.06759 21.9855 6.14151 22.373 6.32698 22.737L7.66349 22.056C7.60373 21.9387 7.55503 21.7706 7.52816 21.4418C7.50058 21.1042 7.5 20.6674 7.5 20.025H6ZM8.31876 22.7115C8.03663 22.5677 7.80736 22.3384 7.66349 22.056L6.32698 22.737C6.61454 23.3014 7.07318 23.7603 7.63778 24.048L8.31876 22.7115ZM19.5 20.025C19.5 20.6675 19.4995 21.1042 19.4719 21.4419C19.4451 21.7707 19.3965 21.9388 19.3368 22.056L20.6733 22.737C20.8588 22.3729 20.9326 21.9853 20.967 21.5638C21.0006 21.151 21 20.6426 21 20.025H19.5ZM16.6502 24.375C17.2679 24.375 17.7762 24.3756 18.1889 24.3418C18.6104 24.3074 18.9978 24.2334 19.3618 24.048L18.6808 22.7115C18.5634 22.7713 18.3953 22.82 18.0667 22.8468C17.7292 22.8744 17.2927 22.875 16.6502 22.875V24.375ZM19.3368 22.056C19.1931 22.3379 18.9634 22.5675 18.6808 22.7115L19.3618 24.048C19.9258 23.7606 20.3854 23.3019 20.6733 22.737L19.3368 22.056ZM4.5 7.5H22.5V6H4.5V7.5ZM18 6H9V7.5H18V6ZM12.375 4.125H14.625V2.625H12.375V4.125ZM9.75 6.75C9.75 6.21555 9.75041 5.85228 9.76967 5.56994C9.78847 5.29435 9.82271 5.15108 9.86418 5.05096L8.47836 4.47693C8.34856 4.7903 8.29716 5.11587 8.27315 5.46784C8.24959 5.81307 8.25 6.23608 8.25 6.75H9.75ZM12.375 2.625C11.8611 2.625 11.438 2.62459 11.0927 2.64815C10.7407 2.67216 10.415 2.72355 10.1017 2.85336L10.6757 4.23918C10.7758 4.19772 10.9191 4.16348 11.1948 4.14467C11.4772 4.12541 11.8406 4.125 12.375 4.125V2.625ZM9.86418 5.05096C10.0165 4.68325 10.3083 4.39135 10.6757 4.23918L10.1017 2.85336C9.36641 3.15791 8.78277 3.74202 8.47836 4.47693L9.86418 5.05096ZM18.75 6.75C18.75 6.23603 18.7504 5.81303 18.7268 5.46777C18.7027 5.11578 18.6513 4.79025 18.5215 4.47693L17.1357 5.05096C17.1772 5.15113 17.2114 5.29444 17.2303 5.57001C17.2496 5.85232 17.25 6.2156 17.25 6.75H18.75ZM14.625 4.125C15.1594 4.125 15.5227 4.12541 15.805 4.14467C16.0806 4.16347 16.2239 4.19771 16.324 4.23918L16.8981 2.85336C16.5847 2.72356 16.2591 2.67216 15.9072 2.64815C15.5619 2.62459 15.1389 2.625 14.625 2.625V4.125ZM18.5215 4.47693C18.2171 3.74191 17.6332 3.15787 16.8981 2.85336L16.324 4.23918C16.6915 4.3914 16.9834 4.68336 17.1357 5.05096L18.5215 4.47693Z" fill="white"/>
</svg>
