<svg width="38" height="39" viewBox="0 0 38 39" fill="none" xmlns="http://www.w3.org/2000/svg">
<path d="M36 19.5C36 29.2143 28.3402 37 19 37C9.65981 37 2 29.2143 2 19.5C2 9.78573 9.65981 2 19 2C28.3402 2 36 9.78573 36 19.5Z" fill="white" stroke="#020412" stroke-width="4"/>
<path d="M11.6667 27.3333H10.6667C10.6667 27.5986 10.772 27.8529 10.9596 28.0404C11.1471 28.228 11.4015 28.3333 11.6667 28.3333L11.6667 27.3333ZM11.6667 23.6667L10.9596 22.9596C10.772 23.1471 10.6667 23.4014 10.6667 23.6667H11.6667ZM21.6296 13.7037L20.9225 12.9966L20.9225 12.9966L21.6296 13.7037ZM23.7038 13.7037L22.9966 14.4108L22.9966 14.4108L23.7038 13.7037ZM25.2962 15.2962L26.0033 14.5891L26.0033 14.5891L25.2962 15.2962ZM25.2963 17.3704L24.5892 16.6633L24.5892 16.6633L25.2963 17.3704ZM15.3334 27.3333L15.3334 28.3333C15.5986 28.3333 15.8529 28.228 16.0405 28.0404L15.3334 27.3333ZM25.9088 16.0501L26.8599 15.7411L26.8599 15.7411L25.9088 16.0501ZM25.9088 16.6165L24.9578 16.3075L24.9578 16.3075L25.9088 16.6165ZM22.3834 13.0912L22.0744 12.1401L22.0744 12.1401L22.3834 13.0912ZM22.95 13.0912L23.259 12.1401L22.95 13.0912ZM19.7071 15.6262C19.3166 15.2357 18.6834 15.2357 18.2929 15.6262C17.9024 16.0167 17.9024 16.6499 18.2929 17.0404L19.7071 15.6262ZM21.9596 20.7071C22.3501 21.0976 22.9833 21.0976 23.3738 20.7071C23.7643 20.3166 23.7643 19.6834 23.3738 19.2929L21.9596 20.7071ZM12.6667 27.3333V23.6667H10.6667V27.3333H12.6667ZM12.3738 24.3738L22.3367 14.4108L20.9225 12.9966L10.9596 22.9596L12.3738 24.3738ZM22.9966 14.4108L24.5891 16.0033L26.0033 14.5891L24.4109 12.9966L22.9966 14.4108ZM24.5892 16.6633L14.6262 26.6262L16.0405 28.0404L26.0034 18.0775L24.5892 16.6633ZM15.3333 26.3333L11.6667 26.3333L11.6667 28.3333L15.3334 28.3333L15.3333 26.3333ZM24.5891 16.0033C24.7823 16.1965 24.8841 16.2994 24.9508 16.378C25.0099 16.4476 24.9808 16.43 24.9578 16.3591L26.8599 15.7411C26.7688 15.4608 26.6149 15.2478 26.4755 15.0836C26.3437 14.9283 26.1732 14.759 26.0033 14.5891L24.5891 16.0033ZM26.0034 18.0775C26.1732 17.9077 26.3437 17.7383 26.4755 17.583C26.6149 17.4188 26.7688 17.2058 26.8599 16.9256L24.9578 16.3075C24.9808 16.2366 25.0099 16.219 24.9508 16.2887C24.8841 16.3672 24.7823 16.4701 24.5892 16.6633L26.0034 18.0775ZM24.9578 16.3591C24.9523 16.3424 24.9523 16.3243 24.9578 16.3075L26.8599 16.9256C26.9849 16.5406 26.9849 16.126 26.8599 15.7411L24.9578 16.3591ZM22.3367 14.4108C22.5299 14.2177 22.6328 14.1159 22.7113 14.0492C22.7809 13.9901 22.7633 14.0192 22.6925 14.0423L22.0744 12.1401C21.7942 12.2312 21.5812 12.3851 21.417 12.5245C21.2617 12.6563 21.0923 12.8268 20.9225 12.9966L22.3367 14.4108ZM24.4109 12.9966C24.2411 12.8268 24.0717 12.6564 23.9165 12.5246C23.7523 12.3851 23.5393 12.2312 23.259 12.1401L22.641 14.0423C22.57 14.0192 22.5524 13.99 22.622 14.0491C22.7006 14.1158 22.8034 14.2176 22.9966 14.4108L24.4109 12.9966ZM22.6925 14.0423C22.6757 14.0477 22.6577 14.0477 22.641 14.0423L23.259 12.1401C22.8741 12.0151 22.4594 12.0151 22.0744 12.1401L22.6925 14.0423ZM18.2929 17.0404L21.9596 20.7071L23.3738 19.2929L19.7071 15.6262L18.2929 17.0404Z" fill="#020412"/>
</svg>
