<svg width="26" height="26" viewBox="0 0 26 26" fill="none" xmlns="http://www.w3.org/2000/svg">
<path d="M13.054 16.7374H13.804C13.804 16.3232 13.4682 15.9874 13.054 15.9874V16.7374ZM13.054 16.8458L13.0538 17.5958C13.2527 17.5958 13.4435 17.5168 13.5842 17.3762C13.7249 17.2355 13.804 17.0447 13.804 16.8458H13.054ZM12.946 16.8458H12.196C12.196 17.2599 12.5317 17.5957 12.9459 17.5958L12.946 16.8458ZM12.946 16.7374V15.9874C12.5318 15.9874 12.196 16.3232 12.196 16.7374H12.946ZM13.75 9.15411C13.75 8.7399 13.4142 8.40411 13 8.40411C12.5858 8.40411 12.25 8.7399 12.25 9.15411H13.75ZM12.25 13.4874C12.25 13.9017 12.5858 14.2374 13 14.2374C13.4142 14.2374 13.75 13.9017 13.75 13.4874H12.25ZM3.48615 4.43304L4.15441 4.77354L3.48615 4.43304ZM4.43278 3.48615L4.77327 4.15441L4.43278 3.48615ZM4.43278 22.5138L4.77327 21.8456L4.43278 22.5138ZM3.48615 21.567L2.8179 21.9075H2.8179L3.48615 21.567ZM22.5141 21.567L21.8458 21.2265L22.5141 21.567ZM21.5668 22.5138L21.2263 21.8456L21.5668 22.5138ZM22.5141 4.43304L21.8458 4.77354V4.77354L22.5141 4.43304ZM21.5668 3.48615L21.9073 2.8179V2.8179L21.5668 3.48615ZM12.304 16.7374V16.8458H13.804V16.7374H12.304ZM13.0541 16.0958L12.9462 16.0958L12.9459 17.5958L13.0538 17.5958L13.0541 16.0958ZM13.696 16.8458V16.7374H12.196V16.8458H13.696ZM12.946 17.4874H13.054V15.9874H12.946V17.4874ZM12.25 9.15411V13.4874H13.75V9.15411H12.25ZM22 6.71661V19.2833H23.5V6.71661H22ZM19.2835 22H6.71688V23.5H19.2835V22ZM4 19.2833V6.71661H2.5V19.2833H4ZM6.71688 4H19.2835V2.5H6.71688V4ZM4 6.71661C4 6.09751 4.00058 5.67832 4.02703 5.35467C4.05276 5.03978 4.09918 4.88193 4.15441 4.77354L2.8179 4.09255C2.63697 4.44763 2.56532 4.82484 2.53201 5.23251C2.49942 5.63142 2.5 6.12227 2.5 6.71661H4ZM6.71688 2.5C6.12252 2.5 5.63156 2.49942 5.23253 2.53201C4.82481 2.56531 4.44742 2.63695 4.09229 2.8179L4.77327 4.15441C4.88162 4.0992 5.03956 4.05277 5.35464 4.02703C5.67844 4.00058 6.09779 4 6.71688 4V2.5ZM4.15441 4.77354C4.29033 4.50678 4.5069 4.29013 4.77327 4.15441L4.09229 2.8179C3.54329 3.09763 3.09743 3.54394 2.8179 4.09255L4.15441 4.77354ZM6.71688 22C6.0978 22 5.67845 21.9994 5.35466 21.973C5.03958 21.9472 4.88163 21.9008 4.77327 21.8456L4.09229 23.1821C4.44741 23.363 4.82478 23.4347 5.23252 23.468C5.63155 23.5006 6.12251 23.5 6.71688 23.5V22ZM2.5 19.2833C2.5 19.8776 2.49942 20.3685 2.53201 20.7675C2.56532 21.1752 2.63697 21.5524 2.8179 21.9075L4.15441 21.2265C4.09919 21.1182 4.05276 20.9603 4.02703 20.6453C4.00058 20.3216 4 19.9024 4 19.2833H2.5ZM4.77327 21.8456C4.50682 21.7098 4.29029 21.4932 4.15441 21.2265L2.8179 21.9075C3.09747 22.4562 3.54337 22.9024 4.09229 23.1821L4.77327 21.8456ZM22 19.2833C22 19.9025 21.9995 20.3217 21.9731 20.6454C21.9474 20.9604 21.901 21.1182 21.8458 21.2265L23.1823 21.9075C23.3633 21.5523 23.4349 21.175 23.4681 20.7673C23.5006 20.3685 23.5 19.8776 23.5 19.2833H22ZM19.2835 23.5C19.8779 23.5 20.3687 23.5006 20.7675 23.468C21.1751 23.4346 21.5522 23.363 21.9073 23.1821L21.2263 21.8456C21.1178 21.9008 20.96 21.9472 20.6453 21.973C20.3217 21.9994 19.9026 22 19.2835 22V23.5ZM21.8458 21.2265C21.7102 21.4927 21.4932 21.7095 21.2263 21.8456L21.9073 23.1821C22.4557 22.9026 22.9025 22.4567 23.1823 21.9075L21.8458 21.2265ZM23.5 6.71661C23.5 6.12234 23.5006 5.63149 23.4681 5.23263C23.4349 4.825 23.3633 4.44772 23.1823 4.09255L21.8458 4.77354C21.901 4.88185 21.9474 5.03962 21.9731 5.35455C21.9995 5.67825 22 6.09744 22 6.71661H23.5ZM19.2835 4C19.9027 4 20.3218 4.00058 20.6453 4.02703C20.9601 4.05275 21.1178 4.09916 21.2263 4.15441L21.9073 2.8179C21.5522 2.63699 21.1751 2.56533 20.7675 2.53201C20.3687 2.49942 19.8779 2.5 19.2835 2.5V4ZM23.1823 4.09255C22.9025 3.54344 22.4558 3.09737 21.9073 2.8179L21.2263 4.15441C21.4931 4.29038 21.7102 4.50728 21.8458 4.77354L23.1823 4.09255Z" fill="#45548E"/>
</svg>
