<svg width="24" height="24" viewBox="0 0 24 24" fill="none" xmlns="http://www.w3.org/2000/svg">
<path fill-rule="evenodd" clip-rule="evenodd" d="M11.0998 1.1001C7.61406 1.1001 4.91707 4.1552 5.34942 7.61407L5.42878 8.24891C5.53889 9.12983 5.21711 10.0097 4.56468 10.6118C3.09041 11.9722 2.68081 14.1376 3.55632 15.9425L3.65967 16.1556C4.41767 17.7182 5.94475 18.7499 7.65725 18.885L7.80559 19.1393C8.84095 20.9142 10.4646 21.9001 12.183 21.9001C13.9014 21.9001 15.525 20.9142 16.5604 19.1393L16.7125 18.8786C18.1491 18.7408 19.4537 17.9495 20.2375 16.718C21.3624 14.9504 21.1764 12.6751 19.8371 11.1177C19.3114 11.4806 18.7128 11.7455 18.0678 11.8858C18.1109 11.9291 18.155 11.9716 18.2 12.0133L18.2438 12.0541C19.2736 13.0105 19.4735 14.5659 18.7189 15.7515C18.1844 16.5915 17.2578 17.1001 16.2621 17.1001H16.2001C16.1892 17.0999 16.1784 17.0999 16.1676 17.1001H8.1984C8.18758 17.0999 8.17675 17.0999 8.16591 17.1001H8.04133C6.86522 17.1001 5.79249 16.4282 5.2792 15.37L5.17584 15.1569C4.64662 14.0659 4.89421 12.757 5.78538 11.9346C6.86471 10.9386 7.39705 9.48298 7.21488 8.02565L7.13552 7.3908C6.83746 5.00628 8.69675 2.9001 11.0998 2.9001H12.8028C13.1932 2.9001 13.569 2.95539 13.9235 3.05829C14.5336 2.58147 15.2572 2.24319 16.047 2.09079C15.1251 1.46746 14.0103 1.1001 12.8028 1.1001H11.0998ZM12.183 20.1001C11.3882 20.1001 10.5313 19.7349 9.82797 18.9001H14.538C13.8347 19.7349 12.9778 20.1001 12.183 20.1001Z" fill="#2A7671"/>
<path d="M21 7C21 9.20914 19.2091 11 17 11C14.7909 11 13 9.20914 13 7C13 4.79086 14.7909 3 17 3C19.2091 3 21 4.79086 21 7Z" fill="#FF3D3D"/>
</svg>
