<svg width="17" height="16" viewBox="0 0 17 16" fill="none" xmlns="http://www.w3.org/2000/svg">
<path d="M8.95127 2.62223C8.95127 2.35436 8.73411 2.13721 8.46624 2.13721C8.19837 2.13721 7.98122 2.35436 7.98122 2.62223L7.98122 7.31081H3.29264C3.02477 7.31081 2.80762 7.52796 2.80762 7.79583C2.80762 8.0637 3.02477 8.28086 3.29264 8.28086H7.98122V12.9694C7.98122 13.2373 8.19837 13.4545 8.46624 13.4545C8.73411 13.4545 8.95127 13.2373 8.95127 12.9694V8.28086H13.6398C13.9077 8.28086 14.1249 8.0637 14.1249 7.79583C14.1249 7.52796 13.9077 7.31081 13.6398 7.31081H8.95127L8.95127 2.62223Z" fill="#FAFAFA"/>
</svg>
