<svg width="228" height="63" viewBox="0 0 228 63" fill="none" xmlns="http://www.w3.org/2000/svg">
<path d="M30.2047 30.5V44.955L19.6347 30.5H7.73467V55H16.8347V40.545L27.4047 55H39.3047V30.5H30.2047ZM56.8181 47.3V30.5H47.7181C47.7181 34 44.3231 34 40.7181 34V41.7C43.2731 41.7 45.1631 41.7 47.8231 39.355L47.7531 47.3H40.7181V55H63.8181V47.3H56.8181ZM78.8831 55.35C88.5781 55.35 93.2331 51.22 93.2331 42.715C93.2331 34.245 88.5781 30.15 78.8831 30.15C69.1531 30.15 64.5331 34.21 64.5331 42.715C64.5331 51.255 69.1531 55.35 78.8831 55.35ZM78.8831 47.65C74.5781 47.65 73.6331 45.34 73.6331 42.715C73.6331 40.125 74.5431 37.85 78.8831 37.85C83.2231 37.85 84.1331 40.16 84.1331 42.715C84.1331 45.305 83.1881 47.65 78.8831 47.65ZM108.278 55.35C117.973 55.35 122.628 51.22 122.628 42.715C122.628 34.245 117.973 30.15 108.278 30.15C98.5476 30.15 93.9276 34.21 93.9276 42.715C93.9276 51.255 98.5476 55.35 108.278 55.35ZM108.278 47.65C103.973 47.65 103.028 45.34 103.028 42.715C103.028 40.125 103.938 37.85 108.278 37.85C112.618 37.85 113.528 40.16 113.528 42.715C113.528 45.305 112.583 47.65 108.278 47.65ZM123.672 48.7V55H126.752L124.372 62.7H128.117L132.072 55V48.7H123.672ZM147.482 55.35C157.177 55.35 161.832 51.22 161.832 42.715C161.832 34.245 157.177 30.15 147.482 30.15C137.752 30.15 133.132 34.21 133.132 42.715C133.132 51.255 137.752 55.35 147.482 55.35ZM147.482 47.65C143.177 47.65 142.232 45.34 142.232 42.715C142.232 40.125 143.142 37.85 147.482 37.85C151.822 37.85 152.732 40.16 152.732 42.715C152.732 45.305 151.787 47.65 147.482 47.65ZM176.876 55.35C186.571 55.35 191.226 51.22 191.226 42.715C191.226 34.245 186.571 30.15 176.876 30.15C167.146 30.15 162.526 34.21 162.526 42.715C162.526 51.255 167.146 55.35 176.876 55.35ZM176.876 47.65C172.571 47.65 171.626 45.34 171.626 42.715C171.626 40.125 172.536 37.85 176.876 37.85C181.216 37.85 182.126 40.16 182.126 42.715C182.126 45.305 181.181 47.65 176.876 47.65ZM206.271 55.35C215.966 55.35 220.621 51.22 220.621 42.715C220.621 34.245 215.966 30.15 206.271 30.15C196.541 30.15 191.921 34.21 191.921 42.715C191.921 51.255 196.541 55.35 206.271 55.35ZM206.271 47.65C201.966 47.65 201.021 45.34 201.021 42.715C201.021 40.125 201.931 37.85 206.271 37.85C210.611 37.85 211.521 40.16 211.521 42.715C211.521 45.305 210.576 47.65 206.271 47.65Z" fill="white"/>
<path d="M64.8865 4.3L61.8415 14.674L58.6495 4.3H52.1395L48.9475 14.674L45.9025 4.3H40.0435L44.8735 19H52.9795L55.3945 10.537L57.8095 19H65.9155L70.7455 4.3H64.8865ZM76.8444 4.3H71.3844V19H76.8444V4.3ZM91.1623 4.3V12.973L84.8203 4.3H77.6803V19H83.1403V10.327L89.4823 19H96.6223V4.3H91.1623ZM124.358 11.629V4.3H118.898V11.629C118.898 13.183 118.331 14.59 115.118 14.59C111.905 14.59 111.338 13.204 111.338 11.629V4.3H105.878V11.629C105.878 16.753 108.65 19.21 115.118 19.21C121.565 19.21 124.358 16.732 124.358 11.629ZM136.747 4.3H125.197V19H130.657V15.556H136.747C140.086 15.556 142.375 13.204 142.375 9.928C142.375 6.652 140.086 4.3 136.747 4.3ZM135.697 10.936H130.657V8.92H135.697C136.243 8.92 136.915 8.92 136.915 9.928C136.915 10.936 136.243 10.936 135.697 10.936ZM169.256 4.3H151.196V8.92H157.496V19H162.956V8.92H169.256V4.3ZM178.708 19.21C185.155 19.21 187.948 16.732 187.948 11.629C187.948 6.547 185.155 4.09 178.708 4.09C172.24 4.09 169.468 6.526 169.468 11.629C169.468 16.753 172.24 19.21 178.708 19.21ZM178.708 14.59C175.495 14.59 174.928 13.204 174.928 11.629C174.928 10.075 175.474 8.71 178.708 8.71C181.942 8.71 182.488 10.096 182.488 11.629C182.488 13.183 181.921 14.59 178.708 14.59Z" fill="white"/>
</svg>
