<svg width="22" height="17" viewBox="0 0 22 17" fill="none" xmlns="http://www.w3.org/2000/svg">
<g clip-path="url(#clip0_1268_3021)">
<path d="M21.908 2.03699C21.2069 2.3349 20.4393 2.51268 19.6819 2.63281C20.0401 2.57515 20.5672 1.96972 20.777 1.71986C21.0994 1.34507 21.3656 0.917432 21.514 0.456154C21.5344 0.422519 21.5498 0.37447 21.5088 0.34564C21.4628 0.32642 21.427 0.33603 21.3911 0.35525C20.5519 0.778088 19.6819 1.08561 18.7505 1.30183C18.6738 1.32105 18.6175 1.30183 18.5663 1.25858C18.4947 1.18171 18.423 1.10483 18.3411 1.03756C17.9522 0.725233 17.5326 0.484984 17.0618 0.302395C16.4426 0.0669514 15.767 -0.0339531 15.1018 0.00448671C14.4519 0.0429265 13.8173 0.215906 13.2441 0.499399C12.6659 0.782893 12.1541 1.1769 11.7447 1.64779C11.32 2.1379 11.0078 2.7193 10.8492 3.33433C10.6956 3.92535 10.7059 4.51155 10.8031 5.11217C10.8185 5.21308 10.8082 5.22269 10.711 5.21308C7.08782 4.70856 4.08898 3.4929 1.64795 0.883797C1.54048 0.768478 1.48419 0.768478 1.39719 0.893407C0.332758 2.39256 0.849622 4.80466 2.18016 5.99148C2.35928 6.15005 2.53839 6.30861 2.73797 6.45276C2.66632 6.46718 1.781 6.37588 0.987794 5.99148C0.880327 5.92902 0.829152 5.96265 0.818917 6.07797C0.808682 6.24134 0.824035 6.3903 0.849622 6.56328C1.05432 8.08645 2.17505 9.49431 3.7154 10.0421C3.89963 10.1142 4.09921 10.1766 4.2988 10.2103C3.95081 10.2823 3.58747 10.3352 2.58444 10.2583C2.45651 10.2343 2.41045 10.2967 2.45651 10.4073C3.20878 12.3389 4.84125 12.9155 6.05921 13.2422C6.22296 13.271 6.38672 13.271 6.55048 13.3047C6.54025 13.3191 6.53001 13.3191 6.51978 13.3335C6.1155 13.9149 4.71331 14.3425 4.05827 14.5588C2.87102 14.948 1.5763 15.1257 0.322523 15.0104C0.122941 14.9816 0.0768842 14.9864 0.0257095 15.0104C-0.0305826 15.0441 0.0205921 15.0873 0.0820017 15.1354C0.337875 15.2939 0.593749 15.4333 0.859857 15.5678C1.65818 15.9666 2.48721 16.2789 3.35718 16.5048C7.85032 17.6676 12.9064 16.8123 16.2788 13.6698C18.9245 11.2001 19.8559 7.79335 19.8559 4.38182C19.8559 4.24728 20.0248 4.1752 20.122 4.10313C20.8129 3.61783 21.3656 3.03643 21.8824 2.38775C22.0001 2.2436 22.0001 2.11387 22.0001 2.06102C22.0001 2.05141 22.0001 2.0418 22.0001 2.0418C22.0001 1.98414 22.0001 1.99855 21.908 2.03699Z" fill="#33CCFF"/>
</g>
<defs>
<clipPath id="clip0_1268_3021">
<rect width="22" height="17" fill="white"/>
</clipPath>
</defs>
</svg>
