<svg width="39" height="39" viewBox="0 0 39 39" fill="none" xmlns="http://www.w3.org/2000/svg">
<path d="M19.3965 32.5L11.0824 32.5C8.68751 32.5 6.47648 31.2157 5.28988 29.1354L4.98543 28.6017C4.9046 28.46 4.84231 28.3085 4.80008 28.1509C4.61046 27.4432 4.84348 26.6895 5.39942 26.2123L6.25248 25.48C8.60268 23.4628 7.57369 19.6225 4.52971 19.0506L3.66634 18.8884C2.79867 18.7253 2.10138 18.0792 1.87288 17.2264C0.840526 13.3736 3.12695 9.4134 6.97976 8.38104L8.69696 7.92092C10.5183 7.43288 11.429 7.18887 12.1465 7.60308C12.8639 8.01729 13.1079 8.92798 13.5959 10.7493L14.8038 15.257L16.1465 20.4708M16.1465 32.5H30.0493C34.038 32.5 37.2715 29.2665 37.2715 25.2778C37.2715 24.3949 36.7652 23.5903 35.9693 23.2083L35.1773 22.8281C32.3851 21.4879 32.3851 17.5121 35.1773 16.1719L35.9693 15.7917C36.7652 15.4097 37.2715 14.6051 37.2715 13.7222C37.2715 9.7335 34.038 6.5 30.0493 6.5H20.1465C18.2609 6.5 17.3181 6.5 16.7323 7.08579C16.1465 7.67157 16.1465 8.61438 16.1465 10.5V21.125" stroke="white" stroke-width="2" stroke-linecap="round"/>
<path d="M16.1465 13L16.1465 32.5" stroke="white" stroke-width="2" stroke-linecap="round" stroke-dasharray="2 3"/>
</svg>
