<svg width="205" height="43" viewBox="0 0 205 43" fill="none" xmlns="http://www.w3.org/2000/svg">
<path d="M0.361953 19.364C0.361953 28.148 5.11395 32.36 16.202 32.36C26.318 32.36 31.538 28.796 31.934 20.804H22.358C21.998 23.216 20.162 24.44 16.202 24.44C10.694 24.44 9.72195 22.064 9.72195 19.364C9.72195 16.7 10.658 14.36 16.202 14.36C20.162 14.36 21.998 15.548 22.358 17.924H31.934C31.538 9.968 26.282 6.44 16.202 6.44C5.11395 6.44 0.361953 10.616 0.361953 19.364ZM57.5162 32H67.8122L57.3722 6.8H43.4762L33.0362 32H43.3322L45.0602 27.464H55.7882L57.5162 32ZM47.5082 20.984L50.4242 13.28L53.3402 20.984H47.5082ZM69.6127 23.108C69.6127 30.596 75.3727 32.36 85.7047 32.36C96.0367 32.36 101.797 30.596 101.797 23.648C101.797 17.06 95.6407 16.376 85.7047 15.98C80.2327 15.764 79.3327 15.8 79.3327 14.828C79.3327 13.856 80.2327 13.64 84.6247 13.64C89.1967 13.64 91.3567 13.928 91.3567 15.26H100.717C100.717 8.816 95.1727 6.44 85.3447 6.44C75.4087 6.44 69.9727 8.816 69.9727 14.36C69.9727 20.228 74.3287 22.1 85.7047 22.46C91.6087 22.64 92.4367 22.784 92.4367 23.864C92.4367 24.8 91.6087 25.16 86.0647 25.16C80.1247 25.16 78.9727 24.332 78.9727 23.108H69.6127ZM138.159 19.364V6.8H128.799V19.364C128.799 22.028 127.827 24.44 122.319 24.44C116.811 24.44 115.839 22.064 115.839 19.364V6.8H106.479V19.364C106.479 28.148 111.231 32.36 122.319 32.36C133.371 32.36 138.159 28.112 138.159 19.364ZM164.082 32H174.378L163.938 6.8H150.042L139.602 32H149.898L151.626 27.464H162.354L164.082 32ZM154.074 20.984L156.99 13.28L159.906 20.984H154.074ZM188.078 24.08V6.8H178.718V32H204.638V24.08H188.078Z" fill="white"/>
</svg>
