<svg width="20" height="23" viewBox="0 0 20 23" fill="none" xmlns="http://www.w3.org/2000/svg">
<path d="M7.86532 9.50867C7.21932 9.50867 6.70932 10.0753 6.70932 10.7667C6.70932 11.458 7.23065 12.0247 7.86532 12.0247C8.51132 12.0247 9.02132 11.458 9.02132 10.7667C9.03265 10.0753 8.51132 9.50867 7.86532 9.50867ZM12.002 9.50867C11.356 9.50867 10.846 10.0753 10.846 10.7667C10.846 11.458 11.3673 12.0247 12.002 12.0247C12.648 12.0247 13.158 11.458 13.158 10.7667C13.158 10.0753 12.648 9.50867 12.002 9.50867Z" fill="#7289DA"/>
<path d="M17.51 0H2.32333C1.04267 0 0 1.04267 0 2.33467V17.6573C0 18.9493 1.04267 19.992 2.32333 19.992H15.1753L14.5747 17.8953L16.0253 19.244L17.3967 20.5133L19.8333 22.6667V2.33467C19.8333 1.04267 18.7907 0 17.51 0ZM13.1353 14.8013C13.1353 14.8013 12.7273 14.314 12.3873 13.8833C13.872 13.464 14.4387 12.5347 14.4387 12.5347C13.974 12.8407 13.532 13.056 13.1353 13.2033C12.5687 13.4413 12.0247 13.6 11.492 13.6907C10.404 13.8947 9.40667 13.838 8.55667 13.6793C7.91067 13.5547 7.35533 13.3733 6.89067 13.192C6.63 13.09 6.34667 12.9653 6.06333 12.8067C6.02933 12.784 5.99533 12.7727 5.96133 12.75C5.93867 12.7387 5.92733 12.7273 5.916 12.716C5.712 12.6027 5.59867 12.5233 5.59867 12.5233C5.59867 12.5233 6.14267 13.43 7.582 13.8607C7.242 14.2913 6.82267 14.8013 6.82267 14.8013C4.318 14.722 3.366 13.0787 3.366 13.0787C3.366 9.42933 4.998 6.47133 4.998 6.47133C6.63 5.24733 8.18267 5.28133 8.18267 5.28133L8.296 5.41733C6.256 6.00667 5.31533 6.902 5.31533 6.902C5.31533 6.902 5.56467 6.766 5.984 6.57333C7.19667 6.04067 8.16 5.89333 8.55667 5.85933C8.62467 5.848 8.68133 5.83667 8.74933 5.83667C9.44067 5.746 10.2227 5.72333 11.0387 5.814C12.1153 5.93867 13.2713 6.256 14.45 6.902C14.45 6.902 13.5547 6.052 11.628 5.46267L11.7867 5.28133C11.7867 5.28133 13.3393 5.24733 14.9713 6.47133C14.9713 6.47133 16.6033 9.42933 16.6033 13.0787C16.6033 13.0787 15.64 14.722 13.1353 14.8013Z" fill="#7289DA"/>
</svg>
