<svg width="21" height="21" viewBox="0 0 21 21" fill="none" xmlns="http://www.w3.org/2000/svg">
<path d="M5.32576 18.87L5.0272 19.558L5.32576 18.87ZM2.95803 16.3895L2.26057 16.6653L2.95803 16.3895ZM18.042 16.3895L18.7394 16.6653L18.042 16.3895ZM15.6742 18.87L15.9728 19.558L15.6742 18.87ZM2.625 10.0314L3.37206 10.0978L3.40876 9.68467L3.07837 9.43396L2.625 10.0314ZM17.0625 6.0939V5.3439H17.0625L17.0625 6.0939ZM11.1718 5.12186L11.7021 5.65219L11.1718 5.12186ZM13.028 3.2657L13.5583 3.79603L13.028 3.2657ZM16.1215 3.2657L15.5912 3.79603L16.1215 3.2657ZM16.3481 6.09389L16.3481 6.84389L16.7309 6.84387L16.9554 6.5339L16.3481 6.09389ZM9.96546 5.12187L9.43513 5.6522L9.96546 5.12187ZM8.10931 3.26572L7.57898 3.79605L8.10931 3.26572ZM5.01572 3.26572L5.54605 3.79605H5.54605L5.01572 3.26572ZM10.5 18.3439L11.25 18.3439V18.3439H10.5ZM2.59658 10.0099L2.13645 10.6021L2.59658 10.0099ZM18.3185 10.0726L17.8874 9.45892L18.3185 10.0726ZM9.1875 18.4689C8.15751 18.4689 7.42435 18.4685 6.84717 18.4272C6.27743 18.3865 5.91637 18.3087 5.62432 18.182L5.0272 19.558C5.53914 19.7802 6.08971 19.8769 6.74022 19.9234C7.38328 19.9693 8.179 19.9689 9.1875 19.9689V18.4689ZM1.87503 12.3439C1.87503 13.4019 1.87465 14.2312 1.91823 14.9004C1.9622 15.5757 2.05322 16.1409 2.26057 16.6653L3.65549 16.1138C3.52981 15.7959 3.45433 15.406 3.41506 14.803C3.37539 14.1938 3.37503 13.4215 3.37503 12.3439H1.87503ZM5.62432 18.182C4.74136 17.7989 4.02917 17.0589 3.65549 16.1138L2.26057 16.6653C2.77496 17.9663 3.76616 19.0108 5.0272 19.558L5.62432 18.182ZM17.625 12.3439C17.625 13.4215 17.6246 14.1938 17.585 14.803C17.5457 15.406 17.4702 15.7959 17.3445 16.1138L18.7394 16.6653C18.9468 16.1409 19.0378 15.5757 19.0818 14.9004C19.1254 14.2312 19.125 13.4019 19.125 12.3439H17.625ZM11.8125 19.9689C12.821 19.9689 13.6167 19.9693 14.2598 19.9234C14.9103 19.8769 15.4609 19.7802 15.9728 19.558L15.3757 18.182C15.0836 18.3087 14.7226 18.3865 14.1528 18.4272C13.5756 18.4685 12.8425 18.4689 11.8125 18.4689V19.9689ZM17.3445 16.1138C16.9708 17.0589 16.2586 17.7989 15.3757 18.182L15.9728 19.558C17.2338 19.0108 18.225 17.9663 18.7394 16.6653L17.3445 16.1138ZM3.37503 12.3439C3.37503 11.0431 3.31535 10.736 3.37206 10.0978L1.87794 9.96504C1.81436 10.6807 1.87503 11.2305 1.87503 12.3439H3.37503ZM17.0625 6.8439C17.8564 6.8439 18.5 7.48749 18.5 8.2814H20C20 6.65907 18.6848 5.3439 17.0625 5.3439V6.8439ZM3.9375 5.3439C2.31516 5.3439 1 6.65907 1 8.2814H2.5C2.5 7.48749 3.14359 6.8439 3.9375 6.8439V5.3439ZM11.7021 5.65219L13.5583 3.79603L12.4976 2.73537L10.6415 4.59153L11.7021 5.65219ZM13.5583 3.79603C14.1197 3.23466 15.0298 3.23466 15.5912 3.79603L16.6519 2.73537C15.5047 1.58821 13.6448 1.58821 12.4976 2.73537L13.5583 3.79603ZM10.6415 4.59153C10.3679 4.86514 9.93084 5.32737 9.77616 5.89756L11.2238 6.29027C11.2623 6.14837 11.4166 5.93771 11.7021 5.65219L10.6415 4.59153ZM15.5912 3.79603C16.0971 4.3019 16.1475 5.0924 15.7407 5.65388L16.9554 6.5339C17.7878 5.38499 17.6871 3.77064 16.6519 2.73537L15.5912 3.79603ZM10.4958 4.59154L8.63964 2.73539L7.57898 3.79605L9.43513 5.6522L10.4958 4.59154ZM8.63964 2.73539C7.49247 1.58822 5.63255 1.58822 4.48539 2.73539L5.54605 3.79605C6.10742 3.23467 7.0176 3.23467 7.57898 3.79605L8.63964 2.73539ZM9.43513 5.6522C9.59627 5.81334 9.70277 6.01972 9.77616 6.29027L11.2238 5.89756C11.1041 5.45601 10.8938 4.98954 10.4958 4.59154L9.43513 5.6522ZM4.48539 2.73539C3.45012 3.77065 3.3495 5.385 4.18184 6.53392L5.39657 5.65389C4.98979 5.09241 5.04018 4.30191 5.54605 3.79605L4.48539 2.73539ZM9.75 6.09392L9.75 18.3439H11.25L11.25 6.09392H9.75ZM4.7892 6.8439L10.5 6.84392L10.5 5.34392L4.78921 5.3439L4.7892 6.8439ZM3.9375 9.7189C3.60466 9.7189 3.30013 9.6067 3.05672 9.41759L2.13645 10.6021C2.63373 10.9885 3.25976 11.2189 3.9375 11.2189V9.7189ZM3.05672 9.41759C2.7166 9.15335 2.5 8.74285 2.5 8.2814H1C1 9.22561 1.44632 10.0659 2.13645 10.6021L3.05672 9.41759ZM3.07837 9.43396L3.04995 9.4124L2.14321 10.6073L2.17163 10.6289L3.07837 9.43396ZM11.8125 18.4689H10.5V19.9689H11.8125V18.4689ZM10.5 18.4689H9.1875V19.9689H10.5V18.4689ZM9.75 18.3439L9.75 19.2189H11.25L11.25 18.3439L9.75 18.3439ZM17.0625 9.7189H10.5V11.2189H17.0625V9.7189ZM10.5 9.7189H3.9375V11.2189H10.5V9.7189ZM18.5 8.2814C18.5 8.76755 18.2594 9.19759 17.8874 9.45892L18.7496 10.6863C19.5043 10.1562 20 9.27674 20 8.2814H18.5ZM17.8874 9.45892C17.6541 9.62281 17.3706 9.7189 17.0625 9.7189V11.2189C17.6891 11.2189 18.272 11.0218 18.7496 10.6863L17.8874 9.45892ZM19.125 12.3439C19.125 11.1679 19.1255 10.6995 19.0657 10.008L17.5713 10.1373C17.6245 10.7528 17.625 11.155 17.625 12.3439H19.125ZM10.5 6.84392L16.1215 6.8439L16.1215 5.3439L10.5 5.34392L10.5 6.84392ZM16.1216 6.8439L16.3481 6.84389L16.348 5.34389L16.1215 5.3439L16.1216 6.8439ZM16.1215 6.8439L17.0625 6.8439L17.0625 5.3439L16.1215 5.3439L16.1215 6.8439ZM4.78921 5.3439H3.9375V6.8439H4.78921V5.3439ZM3.9375 6.8439L7.21875 6.84391L7.21875 5.34391L3.9375 5.3439L3.9375 6.8439ZM7.21875 6.84391L10.5 6.84392L10.5 5.34392L7.21875 5.34391L7.21875 6.84391ZM4.7892 6.8439L7.21875 6.84391L7.21875 5.34391L4.78921 5.3439L4.7892 6.8439ZM10.5 6.84392L16.3481 6.84389L16.3481 5.34389L10.5 5.34392L10.5 6.84392Z" fill="white"/>
</svg>
