<svg width="28" height="28" viewBox="0 0 28 28" fill="none" xmlns="http://www.w3.org/2000/svg">
<path d="M4.66667 22.5833C4.25245 22.5833 3.91667 22.9191 3.91667 23.3333C3.91667 23.7475 4.25245 24.0833 4.66667 24.0833V22.5833ZM21 24.0833C21.4142 24.0833 21.75 23.7475 21.75 23.3333C21.75 22.9191 21.4142 22.5833 21 22.5833V24.0833ZM21 10.5V9.75C20.5858 9.75 20.25 10.0858 20.25 10.5H21ZM21 16.3333H20.25C20.25 16.7475 20.5858 17.0833 21 17.0833V16.3333ZM18.1708 3.83541C18.3561 3.46493 18.2059 3.01442 17.8354 2.82918C17.4649 2.64394 17.0144 2.79411 16.8292 3.16459L18.1708 3.83541ZM15.6625 5.49792C15.4773 5.86841 15.6274 6.31891 15.9979 6.50415C16.3684 6.6894 16.8189 6.53923 17.0042 6.16874L15.6625 5.49792ZM14.6708 3.83541C14.8561 3.46493 14.7059 3.01442 14.3354 2.82918C13.9649 2.64394 13.5144 2.79411 13.3292 3.16459L14.6708 3.83541ZM12.1625 5.49792C11.9773 5.86841 12.1274 6.31891 12.4979 6.50415C12.8684 6.6894 13.3189 6.53923 13.5042 6.16874L12.1625 5.49792ZM11.1708 3.83541C11.3561 3.46493 11.2059 3.01442 10.8354 2.82918C10.4649 2.64394 10.0144 2.79411 9.82918 3.16459L11.1708 3.83541ZM8.66251 5.49792C8.47727 5.86841 8.62744 6.31891 8.99792 6.50415C9.36841 6.6894 9.81891 6.53923 10.0042 6.16874L8.66251 5.49792ZM4.66667 24.0833H21V22.5833H4.66667V24.0833ZM21 11.25H22.75V9.75H21V11.25ZM22.75 15.5833H21V17.0833H22.75V15.5833ZM21.75 16.3333V10.5H20.25V16.3333H21.75ZM24.9167 13.4167C24.9167 14.6133 23.9466 15.5833 22.75 15.5833V17.0833C24.775 17.0833 26.4167 15.4417 26.4167 13.4167H24.9167ZM22.75 11.25C23.9466 11.25 24.9167 12.22 24.9167 13.4167H26.4167C26.4167 11.3916 24.775 9.75 22.75 9.75V11.25ZM20.25 10.4103V15.1667H21.75V10.4103H20.25ZM5.41667 15.1667V10.4103H3.91667V15.1667H5.41667ZM5.74333 10.0833H19.9228V8.58333H5.74333V10.0833ZM5.41667 10.4103C5.41667 10.2295 5.56303 10.0833 5.74333 10.0833V8.58333C4.73409 8.58333 3.91667 9.40156 3.91667 10.4103H5.41667ZM12.8333 22.5833C8.73722 22.5833 5.41667 19.2628 5.41667 15.1667H3.91667C3.91667 20.0912 7.9088 24.0833 12.8333 24.0833V22.5833ZM20.25 15.1667C20.25 19.2628 16.9294 22.5833 12.8333 22.5833V24.0833C17.7579 24.0833 21.75 20.0912 21.75 15.1667H20.25ZM21.75 10.4103C21.75 9.40108 20.9316 8.58333 19.9228 8.58333V10.0833C20.1036 10.0833 20.25 10.2299 20.25 10.4103H21.75ZM16.8292 3.16459L15.6625 5.49792L17.0042 6.16874L18.1708 3.83541L16.8292 3.16459ZM13.3292 3.16459L12.1625 5.49792L13.5042 6.16874L14.6708 3.83541L13.3292 3.16459ZM9.82918 3.16459L8.66251 5.49792L10.0042 6.16874L11.1708 3.83541L9.82918 3.16459Z" fill="#45548E"/>
</svg>
