<svg width="189" height="155" viewBox="0 0 189 155" fill="none" xmlns="http://www.w3.org/2000/svg">
<path d="M101.387 137.478C100.275 148.39 88.3591 156.138 74.775 154.782C61.1908 153.426 51.0794 143.481 52.1919 132.569C53.3043 121.657 102.5 126.566 101.385 137.478H101.387Z" fill="#FFD400"/>
<path d="M86.2534 128.181C86.5947 133.88 84.9116 139.815 82.2497 144.685C80.1277 148.569 77.3195 152.045 73.9225 154.662C74.2079 154.698 74.486 154.754 74.7749 154.782C88.3591 156.138 100.275 148.39 101.387 137.478C101.81 133.332 94.9616 130.055 86.2534 128.181Z" fill="#FFC000"/>
<path d="M140.164 112.122L138.369 111.943L137.538 75.8952C136.762 53.5513 126.32 36.2865 108.575 27.8577C109.091 26.3624 109.463 24.7957 109.631 23.1556C110.81 11.5933 102.29 1.27446 90.6021 0.107873C78.9142 -1.05872 68.4832 7.37004 67.3039 18.9323C67.1179 20.7564 67.1992 22.5429 67.47 24.274C48.2694 29.5799 34.0767 44.8921 30.3926 65.2047L22.0926 100.342L19.427 100.076C10.7207 99.2074 2.94976 105.485 2.07208 114.098C1.1944 122.711 7.54042 130.398 16.2468 131.266L136.987 143.315C145.694 144.183 153.465 137.905 154.342 129.292C155.22 120.679 148.874 112.992 140.168 112.124L140.164 112.122ZM93.7661 17.0922C93.7408 17.1958 93.683 17.5174 93.6144 17.7086C93.6054 17.7318 93.5964 17.7532 93.5855 17.7747C93.4067 18.123 93.228 18.4732 93.0167 18.8037C92.9932 18.8412 92.9643 18.877 92.9336 18.9109C92.8848 18.9627 92.4027 19.5076 92.1209 19.7559C92.1047 19.7702 92.0866 19.7845 92.0686 19.7988C91.7363 20.0471 91.3751 20.2615 91.0085 20.4544C90.9651 20.4777 90.92 20.4973 90.873 20.5116C90.864 20.5152 90.855 20.517 90.8441 20.5205C90.5805 20.6027 90.0261 20.776 89.7624 20.8493C89.7497 20.8528 89.7389 20.8564 89.7263 20.8582C89.7028 20.8636 89.6775 20.8689 89.6522 20.8725C89.6269 20.8761 89.6017 20.8796 89.5782 20.8814C89.1682 20.9118 88.7583 20.9225 88.3465 20.9225C88.2942 20.9225 88.2418 20.9171 88.1894 20.9082C88.1804 20.9082 88.1714 20.9046 88.1623 20.9029C87.9131 20.8493 87.272 20.6974 87.0228 20.6349C87.0102 20.6313 86.9975 20.6277 86.9849 20.6242C86.9596 20.617 86.9343 20.6081 86.9108 20.5991C86.8837 20.5884 86.8566 20.5741 86.8296 20.5616C86.5948 20.4402 86.0638 20.1543 85.8363 20.0239C85.8309 20.0203 85.8237 20.0167 85.8182 20.0132C85.8056 20.006 85.7948 19.9989 85.7821 19.9917C85.7568 19.9757 85.7334 19.9578 85.7099 19.9381C85.6991 19.9292 85.6882 19.9185 85.6774 19.9096C85.4697 19.7238 85.067 19.3432 84.8647 19.1485C84.8575 19.1431 84.8521 19.136 84.8448 19.1289C84.7997 19.0842 84.7582 19.0342 84.7239 18.9806C84.4981 18.6483 84.2778 18.3106 84.0827 17.9605C84.0647 17.9283 84.0484 17.8944 84.034 17.8604C83.7107 17.1565 83.5879 16.4169 83.6638 15.6469C83.7541 15.2736 83.8444 14.9002 83.9329 14.5268C84.211 13.8247 84.6462 13.2334 85.2349 12.7546C85.2837 12.7242 85.3325 12.6938 85.3812 12.6653C85.4896 12.5331 85.5889 12.3955 85.7189 12.2794C86.0711 11.8452 86.5117 11.5183 87.0409 11.3004C87.5682 11.0377 88.1208 10.9216 88.6969 10.9538C89.2838 10.8841 89.8545 10.9663 90.4089 11.2021C90.4613 11.2235 90.5136 11.2468 90.5642 11.2718C90.5877 11.2843 90.6112 11.295 90.6346 11.3075C90.9778 11.4897 91.3299 11.672 91.6658 11.8649C91.7399 11.9078 91.8121 11.956 91.8789 12.0114C92.1877 12.2722 92.4821 12.5491 92.762 12.8385C92.7855 12.8618 92.8054 12.8868 92.8252 12.9118C93.0654 13.2262 93.2605 13.5764 93.4609 13.914C93.4754 13.939 93.4898 13.9658 93.5006 13.9926C93.8384 14.8019 94.0099 15.5862 93.9088 16.467C93.8853 16.6706 93.786 16.9904 93.7625 17.0904L93.7661 17.0922Z" fill="#FFD400"/>
<path d="M35.6515 101.012C39.0845 59.6237 53.3188 33.9658 77.1119 31.161C67.1558 20.04 74.3452 8.09894 82.5369 0.84571C74.4536 3.17175 68.2014 10.1391 67.3039 18.9323C67.1179 20.7564 67.1992 22.5429 67.47 24.274C48.2694 29.5799 34.0767 44.8921 30.3926 65.2048L22.0926 100.342L19.427 100.076C10.7207 99.2074 2.94976 105.485 2.07208 114.098C1.1944 122.711 7.54042 130.398 16.2468 131.266L24.0827 132.049C11.2787 128.201 9.40955 107.784 27.4182 105.294C27.514 105.282 35.1043 101.176 35.6533 101.012H35.6515Z" fill="#FFDF00"/>
<path d="M140.164 112.122L138.369 111.943L137.538 75.8953C136.762 53.5514 126.32 36.2865 108.575 27.8578C109.091 26.3625 109.463 24.7957 109.631 23.1557C110.585 13.7961 105.183 5.25662 96.8921 1.72112C97.4664 4.49557 101.761 7.74523 101.398 14.8555C100.735 27.8131 96.847 31.4647 97.0059 33.0905C97.0944 33.9926 122.657 41.0244 120.194 83.3879C119.594 93.7032 118.408 108.188 109.505 114.298C120.38 121.61 121.4 133.466 111.107 140.733L136.982 143.315C145.688 144.183 153.459 137.905 154.337 129.292C155.214 120.68 148.868 112.992 140.162 112.124L140.164 112.122Z" fill="#FFC000"/>
<path d="M140.164 112.122L138.369 111.943L138.947 108.269C136.801 108.604 61.5755 107.447 23.326 95.5415L22.1106 100.258C34.5389 107.675 124.062 118.805 140.164 112.122Z" fill="#FF9E00"/>
<path d="M73.3302 38.1302C72.4868 35.8399 70.1879 34.2106 67.7318 34.1123C67.535 34.1052 67.3399 34.1445 67.1431 34.1445C67.125 34.1391 67.1106 34.1266 67.0925 34.1231C64.9796 33.5764 63.022 33.7997 61.0047 34.5893C58.1821 35.6934 55.7134 37.6693 53.7901 39.9632C51.4532 42.7519 49.929 46.6912 52.0365 50.0355C53.996 53.144 58.0972 53.8551 61.5176 53.6032C66.6519 53.2262 71.9288 49.2834 73.3428 44.324C73.9406 42.2285 74.0959 40.2115 73.3302 38.1302Z" fill="#FCF600"/>
<path d="M55.0127 59.554C54.8809 58.8108 54.5757 58.1463 54.0953 57.5603L53.2898 56.8064C52.6559 56.3526 51.9498 56.0864 51.1715 56.006L50.6803 55.9578C50.0879 55.8756 49.5209 55.9435 48.9809 56.1597C48.4283 56.2776 47.9353 56.5259 47.5018 56.9046C47.0413 57.2494 46.6982 57.6782 46.4689 58.1891C46.1474 58.6715 45.9668 59.2075 45.9289 59.797C45.9415 60.1811 45.9542 60.5634 45.9668 60.9475C46.0986 61.6907 46.4038 62.3553 46.8842 62.9413L47.6897 63.6952C48.3235 64.1489 49.0297 64.4151 49.808 64.4955L50.2992 64.5438C50.8916 64.6259 51.4586 64.5581 51.9986 64.3419C52.5512 64.224 53.0442 63.9757 53.4776 63.5969C53.9382 63.2521 54.2813 62.8234 54.5106 62.3124C54.8321 61.8301 55.0127 61.2941 55.0506 60.7046C55.038 60.3205 55.0253 59.9381 55.0127 59.554Z" fill="#FCF600"/>
<path d="M41.7301 120.124C34.6328 115.038 25.3251 113.419 17.491 109.541C12.7071 107.173 9.66231 114.93 14.4787 117.231C22.6794 121.149 32.5127 125.237 41.5351 122.023C42.3423 121.735 42.3676 120.579 41.7283 120.122L41.7301 120.124Z" fill="#FCF600"/>
<path d="M57.0156 120.499L51.1246 119.809C48.0058 119.445 47.5002 124.353 50.6352 124.612L56.5478 125.101C59.5457 125.349 60.0098 120.849 57.0174 120.499H57.0156Z" fill="#FCF600"/>
<path d="M89.2584 23.2968C89.0092 23.2968 88.7581 23.2843 88.5071 23.2593C84.4853 22.8591 81.5417 19.2932 81.9462 15.3129C82.143 13.3852 83.0875 11.6487 84.6045 10.4232C86.1197 9.19765 88.0249 8.62776 89.9789 8.82249C91.9293 9.01722 93.6829 9.95156 94.9236 11.4522C96.1624 12.9529 96.7367 14.8412 96.5399 16.7707C96.343 18.6983 95.3985 20.4348 93.8834 21.6604C92.5614 22.7287 90.9433 23.2968 89.2584 23.2968ZM89.2349 11.6452C88.2164 11.6452 87.2339 11.9882 86.4321 12.6367C85.5129 13.3799 84.9404 14.4321 84.823 15.5987C84.5774 18.0087 86.3599 20.1686 88.7979 20.4116C89.9591 20.5295 91.1329 20.1865 92.054 19.4433C92.9732 18.7001 93.5457 17.6479 93.663 16.4813C93.7822 15.3129 93.4355 14.1695 92.6842 13.2602C91.933 12.3508 90.8693 11.7845 89.6882 11.6666C89.5365 11.6505 89.3848 11.6434 89.2349 11.6434V11.6452Z" fill="#B80101"/>
<path d="M163.686 31.0288C164.349 31.672 164.993 32.333 165.607 33.0226C165.933 33.387 166.25 33.7586 166.561 34.1356C166.686 34.2874 166.886 34.4661 166.969 34.6429C166.845 34.3785 166.579 34.1249 166.886 34.5483C168.004 36.0864 169.041 37.6693 169.931 39.3486C170.35 40.1382 170.857 40.9833 171.134 41.8336C171.038 41.5389 170.884 41.2244 171.076 41.7068C171.155 41.9087 171.237 42.1088 171.314 42.3106C171.489 42.7644 171.655 43.2218 171.813 43.6827C172.423 45.4763 172.884 47.3129 173.209 49.178C173.597 51.395 176.466 52.8403 178.543 52.174C180.958 51.4004 181.987 49.2727 181.572 46.8966C180.125 38.6197 175.876 30.8305 169.817 24.9636C168.194 23.3915 165.279 23.2432 163.682 24.9636C162.108 26.6608 161.95 29.3549 163.682 31.0324L163.686 31.0288Z" fill="#B80101"/>
<path d="M177.723 29.1619C178.796 31.161 179.869 33.1583 180.942 35.1574C181.44 36.0864 182.525 36.8546 183.533 37.1297C184.109 37.3084 184.685 37.3334 185.263 37.2065C185.841 37.1815 186.377 37.01 186.876 36.6974C187.802 36.1061 188.617 35.2271 188.87 34.1338C189.135 32.9815 188.998 31.881 188.433 30.8269C187.36 28.8278 186.287 26.8305 185.214 24.8314C184.716 23.9024 183.631 23.1342 182.623 22.8591C182.047 22.6804 181.471 22.6554 180.893 22.7823C180.315 22.8091 179.779 22.9788 179.28 23.2914C178.354 23.8828 177.539 24.7617 177.286 25.8551C177.021 27.0074 177.158 28.1079 177.723 29.1619Z" fill="#B80101"/>
<path d="M14.3505 36.458C14.8345 35.7363 15.3437 35.0306 15.8765 34.3446C15.6507 34.634 15.425 34.9234 15.1974 35.2128C17.0377 32.8707 19.1578 30.7715 21.5218 28.9457C21.2292 29.169 20.9367 29.3924 20.6441 29.6175C22.3796 28.2936 24.2271 27.1288 26.1757 26.1338C28.1965 25.1029 28.955 22.1391 27.7324 20.2633C26.405 18.2249 23.9598 17.621 21.7981 18.7233C15.7374 21.814 10.6194 26.5179 6.8613 32.1275C5.60437 34.0033 6.42607 36.9564 8.418 37.998C10.5941 39.136 13.0123 38.4607 14.3523 36.458H14.3505Z" fill="#B80101"/>
<path d="M7.4067 24.1079L13.6606 19.0556C14.0832 18.6662 14.383 18.207 14.5582 17.6746C14.8291 17.1637 14.9537 16.6117 14.932 16.0221C14.932 14.9699 14.4588 13.7122 13.6624 12.9886C12.8353 12.2383 11.75 11.6809 10.596 11.7327C10.2113 11.7845 9.82664 11.8345 9.44378 11.8864C8.70877 12.09 8.07128 12.458 7.5295 12.9904L1.27378 18.0391C0.851193 18.4286 0.551409 18.8877 0.376234 19.4201C0.105346 19.931 -0.0192632 20.483 0.0024079 21.0726C0.0024079 22.1248 0.47556 23.3825 1.27197 24.1061C2.09909 24.8564 3.18445 25.4138 4.33843 25.362C4.7231 25.3102 5.10776 25.2602 5.49061 25.2084C6.22563 25.0047 6.86312 24.6367 7.4049 24.1043L7.4067 24.1079Z" fill="#B80101"/>
<path d="M145.095 45.9753C154.907 36.2692 154.907 20.5326 145.095 10.8265C135.284 1.12045 119.376 1.12045 109.565 10.8265C99.7532 20.5326 99.7532 36.2692 109.565 45.9753C119.376 55.6814 135.284 55.6814 145.095 45.9753Z" fill="#FF2815"/>
<path d="M136.613 38.7341C127.84 42.9645 118.68 43.9721 109.205 41.496C107.872 41.1477 106.559 40.7332 105.259 40.283C109.519 48.0097 117.805 53.2548 127.329 53.2548C141.204 53.2548 152.453 42.1267 152.453 28.4009C152.453 27.7381 152.404 27.0878 152.354 26.4393C148.095 31.5595 142.687 35.806 136.615 38.7341H136.613Z" fill="#FF0000"/>
<path d="M113.938 16.1061C108.919 10.3643 100.999 27.688 109.024 29.4888C109.887 29.6818 110.837 29.5639 111.574 29.0619C112.499 28.4312 112.8 27.4487 112.927 26.3964C113.133 24.6939 113.835 23.1878 114.417 21.5889C115.083 19.7577 115.314 17.6836 113.938 16.1061Z" fill="#FFAA98"/>
<path d="M118.18 12.2955C117.543 10.4447 114.668 10.2875 113.814 12.0865C112.95 13.9034 114.763 15.6059 116.568 15.1968C116.786 15.1468 117.006 15.0575 117.191 14.9306C117.324 14.8395 117.465 14.7395 117.583 14.6233C117.702 14.5054 117.801 14.3625 117.899 14.2285C118.029 14.0499 118.112 13.8301 118.178 13.6229C118.193 13.5764 118.206 13.5282 118.213 13.4782C118.242 13.3067 118.276 13.1262 118.276 12.9512C118.276 12.7332 118.253 12.5027 118.18 12.2937V12.2955Z" fill="#FFAA98"/>
<path d="M132.537 39.2111H126.236V27.1789C126.236 25.7176 126.267 24.3813 126.33 23.1682C125.942 23.6345 125.462 24.1222 124.884 24.6296L122.276 26.7591L119.054 22.8413L126.943 16.4831H132.537V39.2111Z" fill="white"/>
</svg>
