<svg width="18" height="29" viewBox="0 0 18 29" fill="none" xmlns="http://www.w3.org/2000/svg">
<defs>
<linearGradient id="paint0_linear_2452_772" x1="3.69586" y1="10.0459" x2="14.3075" y2="10.0459" gradientUnits="userSpaceOnUse">
<stop stop-color="#91410D"/>
<stop offset="1" stop-color="#CC8139"/>
</linearGradient>
<linearGradient id="paint1_linear_2452_772" x1="13.2696" y1="24.1395" x2="3.58932" y2="14.7082" gradientUnits="userSpaceOnUse">
<stop stop-color="#91410D"/>
<stop offset="1" stop-color="#CC8139"/>
</linearGradient>
<linearGradient id="paint2_linear_2452_772" x1="4.08033" y1="14.7077" x2="15.796" y2="26.1221" gradientUnits="userSpaceOnUse">
<stop stop-color="#91410D"/>
<stop offset="1" stop-color="#CC8139"/>
</linearGradient>
<linearGradient id="paint3_linear_2452_772" x1="17.856" y1="28.8472" x2="-0.218583" y2="11.2374" gradientUnits="userSpaceOnUse">
<stop stop-color="#91410D"/>
<stop offset="1" stop-color="#CC8139"/>
</linearGradient>
<linearGradient id="paint4_linear_2452_772" x1="11.0398" y1="4.76265" x2="9.33481" y2="5.56944" gradientUnits="userSpaceOnUse">
<stop stop-color="white"/>
<stop offset="1" stop-color="#121E3D"/>
</linearGradient>
<clipPath id="clip0_2452_772">
<rect width="18" height="29" fill="white"/>
</clipPath>
</defs>
<g clip-path="url(#clip0_2452_772)">
<path d="M5.40972 12.7883V10.8361C5.40972 9.85293 6.18154 9.06073 7.13943 9.06073H10.8745C11.8324 9.06073 12.6042 9.85293 12.6042 10.8361V12.7883H14.3132V10.8361C14.3132 8.89098 12.7696 7.30659 10.8745 7.30659H7.13943C5.24433 7.30659 3.70068 8.89098 3.70068 10.8361V12.7883H5.40972Z" fill="url(#paint0_linear_2452_772)"/>
<path d="M9 29C13.9706 29 18 24.8642 18 19.7624C18 14.6607 13.9706 10.5249 9 10.5249C4.02944 10.5249 0 14.6607 0 19.7624C0 24.8642 4.02944 29 9 29Z" fill="url(#paint1_linear_2452_772)"/>
<path d="M9.00001 28.5332C13.7194 28.5332 17.5452 24.6064 17.5452 19.7624C17.5452 14.9185 13.7194 10.9917 9.00001 10.9917C4.28064 10.9917 0.454834 14.9185 0.454834 19.7624C0.454834 24.6064 4.28064 28.5332 9.00001 28.5332Z" fill="url(#paint2_linear_2452_772)"/>
<path d="M8.99989 27.2388C13.0228 27.2388 16.284 23.8915 16.284 19.7624C16.284 15.6334 13.0228 12.2861 8.99989 12.2861C4.97701 12.2861 1.71582 15.6334 1.71582 19.7624C1.71582 23.8915 4.97701 27.2388 8.99989 27.2388Z" fill="url(#paint3_linear_2452_772)"/>
<path opacity="0.45" d="M2.19821 20.2576C2.19821 16.1268 5.45778 12.7812 9.48228 12.7812C11.3705 12.7812 13.0864 13.5239 14.382 14.7334C13.052 13.2339 11.1362 12.2861 8.99989 12.2861C4.97539 12.2861 1.71582 15.6317 1.71582 19.7624C1.71582 21.9551 2.63925 23.9215 4.1002 25.2866C2.92179 23.9568 2.19821 22.1956 2.19821 20.2576Z" fill="white"/>
<path opacity="0.67" d="M13.617 13.9695C14.6507 15.2568 15.6086 17.2585 15.6086 19.0622C15.6086 23.1929 12.349 26.5385 8.32451 26.5385C6.57413 26.5385 4.6239 25.5483 3.36279 24.4944C4.6997 26.1707 6.72573 27.2388 8.99985 27.2388C13.0244 27.2388 16.2839 23.8932 16.2839 19.7624C16.2908 17.4283 15.2502 15.3417 13.617 13.9695Z" fill="#933116"/>
<path d="M9.97172 0L6.71904 9.03244C6.54676 9.50634 6.89132 10.0015 7.3806 10.0015H8.05595L11.6532 0H9.97172Z" fill="#1268C6"/>
<path d="M11.6532 0L8.05591 10.0015H9.73738L13.3346 0H11.6532Z" fill="white"/>
<path d="M13.3348 0L10.5852 7.63902L9.74444 9.98732L9.73755 10.0015H10.9297C11.0951 10.0015 11.2467 9.94488 11.3708 9.83878C11.4673 9.76098 11.5431 9.66195 11.5913 9.53463L15.0232 0H13.3348Z" fill="#EB3723"/>
<path opacity="0.69" d="M12.487 7.05902L11.598 9.52756C11.5498 9.65488 11.474 9.7539 11.3775 9.83171C11.2535 9.9378 11.1019 9.99439 10.9365 9.99439H7.38057C6.89129 9.99439 6.55362 9.49219 6.71901 9.02536L9.95791 0.0282898L12.487 7.05902Z" fill="url(#paint4_linear_2452_772)"/>
<path d="M7.84241 0H6.15405L9.7444 9.98732L9.7513 10.0015H10.9366C11.102 10.0015 11.2536 9.94488 11.3776 9.83878L10.5851 7.6461L7.84241 0Z" fill="#1268C6"/>
<path d="M4.47266 0L8.0699 10.0015H9.75137L6.15413 0H4.47266Z" fill="white"/>
<path d="M2.78418 0L6.20914 9.52756C6.31251 9.81049 6.57438 10.0015 6.8707 10.0015H8.06289L4.47254 0H2.78418Z" fill="#EB3723"/>
<path d="M11.8253 20.9932C11.8253 22.4927 10.6262 23.5324 8.74491 23.5324C7.6423 23.5324 6.49835 23.1576 5.76099 22.5776L6.56037 21.0144C7.15302 21.6439 7.86972 21.9763 8.5933 21.9763C9.42714 21.9763 9.88886 21.6227 9.88886 21.0144C9.88886 20.392 9.42714 20.0737 8.57952 20.0737H7.30463V18.9844L9.07569 17.2444H6.16757L6.15379 15.6812H11.4532V16.8554L9.41336 18.8076L9.79238 18.8641C10.9846 19.0551 11.8253 19.8049 11.8253 20.9932Z" fill="#6D2B07"/>
</g>
</svg>
