<svg width="35" height="35" viewBox="0 0 35 35" fill="none" xmlns="http://www.w3.org/2000/svg">
<path fill-rule="evenodd" clip-rule="evenodd" d="M12.3021 4.02025C13.7945 -1.20922 21.2057 -1.20922 22.6981 4.02025C23.1747 5.69028 24.8905 6.68086 26.5751 6.2586C31.8501 4.93634 35.5557 11.3546 31.7731 15.2618C30.5651 16.5096 30.5651 18.4908 31.7731 19.7385C35.5557 23.6457 31.8501 30.064 26.5751 28.7418C24.8905 28.3195 23.1747 29.3101 22.6981 30.9801C21.2057 36.2096 13.7945 36.2096 12.3021 30.9801C11.8255 29.3101 10.1098 28.3195 8.42516 28.7418C3.1501 30.064 -0.5555 23.6457 3.22715 19.7385C4.43513 18.4908 4.43513 16.5096 3.22715 15.2618C-0.555498 11.3546 3.1501 4.93634 8.42516 6.2586C10.1098 6.68086 11.8255 5.69028 12.3021 4.02025ZM22.1481 12.8522C22.5753 13.2793 22.5753 13.9719 22.1481 14.399L13.8986 22.6486C13.4714 23.0757 12.7789 23.0757 12.3518 22.6486C11.9246 22.2214 11.9246 21.5289 12.3518 21.1018L20.6013 12.8522C21.0285 12.4251 21.721 12.4251 22.1481 12.8522ZM13.1252 14.5836C12.3197 14.5836 11.6668 13.9306 11.6668 13.1252C11.6668 12.3198 12.3197 11.6669 13.1252 11.6669C13.9306 11.6669 14.5835 12.3198 14.5835 13.1252C14.5835 13.9306 13.9306 14.5836 13.1252 14.5836ZM21.8752 23.3336C21.0697 23.3336 20.4168 22.6806 20.4168 21.8752C20.4168 21.0698 21.0697 20.4169 21.8752 20.4169C22.6806 20.4169 23.3335 21.0698 23.3335 21.8752C23.3335 22.6806 22.6806 23.3336 21.8752 23.3336Z" fill="#FFD600"/>
</svg>
