<svg width="16" height="16" viewBox="0 0 16 16" fill="none" xmlns="http://www.w3.org/2000/svg">
<g clip-path="url(#clip0_451_358)">
<path d="M8.75017 5.50016C8.75017 5.08595 8.41438 4.75016 8.00017 4.75016C7.58595 4.75016 7.25017 5.08595 7.25017 5.50016H8.75017ZM6.12112 9.73321C5.83698 10.0346 5.85095 10.5093 6.15233 10.7934C6.45372 11.0776 6.92839 11.0636 7.21253 10.7622L6.12112 9.73321ZM1.53164 1.58118C1.2082 1.83994 1.15575 2.3119 1.41451 2.63535C1.67327 2.9588 2.14524 3.01124 2.46868 2.75248L1.53164 1.58118ZM4.13535 1.41915C4.4588 1.16039 4.51124 0.688421 4.25248 0.364975C3.99372 0.0415283 3.52175 -0.0109127 3.19831 0.247844L4.13535 1.41915ZM13.5316 2.75248C13.8551 3.01124 14.3271 2.9588 14.5858 2.63535C14.8446 2.3119 14.7921 1.83994 14.4687 1.58118L13.5316 2.75248ZM12.802 0.247844C12.4786 -0.0109127 12.0066 0.0415283 11.7478 0.364975C11.4891 0.688421 11.5415 1.16039 11.865 1.41915L12.802 0.247844ZM7.25017 5.50016V8.03934H8.75017V5.50016H7.25017ZM7.21253 10.7622L8.00108 9.92583L6.90967 8.89683L6.12112 9.73321L7.21253 10.7622ZM2.46868 2.75248L4.13535 1.41915L3.19831 0.247844L1.53164 1.58118L2.46868 2.75248ZM14.4687 1.58118L12.802 0.247844L11.865 1.41915L13.5316 2.75248L14.4687 1.58118ZM13.9168 8.16683C13.9168 11.4345 11.2678 14.0835 8.00016 14.0835V15.5835C12.0963 15.5835 15.4168 12.2629 15.4168 8.16683H13.9168ZM8.00016 14.0835C4.73248 14.0835 2.0835 11.4345 2.0835 8.16683H0.583496C0.583496 12.2629 3.90405 15.5835 8.00016 15.5835V14.0835ZM2.0835 8.16683C2.0835 4.89914 4.73248 2.25016 8.00016 2.25016V0.750161C3.90405 0.750161 0.583496 4.07072 0.583496 8.16683H2.0835ZM8.00016 2.25016C11.2678 2.25016 13.9168 4.89914 13.9168 8.16683H15.4168C15.4168 4.07072 12.0963 0.750161 8.00016 0.750161V2.25016ZM7.25017 8.03934C7.25017 8.35813 7.12836 8.66488 6.90967 8.89683L8.00108 9.92583C8.4822 9.41552 8.75017 8.74068 8.75017 8.03934H7.25017Z" fill="#FAFAFA"/>
</g>
<defs>
<clipPath id="clip0_451_358">
<rect width="16" height="16" fill="white"/>
</clipPath>
</defs>
</svg>
