<svg width="34" height="34" viewBox="0 0 34 34" fill="none" xmlns="http://www.w3.org/2000/svg">
<path d="M6.49993 11.0166L7.46814 11.2667L6.49993 11.0166ZM11.458 6.35005L11.6463 7.33215L11.458 6.35005ZM14.3829 18.7009L14.1008 17.7416L14.3829 18.7009ZM15.9508 20.2688L14.9914 19.9867L15.9508 20.2688ZM23.6351 28.1518L23.8852 29.12L23.6351 28.1518ZM28.3017 23.1937L29.2838 23.3821L28.3017 23.1937ZM30.7874 10.2326L29.8053 10.0442L30.7874 10.2326ZM24.4191 3.8643L24.2308 2.8822L24.4191 3.8643ZM8.55157 24.686C8.16104 25.0765 8.16104 25.7097 8.55157 26.1002C8.94209 26.4907 9.57526 26.4907 9.96578 26.1002L8.55157 24.686ZM11.9692 24.0967C12.3598 23.7062 12.3598 23.073 11.9692 22.6825C11.5787 22.292 10.9456 22.292 10.555 22.6825L11.9692 24.0967ZM9.5533 29.6946C9.16278 30.0852 9.16278 30.7183 9.5533 31.1089C9.94383 31.4994 10.577 31.4994 10.9675 31.1089L9.5533 29.6946ZM12.971 29.1054C13.3615 28.7149 13.3615 28.0817 12.971 27.6912C12.5805 27.3007 11.9473 27.3007 11.5568 27.6912L12.971 29.1054ZM3.54289 23.6842C3.15237 24.0748 3.15237 24.7079 3.54289 25.0985C3.93342 25.489 4.56658 25.489 4.95711 25.0985L3.54289 23.6842ZM6.96058 23.095C7.3511 22.7045 7.3511 22.0713 6.96058 21.6808C6.57005 21.2902 5.93689 21.2902 5.54636 21.6808L6.96058 23.095ZM29.8053 10.0442L27.3196 23.0054L29.2838 23.3821L31.7695 10.4209L29.8053 10.0442ZM11.6463 7.33215L24.6075 4.8464L24.2308 2.8822L11.2696 5.36795L11.6463 7.33215ZM7.46814 11.2667C7.98627 9.26101 9.61801 7.72115 11.6463 7.33215L11.2696 5.36795C8.47603 5.90372 6.2416 8.01847 5.53171 10.7665L7.46814 11.2667ZM14.1008 17.7416C10.1542 18.9022 6.43258 15.2755 7.46814 11.2667L5.53171 10.7665C4.11435 16.2532 9.20286 21.2666 14.665 19.6603L14.1008 17.7416ZM16.9102 20.5509C17.4155 18.8327 15.819 17.2363 14.1008 17.7416L14.665 19.6603C14.8646 19.6016 15.0501 19.7871 14.9914 19.9867L16.9102 20.5509ZM23.385 27.1836C19.3762 28.2192 15.7496 24.4976 16.9102 20.5509L14.9914 19.9867C13.3851 25.4489 18.3985 30.5374 23.8852 29.12L23.385 27.1836ZM27.3196 23.0054C26.9306 25.0337 25.3907 26.6655 23.385 27.1836L23.8852 29.12C26.6333 28.4102 28.748 26.1757 29.2838 23.3821L27.3196 23.0054ZM31.7695 10.4209C32.627 5.94995 28.7017 2.02474 24.2308 2.8822L24.6075 4.8464C27.6901 4.2552 30.3965 6.96156 29.8053 10.0442L31.7695 10.4209ZM9.96578 26.1002L11.9692 24.0967L10.555 22.6825L8.55157 24.686L9.96578 26.1002ZM10.9675 31.1089L12.971 29.1054L11.5568 27.6912L9.5533 29.6946L10.9675 31.1089ZM4.95711 25.0985L6.96058 23.095L5.54636 21.6808L3.54289 23.6842L4.95711 25.0985Z" fill="white"/>
</svg>
