<svg width="28" height="28" viewBox="0 0 28 28" fill="none" xmlns="http://www.w3.org/2000/svg">
<path fill-rule="evenodd" clip-rule="evenodd" d="M9.84163 3.21581C11.0356 -0.967769 16.9645 -0.967769 18.1585 3.21581C18.5397 4.55183 19.9123 5.3443 21.26 5.00649C25.4801 3.94868 28.4445 9.0833 25.4184 12.2091C24.452 13.2073 24.452 14.7922 25.4184 15.7904C28.4445 18.9162 25.4801 24.0508 21.26 22.993C19.9123 22.6552 18.5397 23.4477 18.1585 24.7837C16.9645 28.9673 11.0356 28.9673 9.84163 24.7837C9.46035 23.4477 8.08775 22.6552 6.74008 22.993C2.52003 24.0508 -0.444448 18.9162 2.58167 15.7904C3.54806 14.7922 3.54806 13.2073 2.58167 12.2091C-0.444447 9.0833 2.52003 3.94868 6.74008 5.00649C8.08775 5.3443 9.46035 4.55183 9.84163 3.21581ZM19.3389 11.0599C19.6483 10.6887 19.5982 10.1369 19.2269 9.82757C18.8557 9.5182 18.3039 9.56836 17.9946 9.9396L13.9537 14.7886C13.5211 15.3077 13.2555 15.6232 13.0366 15.8208C12.9352 15.9124 12.875 15.949 12.8461 15.9629C12.8402 15.9658 12.8361 15.9675 12.8334 15.9685C12.8308 15.9675 12.8266 15.9658 12.8207 15.9629C12.7919 15.949 12.7317 15.9124 12.6302 15.8208C12.4113 15.6232 12.1457 15.3077 11.7131 14.7886L10.0056 12.7396C9.69624 12.3684 9.1445 12.3182 8.77325 12.6276C8.40201 12.9369 8.35185 13.4887 8.66122 13.8599L10.406 15.9536C10.7892 16.4136 11.1346 16.8282 11.4573 17.1196C11.8084 17.4367 12.2507 17.719 12.8334 17.719C13.4162 17.719 13.8584 17.4367 14.2095 17.1196C14.5322 16.8282 14.8776 16.4136 15.2609 15.9536L19.3389 11.0599Z" fill="#EDC700"/>
</svg>
