<svg width="64" height="60" viewBox="0 0 64 60" fill="none" xmlns="http://www.w3.org/2000/svg">
<path d="M22.2487 36.4751C23.4909 35.2262 24.993 34.2292 26.6621 33.5455C28.3312 32.8619 30.1314 32.5059 31.9529 32.5C33.7744 32.494 35.578 32.8381 37.2522 33.5108C38.9264 34.1835 40.4362 35.1706 41.6877 36.4113M16.3984 28.8601C18.386 26.8619 20.7893 25.2666 23.4599 24.1728C26.1305 23.079 29.0116 22.5097 31.9259 22.5001C34.8403 22.4906 37.7256 23.0409 40.4043 24.1173C43.083 25.1936 45.4987 26.773 47.5011 28.7582M32 47.5C30.5272 47.5 29.3333 46.3807 29.3333 45C29.3333 43.6193 30.5272 42.5 32 42.5C33.4728 42.5 34.6667 43.6193 34.6667 45C34.6667 46.3807 33.4728 47.5 32 47.5Z" stroke="white" stroke-width="2" stroke-linecap="round" stroke-linejoin="round"/>
</svg>
