<svg width="216" height="73" viewBox="0 0 216 73" fill="none" xmlns="http://www.w3.org/2000/svg">
<path d="M38.0259 0.899999L34.6909 12.262L31.1949 0.899999H24.0649L20.5689 12.262L17.2339 0.899999H10.8169L16.1069 17H24.9849L27.6299 7.731L30.2749 17H39.1529L44.4429 0.899999H38.0259ZM51.1226 0.899999H45.1426V17H51.1226V0.899999ZM66.8041 0.899999V10.399L59.8581 0.899999H52.0381V17H58.0181V7.501L64.9641 17H72.7841V0.899999H66.8041ZM98.3319 17H104.91L98.2399 0.899999H89.3619L82.6919 17H89.2699L90.3739 14.102H97.2279L98.3319 17ZM91.9379 9.962L93.8009 5.04L95.6639 9.962H91.9379ZM139.472 0.899999H132.112L127.144 10.1L122.176 0.899999H114.816V17H120.796V9.341L125.189 17H129.099L133.492 9.341V17H139.472V0.899999ZM150.065 17.23C157.126 17.23 160.185 14.516 160.185 8.927C160.185 3.361 157.126 0.669999 150.065 0.669999C142.981 0.669999 139.945 3.338 139.945 8.927C139.945 14.539 142.981 17.23 150.065 17.23ZM150.065 12.17C146.546 12.17 145.925 10.652 145.925 8.927C145.925 7.225 146.523 5.73 150.065 5.73C153.607 5.73 154.205 7.248 154.205 8.927C154.205 10.629 153.584 12.17 150.065 12.17ZM174.227 0.899999L169.696 12.86L165.165 0.899999H158.587L165.257 17H174.135L180.805 0.899999H174.227ZM187.258 0.899999H181.278V17H187.258V0.899999ZM205.194 5.5V0.899999H188.174V17H205.194V12.4H194.154V10.905H205.194V6.995H194.154V5.5H205.194ZM20.4221 28.9H0.642109V33.96H7.54211V45H13.5221V33.96H20.4221V28.9ZM27.0894 28.9H21.1094V45H27.0894V28.9ZM27.5503 36.927C27.5503 42.539 30.5863 45.23 37.6703 45.23C44.1333 45.23 47.4683 42.953 47.7213 37.847H41.6033C41.3733 39.388 40.2003 40.17 37.6703 40.17C34.1513 40.17 33.5303 38.652 33.5303 36.927C33.5303 35.225 34.1283 33.73 37.6703 33.73C40.2003 33.73 41.3733 34.489 41.6033 36.007H47.7213C47.4683 30.924 44.1103 28.67 37.6703 28.67C30.5863 28.67 27.5503 31.338 27.5503 36.927ZM70.3179 28.9H61.8079L54.4019 35.202V28.9H48.4219V45H54.4019V41.941L56.8859 39.894L62.0379 45H70.3179L61.0489 36.49L70.3179 28.9ZM87.813 33.5V28.9H70.793V45H87.813V40.4H76.773V38.905H87.813V34.995H76.773V33.5H87.813ZM108.042 28.9H88.2622V33.96H95.1622V45H101.142V33.96H108.042V28.9ZM134.959 33.5V28.9H117.939V45H134.959V40.4H123.919V38.905H134.959V34.995H123.919V33.5H134.959ZM151.048 28.9L146.517 40.86L141.986 28.9H135.408L142.078 45H150.956L157.626 28.9H151.048ZM175.119 33.5V28.9H158.099V45H175.119V40.4H164.079V38.905H175.119V34.995H164.079V33.5H175.119ZM194.612 35.064C194.612 31.476 192.105 28.9 188.448 28.9H175.798V45H181.778V41.228H185.297L187.528 45H194.612L191.76 40.377C193.531 39.342 194.612 37.41 194.612 35.064ZM181.778 33.96H187.298C187.896 33.96 188.632 33.96 188.632 35.064C188.632 36.168 187.896 36.168 187.298 36.168H181.778V33.96ZM201.186 39.71V45H207.166V39.71L215.354 28.9H208.454L204.176 34.88L199.898 28.9H192.998L201.186 39.71ZM59.7232 56.9L56.3882 68.262L52.8922 56.9H45.7622L42.2662 68.262L38.9312 56.9H32.5142L37.8042 73H46.6822L49.3272 63.731L51.9722 73H60.8502L66.1402 56.9H59.7232ZM83.8599 61.5V56.9H66.8399V73H83.8599V68.4H72.8199V66.905H83.8599V62.995H72.8199V61.5H83.8599ZM101.559 61.5V56.9H84.5391V73H101.559V68.4H90.5191V66.905H101.559V62.995H90.5191V61.5H101.559ZM124.134 56.9H115.624L108.218 63.202V56.9H102.238V73H108.218V69.941L110.702 67.894L115.854 73H124.134L114.865 64.49L124.134 56.9ZM141.629 61.5V56.9H124.609V73H141.629V68.4H130.589V66.905H141.629V62.995H130.589V61.5H141.629ZM157.075 56.9V66.399L150.129 56.9H142.309V73H148.289V63.501L155.235 73H163.055V56.9H157.075ZM175.943 56.9H163.983V73H175.943C179.83 73 183.487 70.424 183.487 64.95C183.487 59.476 179.83 56.9 175.943 56.9ZM174.103 67.94H169.963V61.96H174.103C175.391 61.96 177.507 61.96 177.507 64.95C177.507 67.94 175.391 67.94 174.103 67.94Z" fill="white"/>
</svg>
