<svg width="17" height="17" viewBox="0 0 17 17" fill="none" xmlns="http://www.w3.org/2000/svg">
<path d="M8.00004 9.20834C8.00004 9.48448 8.2239 9.70834 8.50004 9.70834C8.77618 9.70834 9.00004 9.48448 9.00004 9.20834H8.00004ZM9.00004 6.375C9.00004 6.09886 8.77618 5.875 8.50004 5.875C8.2239 5.875 8.00004 6.09886 8.00004 6.375H9.00004ZM14.5215 4.60356C14.7168 4.79882 15.0333 4.79882 15.2286 4.60356C15.4239 4.4083 15.4239 4.09171 15.2286 3.89645L14.5215 4.60356ZM13.8119 2.47978C13.6167 2.28452 13.3001 2.28452 13.1048 2.47978C12.9096 2.67505 12.9096 2.99163 13.1048 3.18689L13.8119 2.47978ZM7.08337 0.916672C6.80723 0.916672 6.58337 1.14053 6.58337 1.41667C6.58337 1.69281 6.80723 1.91667 7.08337 1.91667L7.08337 0.916672ZM9.91671 1.91667C10.1929 1.91667 10.4167 1.69281 10.4167 1.41667C10.4167 1.14053 10.1929 0.916672 9.91671 0.916672L9.91671 1.91667ZM8.50004 14.375C5.64657 14.375 3.33337 12.0618 3.33337 9.20834H2.33337C2.33337 12.6141 5.09428 15.375 8.50004 15.375V14.375ZM3.33337 9.20834C3.33337 6.35487 5.64657 4.04167 8.50004 4.04167V3.04167C5.09428 3.04167 2.33337 5.80258 2.33337 9.20834H3.33337ZM8.50004 4.04167C11.3535 4.04167 13.6667 6.35487 13.6667 9.20834H14.6667C14.6667 5.80258 11.9058 3.04167 8.50004 3.04167V4.04167ZM13.6667 9.20834C13.6667 12.0618 11.3535 14.375 8.50004 14.375V15.375C11.9058 15.375 14.6667 12.6141 14.6667 9.20834H13.6667ZM9.00004 9.20834V6.375H8.00004V9.20834H9.00004ZM15.2286 3.89645L13.8119 2.47978L13.1048 3.18689L14.5215 4.60356L15.2286 3.89645ZM7.08337 1.91667H9.91671L9.91671 0.916672H7.08337L7.08337 1.91667Z" fill="white"/>
</svg>
