<svg width="23" height="23" viewBox="0 0 23 23" fill="none" xmlns="http://www.w3.org/2000/svg">
<path d="M10.9659 8.20074C10.7316 7.96642 10.3517 7.96642 10.1174 8.20074C9.88309 8.43505 9.88309 8.81495 10.1174 9.04926L10.9659 8.20074ZM13.4167 11.5L13.8409 11.9243C14.0752 11.6899 14.0752 11.3101 13.8409 11.0757L13.4167 11.5ZM10.1174 13.9507C9.88309 14.1851 9.88309 14.5649 10.1174 14.7993C10.3517 15.0336 10.7316 15.0336 10.9659 14.7993L10.1174 13.9507ZM20.725 11.5C20.725 6.40517 16.5948 2.275 11.5 2.275V3.475C15.9321 3.475 19.525 7.06791 19.525 11.5H20.725ZM11.5 2.275C6.40517 2.275 2.275 6.40517 2.275 11.5H3.475C3.475 7.06791 7.06791 3.475 11.5 3.475V2.275ZM2.275 11.5C2.275 16.5948 6.40517 20.725 11.5 20.725V19.525C7.06791 19.525 3.475 15.9321 3.475 11.5H2.275ZM11.5 20.725C16.5948 20.725 20.725 16.5948 20.725 11.5H19.525C19.525 15.9321 15.9321 19.525 11.5 19.525V20.725ZM10.1174 9.04926L12.9924 11.9243L13.8409 11.0757L10.9659 8.20074L10.1174 9.04926ZM12.9924 11.0757L10.1174 13.9507L10.9659 14.7993L13.8409 11.9243L12.9924 11.0757Z" fill="white"/>
</svg>
