<svg width="38" height="38" viewBox="0 0 38 38" fill="none" xmlns="http://www.w3.org/2000/svg">
<path d="M11.0833 23.5238L13.3955 18.8102C14.5634 16.4293 17.9959 16.5456 19 19C20.0041 21.4544 23.4366 21.5707 24.6045 19.1899L26.9167 14.4762M19 33.25C13.0629 33.25 10.0944 33.25 8.01337 31.7381C7.34128 31.2498 6.75025 30.6587 6.26195 29.9866C4.75 27.9056 4.75 24.9371 4.75 19C4.75 13.0629 4.75 10.0944 6.26195 8.01337C6.75025 7.34128 7.34128 6.75025 8.01337 6.26195C10.0944 4.75 13.0629 4.75 19 4.75C24.9371 4.75 27.9056 4.75 29.9866 6.26195C30.6587 6.75025 31.2498 7.34128 31.7381 8.01337C33.25 10.0944 33.25 13.0629 33.25 19C33.25 24.9371 33.25 27.9056 31.7381 29.9866C31.2498 30.6587 30.6587 31.2498 29.9866 31.7381C27.9056 33.25 24.9371 33.25 19 33.25Z" stroke="white" stroke-width="2" stroke-linecap="round"/>
</svg>
