<svg width="114" height="25" viewBox="0 0 114 25" fill="none" xmlns="http://www.w3.org/2000/svg">
<path d="M47.9158 6.07312V1.31006H53.7038C53.7038 3.94005 51.544 6.07312 48.881 6.07312H47.9158Z" fill="#EDC700"/>
<path d="M53.7181 8.60986H47.9158V21.1504H53.7181V8.60986Z" fill="#2A7671"/>
<path d="M11.6619 0.0120637C5.27354 -0.282425 0 4.8529 0 11.2307C0 12.9724 0 15.1853 0 16.3183H5.92316V11.3821V10.5912C5.92316 8.91405 6.7827 7.32942 8.23229 6.45717C13.2562 3.43094 18.3737 8.98136 15.5313 14.4084C14.7115 15.9762 13.0236 16.9129 11.2393 16.8624L11.1059 16.8596V22.4605C17.5057 22.4774 22.6516 17.0532 22.2516 10.5183C21.9083 4.9118 17.3383 0.275701 11.6619 0.0120637Z" fill="#2A7671"/>
<path d="M0 19.0918V24.8941H0.0111156C3.20962 24.8941 5.80232 22.2964 5.80232 19.0918H0Z" fill="#EDC700"/>
<path d="M35.0853 21.3564C41.3742 21.3564 46.0067 17.0327 46.0067 11.1368C46.0067 5.2409 41.3742 0.917236 35.0853 0.917236C28.7963 0.917236 24.1638 5.2409 24.1638 11.1368C24.1638 17.0327 28.7963 21.3564 35.0853 21.3564ZM35.0853 16.7519C32.1093 16.7519 29.779 14.534 29.779 11.1368C29.779 7.73964 32.1093 5.52166 35.0853 5.52166C38.0613 5.52166 40.3916 7.73964 40.3916 11.1368C40.3916 14.534 38.0613 16.7519 35.0853 16.7519Z" fill="#2A7671"/>
<path d="M70.3405 1.3103V11.7825L61.6651 1.3103H57.0888V20.9633H62.5354V10.4911L71.2108 20.9633H75.7872V1.3103H70.3405Z" fill="#2A7671"/>
<path d="M83.8916 20.9633H89.4506V5.71819H95.4588V1.3103H77.8554V5.71819H83.8916V20.9633Z" fill="#2A7671"/>
<path d="M104.382 21.3564C110.221 21.3564 113.085 18.4365 113.085 15.0113C113.085 7.76771 101.939 10.0138 101.939 7.00967C101.939 6.02702 102.781 5.2409 105.112 5.2409C106.824 5.2409 108.677 5.74626 110.558 6.75699L112.271 2.62986C110.334 1.50683 107.695 0.917236 105.14 0.917236C99.3 0.917236 96.4362 3.78096 96.4362 7.29043C96.4362 14.5901 107.61 12.316 107.61 15.4324C107.61 16.387 106.712 17.0327 104.41 17.0327C102.136 17.0327 99.6649 16.2466 97.9242 15.0955L96.0993 19.1945C97.9523 20.486 101.153 21.3564 104.382 21.3564Z" fill="#2A7671"/>
</svg>
