<svg width="36" height="36" viewBox="0 0 36 36" fill="none" xmlns="http://www.w3.org/2000/svg">
<path d="M17 28.5C17 29.0523 17.4477 29.5 18 29.5C18.5523 29.5 19 29.0523 19 28.5L17 28.5ZM19 7.5C19 6.94772 18.5523 6.5 18 6.5C17.4477 6.5 17 6.94772 17 7.5H19ZM21.7648 12.6151C22.0409 13.0934 22.6525 13.2573 23.1308 12.9811C23.6091 12.705 23.773 12.0934 23.4968 11.6151L21.7648 12.6151ZM22.0674 11.1394L22.9335 10.6394V10.6394L22.0674 11.1394ZM16.695 17.52L17.0402 16.5814L16.695 17.52ZM19.3052 18.48L19.6504 17.5415L19.6504 17.5415L19.3052 18.48ZM13.9327 24.8606L13.0667 25.3606L13.9327 24.8606ZM14.2354 23.3849C13.9592 22.9066 13.3477 22.7427 12.8694 23.0189C12.3911 23.295 12.2272 23.9066 12.5033 24.3849L14.2354 23.3849ZM19.9917 26.4841L19.4917 25.6181L19.9917 26.4841ZM16.0084 9.51587L16.5084 10.3819L16.0084 9.51587ZM7.59161 30.0676L8.1794 29.2586L7.59161 30.0676ZM5.93237 28.4084L6.74139 27.8206L5.93237 28.4084ZM30.0676 28.4084L29.2586 27.8206L30.0676 28.4084ZM28.4084 30.0676L27.8206 29.2586L28.4084 30.0676ZM28.4084 5.93237L27.8206 6.74139L28.4084 5.93237ZM30.0676 7.59161L29.2586 8.1794L30.0676 7.59161ZM7.59161 5.93237L8.1794 6.74139L7.59161 5.93237ZM5.93237 7.59161L6.74139 8.1794L5.93237 7.59161ZM23.4968 11.6151L22.9335 10.6394L21.2014 11.6394L21.7648 12.6151L23.4968 11.6151ZM14.7987 24.3606L14.2354 23.3849L12.5033 24.3849L13.0667 25.3606L14.7987 24.3606ZM18.9599 19.4186C21.6936 20.4241 22.0142 24.1617 19.4917 25.6181L20.4917 27.3502C24.4827 25.0459 23.9755 19.1324 19.6504 17.5415L18.9599 19.4186ZM15.5084 8.64984C11.5174 10.9541 12.0247 16.8676 16.3498 18.4585L17.0402 16.5814C14.3065 15.5759 13.9859 11.8383 16.5084 10.3819L15.5084 8.64984ZM18 30.5C15.1654 30.5 13.1198 30.4986 11.5336 30.3268C9.9661 30.1569 8.96626 29.8303 8.1794 29.2586L7.00383 30.8766C8.18845 31.7373 9.58051 32.1269 11.3182 32.3151C13.0371 32.5014 15.21 32.5 18 32.5V30.5ZM3.5 18C3.5 20.79 3.49863 22.9629 3.68486 24.6818C3.87313 26.4195 4.26267 27.8115 5.12336 28.9962L6.74139 27.8206C6.1697 27.0337 5.84306 26.0339 5.67323 24.4664C5.50137 22.8802 5.5 20.8346 5.5 18H3.5ZM8.1794 29.2586C7.62758 28.8577 7.14231 28.3724 6.74139 27.8206L5.12336 28.9962C5.64763 29.7178 6.28222 30.3524 7.00383 30.8766L8.1794 29.2586ZM30.5 18C30.5 20.8346 30.4986 22.8802 30.3268 24.4664C30.1569 26.0339 29.8303 27.0337 29.2586 27.8206L30.8766 28.9962C31.7373 27.8115 32.1269 26.4195 32.3151 24.6818C32.5014 22.9629 32.5 20.79 32.5 18H30.5ZM18 32.5C20.79 32.5 22.9629 32.5014 24.6818 32.3151C26.4195 32.1269 27.8115 31.7373 28.9962 30.8766L27.8206 29.2586C27.0337 29.8303 26.0339 30.1569 24.4664 30.3268C22.8802 30.4986 20.8346 30.5 18 30.5V32.5ZM29.2586 27.8206C28.8577 28.3724 28.3724 28.8577 27.8206 29.2586L28.9962 30.8766C29.7178 30.3524 30.3524 29.7178 30.8766 28.9962L29.2586 27.8206ZM18 5.5C20.8346 5.5 22.8802 5.50137 24.4664 5.67323C26.0339 5.84306 27.0337 6.1697 27.8206 6.74139L28.9962 5.12336C27.8115 4.26267 26.4195 3.87313 24.6818 3.68486C22.9629 3.49863 20.79 3.5 18 3.5V5.5ZM32.5 18C32.5 15.21 32.5014 13.0371 32.3151 11.3182C32.1269 9.58051 31.7373 8.18845 30.8766 7.00383L29.2586 8.1794C29.8303 8.96626 30.1569 9.9661 30.3268 11.5336C30.4986 13.1198 30.5 15.1654 30.5 18H32.5ZM27.8206 6.74139C28.3724 7.14231 28.8577 7.62758 29.2586 8.1794L30.8766 7.00383C30.3524 6.28222 29.7178 5.64763 28.9962 5.12336L27.8206 6.74139ZM18 3.5C15.21 3.5 13.0371 3.49863 11.3182 3.68486C9.58051 3.87313 8.18845 4.26267 7.00383 5.12336L8.1794 6.74139C8.96626 6.1697 9.9661 5.84306 11.5336 5.67323C13.1198 5.50137 15.1654 5.5 18 5.5V3.5ZM5.5 18C5.5 15.1654 5.50137 13.1198 5.67323 11.5336C5.84306 9.9661 6.1697 8.96626 6.74139 8.1794L5.12336 7.00383C4.26267 8.18845 3.87313 9.58051 3.68486 11.3182C3.49863 13.0371 3.5 15.21 3.5 18H5.5ZM7.00383 5.12336C6.28222 5.64763 5.64763 6.28222 5.12336 7.00383L6.74139 8.1794C7.14231 7.62758 7.62758 7.14231 8.1794 6.74139L7.00383 5.12336ZM22.9335 10.6394C21.8774 8.81026 19.9195 7.82877 17.9498 7.92771L18.0502 9.92519C19.2996 9.86243 20.5351 10.4853 21.2014 11.6394L22.9335 10.6394ZM17.9498 7.92771C17.1155 7.96962 16.2788 8.20508 15.5084 8.64984L16.5084 10.3819C16.9978 10.0993 17.5251 9.95156 18.0502 9.92519L17.9498 7.92771ZM19 8.92645V7.5H17V8.92645H19ZM19.0001 18L19 8.92644L17 8.92646L17.0001 18L19.0001 18ZM16.3498 18.4585L17.6549 18.9385L18.3453 17.0615L17.0402 16.5814L16.3498 18.4585ZM17.6549 18.9385L18.9599 19.4186L19.6504 17.5415L18.3453 17.0615L17.6549 18.9385ZM19 28.5L19 27.0736L17 27.0736L17 28.5L19 28.5ZM19 27.0736L19.0001 18L17.0001 18L17 27.0736L19 27.0736ZM19.4917 25.6181C19.0023 25.9007 18.475 26.0485 17.9499 26.0748L18.0501 28.0723C18.8846 28.0304 19.7213 27.7949 20.4917 27.3502L19.4917 25.6181ZM17.9499 26.0748C16.7004 26.1375 15.465 25.5147 14.7987 24.3606L13.0667 25.3606C14.1227 27.1897 16.0805 28.1712 18.0501 28.0723L17.9499 26.0748Z" fill="white"/>
</svg>
