<svg width="22" height="21" viewBox="0 0 22 21" fill="none" xmlns="http://www.w3.org/2000/svg">
<path d="M8.45517 9.50719C8.81147 9.85376 9.38127 9.84588 9.72784 9.48958C10.0744 9.13328 10.0665 8.56348 9.71023 8.21691L8.45517 9.50719ZM1.62753 0.354859C1.27123 0.00828409 0.701434 0.0161692 0.354859 0.372471C0.00828409 0.728772 0.0161692 1.29857 0.372471 1.64514L1.62753 0.354859ZM9.71027 1.64514C10.0666 1.29857 10.0745 0.728772 9.72789 0.372471C9.38131 0.0161692 8.81152 0.00828409 8.45522 0.354859L9.71027 1.64514ZM0.372471 8.21695C0.0161692 8.56353 0.00828409 9.13332 0.354859 9.48962C0.701434 9.84592 1.27123 9.85381 1.62753 9.50723L0.372471 8.21695ZM1.14683 12.8534L0.349584 12.4358L1.14683 12.8534ZM1.73539 12.2807L2.13505 13.0871L1.73539 12.2807ZM1.73539 19.8572L2.13505 19.0508H2.13505L1.73539 19.8572ZM1.14683 19.2846L0.349584 19.7022L0.349584 19.7022L1.14683 19.2846ZM8.93604 19.2846L9.73328 19.7022V19.7022L8.93604 19.2846ZM8.34705 19.8572L8.74671 20.6636H8.74671L8.34705 19.8572ZM8.93604 12.8534L9.73328 12.4358L8.93604 12.8534ZM8.34705 12.2807L8.74671 11.4744H8.74671L8.34705 12.2807ZM12.6419 17.6414L13.4159 18.1008H13.4159L12.6419 17.6414ZM17.892 13.5138L18.6659 13.0544V13.0544L17.892 13.5138ZM20.3419 17.6414L19.568 18.1008L20.3419 17.6414ZM15.0925 13.5128L14.3185 13.0534V13.0534L15.0925 13.5128ZM16.0808 12.2229L16.4385 13.0487H16.4385L16.0808 12.2229ZM16.9028 12.2229L17.2605 11.397L16.9028 12.2229ZM12.3982 19.8123L11.8788 20.5473L12.3982 19.8123ZM11.9872 19.1199L11.0924 19.2166L11.9872 19.1199ZM20.5856 19.8123L21.105 20.5473L20.5856 19.8123ZM20.9966 19.1199L20.1019 19.0233V19.0233L20.9966 19.1199ZM9.71023 8.21691L1.62753 0.354859L0.372471 1.64514L8.45517 9.50719L9.71023 8.21691ZM8.45522 0.354859L0.372471 8.21695L1.62753 9.50723L9.71027 1.64514L8.45522 0.354859ZM13.3505 4.93103C13.3505 3.28036 14.7333 1.9 16.4919 1.9V0.1C13.7865 0.1 11.5505 2.23961 11.5505 4.93103H13.3505ZM16.4919 7.96207C14.7333 7.96207 13.3505 6.58171 13.3505 4.93103H11.5505C11.5505 7.62246 13.7865 9.76207 16.4919 9.76207V7.96207ZM19.6332 4.93103C19.6332 6.58171 18.2505 7.96207 16.4919 7.96207V9.76207C19.1973 9.76207 21.4332 7.62246 21.4332 4.93103H19.6332ZM21.4332 4.93103C21.4332 2.23961 19.1973 0.1 16.4919 0.1V1.9C18.2505 1.9 19.6332 3.28036 19.6332 4.93103H21.4332ZM6.92746 19.1H3.15552V20.9H6.92746V19.1ZM1.9 17.9034V14.2345H0.1V17.9034H1.9ZM3.15552 13.0379H6.92746V11.2379H3.15552V13.0379ZM1.9 14.2345C1.9 13.8523 1.90074 13.6213 1.91519 13.4492C1.9287 13.2884 1.94933 13.261 1.94407 13.271L0.349584 12.4358C0.197501 12.7261 0.14471 13.0223 0.121512 13.2985C0.0992604 13.5634 0.1 13.8828 0.1 14.2345H1.9ZM3.15552 11.2379C2.79274 11.2379 2.46794 11.2373 2.19932 11.2586C1.92096 11.2807 1.62566 11.3307 1.33573 11.4744L2.13505 13.0871C2.13571 13.0868 2.1381 13.0857 2.14335 13.0838C2.14878 13.082 2.15839 13.079 2.17366 13.0755C2.20567 13.0681 2.25743 13.0597 2.34188 13.053C2.52267 13.0386 2.76385 13.0379 3.15552 13.0379V11.2379ZM1.94407 13.271C1.98364 13.1955 2.04906 13.1298 2.13505 13.0871L1.33573 11.4744C0.914772 11.683 0.568323 12.0182 0.349584 12.4358L1.94407 13.271ZM3.15552 19.1C2.76387 19.1 2.52268 19.0993 2.3419 19.085C2.25745 19.0783 2.2057 19.0698 2.17368 19.0624C2.15841 19.0589 2.1488 19.056 2.14336 19.0541C2.13811 19.0523 2.13571 19.0511 2.13505 19.0508L1.33573 20.6636C1.62564 20.8072 1.92093 20.8572 2.1993 20.8793C2.46793 20.9007 2.79272 20.9 3.15552 20.9V19.1ZM0.1 17.9034C0.1 18.2551 0.0992607 18.5745 0.121511 18.8394C0.144707 19.1156 0.19749 19.4118 0.349584 19.7022L1.94407 18.867C1.94934 18.877 1.92871 18.8496 1.9152 18.6888C1.90074 18.5166 1.9 18.2856 1.9 17.9034H0.1ZM2.13505 19.0508C2.04896 19.0081 1.98359 18.9424 1.94407 18.867L0.349584 19.7022C0.568373 20.1199 0.91487 20.455 1.33573 20.6636L2.13505 19.0508ZM8.18272 17.9056C8.18272 18.287 8.18198 18.5176 8.16755 18.6894C8.15406 18.8499 8.13348 18.8771 8.1388 18.867L9.73328 19.7022C9.88529 19.412 9.93804 19.116 9.96123 18.8401C9.98346 18.5755 9.98272 18.2565 9.98272 17.9056H8.18272ZM6.92746 20.9C7.29025 20.9 7.61494 20.9007 7.88346 20.8793C8.16183 20.8572 8.4569 20.8072 8.74671 20.6636L7.94739 19.0508C7.94737 19.0508 7.93794 19.0558 7.90874 19.0625C7.87679 19.0698 7.82512 19.0783 7.74077 19.085C7.56016 19.0993 7.31914 19.1 6.92746 19.1V20.9ZM8.1388 18.867C8.09959 18.9418 8.03409 19.0078 7.94739 19.0508L8.74671 20.6636C9.16696 20.4553 9.51418 20.1205 9.73328 19.7022L8.1388 18.867ZM9.98272 14.2323C9.98272 13.8813 9.98346 13.5624 9.96122 13.2978C9.93804 13.022 9.88527 12.7259 9.73328 12.4358L8.1388 13.271C8.13349 13.2609 8.15406 13.2881 8.16755 13.4486C8.18198 13.6203 8.18272 13.8508 8.18272 14.2323H9.98272ZM6.92746 13.0379C7.31915 13.0379 7.56017 13.0386 7.74079 13.053C7.82514 13.0597 7.87681 13.0681 7.90876 13.0754C7.93795 13.0821 7.94738 13.0871 7.94739 13.0871L8.74671 11.4744C8.45688 11.3307 8.1618 11.2807 7.88344 11.2586C7.61492 11.2373 7.29023 11.2379 6.92746 11.2379V13.0379ZM9.73328 12.4358C9.51423 12.0176 9.16706 11.6827 8.74671 11.4744L7.94739 13.0871C8.034 13.1301 8.09954 13.1961 8.1388 13.271L9.73328 12.4358ZM18.9419 19.1H14.042V20.9H18.9419V19.1ZM17.118 13.9732L19.568 18.1008L21.1158 17.182L18.6659 13.0544L17.118 13.9732ZM15.8664 13.9722C16.1051 13.5701 16.2527 13.3232 16.3745 13.1554C16.498 12.9855 16.5134 13.0163 16.4385 13.0487L15.7232 11.397C15.3485 11.5593 15.0992 11.8484 14.9182 12.0976C14.7356 12.349 14.5389 12.6821 14.3185 13.0534L15.8664 13.9722ZM18.6659 13.0544C18.4453 12.6828 18.2485 12.3494 18.0657 12.0978C17.8846 11.8485 17.6353 11.5593 17.2605 11.397L16.5452 13.0487C16.4703 13.0163 16.4858 12.9856 16.6094 13.1557C16.7314 13.3237 16.8792 13.5708 17.118 13.9732L18.6659 13.0544ZM16.4385 13.0487C16.4719 13.0343 16.5118 13.0343 16.5452 13.0487L17.2605 11.397C16.7707 11.1849 16.213 11.1849 15.7232 11.397L16.4385 13.0487ZM14.042 19.1C13.5653 19.1 13.2685 19.0991 13.0552 19.0801C12.836 19.0605 12.8514 19.0305 12.9176 19.0773L11.8788 20.5473C12.2107 20.7818 12.5885 20.8456 12.8952 20.873C13.2076 20.9009 13.5999 20.9 14.042 20.9V19.1ZM11.868 17.182C11.6475 17.5535 11.449 17.8862 11.3162 18.1663C11.1858 18.4414 11.0478 18.8043 11.0924 19.2166L12.882 19.0233C12.8922 19.118 12.852 19.1287 12.9427 18.9374C13.031 18.7511 13.1769 18.5033 13.4159 18.1008L11.868 17.182ZM12.9176 19.0773C12.8924 19.0595 12.8836 19.038 12.882 19.0233L11.0924 19.2166C11.1507 19.7558 11.4408 20.2377 11.8788 20.5473L12.9176 19.0773ZM18.9419 20.9C19.384 20.9 19.7763 20.9009 20.0887 20.873C20.3953 20.8456 20.7732 20.7818 21.105 20.5473L20.0662 19.0773C20.1325 19.0305 20.1478 19.0605 19.9287 19.0801C19.7153 19.0991 19.4186 19.1 18.9419 19.1V20.9ZM19.568 18.1008C19.8069 18.5033 19.9529 18.7511 20.0412 18.9374C20.1319 19.1287 20.0916 19.118 20.1019 19.0233L21.8914 19.2166C21.936 18.8043 21.7981 18.4414 21.6677 18.1663C21.5349 17.8862 21.3363 17.5535 21.1158 17.182L19.568 18.1008ZM21.105 20.5473C21.5431 20.2377 21.8332 19.7559 21.8914 19.2166L20.1019 19.0233C20.1003 19.038 20.0914 19.0595 20.0662 19.0773L21.105 20.5473ZM8.18272 14.2323V17.9056H9.98272V14.2323H8.18272ZM13.4159 18.1008L15.8664 13.9722L14.3185 13.0534L11.868 17.182L13.4159 18.1008Z" fill="white"/>
</svg>
