<svg width="42" height="26" viewBox="0 0 42 26" fill="none" xmlns="http://www.w3.org/2000/svg">
<path fill-rule="evenodd" clip-rule="evenodd" d="M11 0C4.92487 0 0 4.92487 0 11V15C0 21.0751 4.92487 26 11 26H31C37.0751 26 42 21.0751 42 15V11C42 4.92487 37.0751 0 31 0H11ZM12.9697 2.36364C7.09539 2.36364 2.33333 7.1257 2.33333 13C2.33333 18.8743 7.0954 23.6364 12.9697 23.6364H29.0303C34.9046 23.6364 39.6667 18.8743 39.6667 13C39.6667 7.1257 34.9046 2.36364 29.0303 2.36364H12.9697Z" fill="#4386FA"/>
<path fill-rule="evenodd" clip-rule="evenodd" d="M12.8333 20.0909C16.6993 20.0909 19.8333 16.9162 19.8333 13C19.8333 9.0838 16.6993 5.90909 12.8333 5.90909C8.96735 5.90909 5.83334 9.0838 5.83334 13C5.83334 16.9162 8.96735 20.0909 12.8333 20.0909ZM12.8333 17.7273C15.4107 17.7273 17.5 15.6108 17.5 13C17.5 10.3892 15.4107 8.27273 12.8333 8.27273C10.256 8.27273 8.16668 10.3892 8.16668 13C8.16668 15.6108 10.256 17.7273 12.8333 17.7273Z" fill="white"/>
</svg>
