<svg width="105" height="16" viewBox="0 0 105 16" fill="none" xmlns="http://www.w3.org/2000/svg">
<path d="M0.783425 12V1.09091H4.59735C5.35729 1.09091 5.98406 1.2223 6.47767 1.48509C6.97128 1.74432 7.33882 2.0941 7.5803 2.53445C7.82178 2.97124 7.94252 3.45597 7.94252 3.98864C7.94252 4.45739 7.85906 4.84446 7.69216 5.14986C7.52881 5.45526 7.31219 5.69673 7.0423 5.87429C6.77597 6.05185 6.48655 6.18324 6.17405 6.26847V6.375C6.50786 6.39631 6.84344 6.51349 7.1808 6.72656C7.51816 6.93963 7.80047 7.24503 8.02774 7.64276C8.25502 8.04048 8.36865 8.52699 8.36865 9.10227C8.36865 9.64915 8.24436 10.141 7.99578 10.5778C7.7472 11.0146 7.3548 11.3608 6.81858 11.6165C6.28236 11.8722 5.58456 12 4.72519 12H0.783425ZM2.10445 10.8281H4.72519C5.58811 10.8281 6.20068 10.6612 6.5629 10.3274C6.92867 9.99006 7.11155 9.58168 7.11155 9.10227C7.11155 8.73295 7.01745 8.39205 6.82924 8.07955C6.64102 7.76349 6.37291 7.51136 6.0249 7.32315C5.67689 7.13139 5.26496 7.03551 4.78911 7.03551H2.10445V10.8281ZM2.10445 5.88494H4.55473C4.95246 5.88494 5.31112 5.80682 5.63073 5.65057C5.95388 5.49432 6.20956 5.27415 6.39777 4.99006C6.58953 4.70597 6.68541 4.37216 6.68541 3.98864C6.68541 3.50923 6.51851 3.10263 6.1847 2.76882C5.8509 2.43146 5.32178 2.26278 4.59735 2.26278H2.10445V5.88494ZM14.1785 15.0682C13.9654 15.0682 13.7754 15.0504 13.6085 15.0149C13.4416 14.983 13.3262 14.951 13.2623 14.919L13.5819 13.8111C13.8873 13.8892 14.1572 13.9176 14.3916 13.8963C14.6259 13.875 14.8337 13.7702 15.0148 13.582C15.1994 13.3974 15.3681 13.0973 15.5208 12.6818L15.7552 12.0426L12.7296 3.81818H14.0933L16.3518 10.3381H16.437L18.6955 3.81818H20.0592L16.5862 13.1932C16.4299 13.6158 16.2364 13.9656 16.0055 14.2425C15.7747 14.5231 15.5066 14.7308 15.2012 14.8658C14.8994 15.0007 14.5585 15.0682 14.1785 15.0682ZM35.3529 12H31.4858V1.09091H35.3849C36.4822 1.09091 37.4268 1.3093 38.2187 1.74609C39.0106 2.17933 39.6196 2.80256 40.0458 3.61577C40.4755 4.42898 40.6903 5.40199 40.6903 6.5348C40.6903 7.67116 40.4755 8.64773 40.0458 9.46449C39.6196 10.2812 39.0071 10.908 38.2081 11.3448C37.4126 11.7816 36.4609 12 35.3529 12ZM33.7922 10.0238H35.2571C35.9389 10.0238 36.5124 9.90305 36.9776 9.66158C37.4463 9.41655 37.7979 9.03835 38.0323 8.52699C38.2702 8.01207 38.3892 7.34801 38.3892 6.5348C38.3892 5.72869 38.2702 5.06996 38.0323 4.55859C37.7979 4.04723 37.4481 3.67081 36.9829 3.42933C36.5177 3.18786 35.9442 3.06712 35.2624 3.06712H33.7922V10.0238ZM47.7053 1.09091V12H45.3988V1.09091H47.7053ZM54.4833 12H52.0117L55.7777 1.09091H58.75L62.5106 12H60.039L57.3064 3.58381H57.2212L54.4833 12ZM54.3288 7.712H60.1669V9.51243H54.3288V7.712ZM73.5446 4.61719C73.47 4.35795 73.3653 4.12891 73.2303 3.93004C73.0954 3.72763 72.9303 3.55717 72.735 3.41868C72.5432 3.27663 72.323 3.16832 72.0744 3.09375C71.8294 3.01918 71.5578 2.98189 71.2595 2.98189C70.7019 2.98189 70.2119 3.12038 69.7893 3.39737C69.3703 3.67436 69.0435 4.07741 68.8092 4.60653C68.5748 5.1321 68.4576 5.77486 68.4576 6.5348C68.4576 7.29474 68.573 7.94105 68.8038 8.47372C69.0347 9.00639 69.3614 9.413 69.784 9.69354C70.2065 9.97053 70.7055 10.109 71.2808 10.109C71.8028 10.109 72.2484 10.0167 72.6178 9.83203C72.9906 9.64382 73.2747 9.37926 73.47 9.03835C73.6689 8.69744 73.7683 8.29439 73.7683 7.82919L74.2371 7.89844H71.4246V6.16193H75.9896V7.53622C75.9896 8.49503 75.7872 9.31889 75.3823 10.0078C74.9775 10.6932 74.42 11.2223 73.7097 11.5952C72.9995 11.9645 72.1863 12.1491 71.2701 12.1491C70.2474 12.1491 69.3489 11.9237 68.5748 11.4727C67.8006 11.0181 67.197 10.3736 66.7637 9.53906C66.334 8.70099 66.1192 7.70668 66.1192 6.55611C66.1192 5.67187 66.247 4.88352 66.5027 4.19105C66.7619 3.49503 67.1242 2.90554 67.5894 2.42259C68.0546 1.93963 68.5961 1.57209 69.214 1.31996C69.8319 1.06783 70.5013 0.941761 71.2222 0.941761C71.8401 0.941761 72.4153 1.03232 72.948 1.21342C73.4807 1.39098 73.953 1.64311 74.3649 1.96982C74.7804 2.29652 75.1195 2.68537 75.3823 3.13636C75.6451 3.58381 75.8138 4.07741 75.8884 4.61719H73.5446ZM90.7469 6.54545C90.7469 7.73509 90.5214 8.74716 90.0704 9.58168C89.623 10.4162 89.0122 11.0536 88.2381 11.494C87.4675 11.9308 86.601 12.1491 85.6386 12.1491C84.6692 12.1491 83.7991 11.929 83.0285 11.4886C82.2579 11.0483 81.6489 10.4109 81.2015 9.57635C80.754 8.74183 80.5303 7.73153 80.5303 6.54545C80.5303 5.35582 80.754 4.34375 81.2015 3.50923C81.6489 2.67472 82.2579 2.03906 83.0285 1.60227C83.7991 1.16193 84.6692 0.941761 85.6386 0.941761C86.601 0.941761 87.4675 1.16193 88.2381 1.60227C89.0122 2.03906 89.623 2.67472 90.0704 3.50923C90.5214 4.34375 90.7469 5.35582 90.7469 6.54545ZM88.4085 6.54545C88.4085 5.77486 88.2931 5.125 88.0623 4.59588C87.835 4.06676 87.5136 3.66548 87.0981 3.39205C86.6827 3.11861 86.1962 2.98189 85.6386 2.98189C85.0811 2.98189 84.5946 3.11861 84.1791 3.39205C83.7636 3.66548 83.4405 4.06676 83.2097 4.59588C82.9824 5.125 82.8687 5.77486 82.8687 6.54545C82.8687 7.31605 82.9824 7.96591 83.2097 8.49503C83.4405 9.02415 83.7636 9.42543 84.1791 9.69886C84.5946 9.9723 85.0811 10.109 85.6386 10.109C86.1962 10.109 86.6827 9.9723 87.0981 9.69886C87.5136 9.42543 87.835 9.02415 88.0623 8.49503C88.2931 7.96591 88.4085 7.31605 88.4085 6.54545ZM104.58 1.09091V12H102.588L97.8418 5.13388H97.7619V12H95.4555V1.09091H97.4796L102.188 7.9517H102.284V1.09091H104.58Z" fill="white"/>
</svg>
