<svg width="26" height="25" viewBox="0 0 26 25" fill="none" xmlns="http://www.w3.org/2000/svg">
<path fill-rule="evenodd" clip-rule="evenodd" d="M13 0.270996C9.83508 0.270996 7.22173 2.63104 6.82339 5.68766L6.1056 5.68766C5.02694 5.68763 4.13244 5.6876 3.43043 5.78569C2.69242 5.88881 2.02927 6.1165 1.52495 6.67996C1.02062 7.24342 0.867561 7.92766 0.846573 8.67254C0.826608 9.38109 0.925417 10.2701 1.04457 11.3422L1.37811 14.3441C1.62731 16.587 1.82303 18.3485 2.15545 19.7177C2.49618 21.121 3.00296 22.2163 3.94378 23.0584C4.8855 23.9012 6.03544 24.2835 7.4756 24.4669C8.88169 24.646 10.6672 24.646 12.942 24.646H13.058C15.3328 24.646 17.1183 24.646 18.5244 24.4669C19.9646 24.2835 21.1145 23.9012 22.0562 23.0584C22.997 22.2163 23.5038 21.121 23.8445 19.7177C24.177 18.3486 24.3727 16.5871 24.6219 14.3443L24.9554 11.3421C25.0746 10.2701 25.1734 9.38108 25.1534 8.67254C25.1324 7.92766 24.9794 7.24342 24.475 6.67996C23.9707 6.1165 23.3076 5.88881 22.5696 5.78569C21.8675 5.6876 20.973 5.68763 19.8944 5.68766L19.1767 5.68766C18.7785 2.63129 16.1649 0.270996 13 0.270996ZM13 1.896C15.2656 1.896 17.1489 3.53236 17.5327 5.68766H8.46722C8.85081 3.53259 10.7344 1.896 13 1.896ZM7.58335 11.9168C8.18166 11.9168 8.66669 11.4318 8.66669 10.8335C8.66669 10.2352 8.18166 9.75016 7.58335 9.75016C6.98505 9.75016 6.50002 10.2352 6.50002 10.8335C6.50002 11.4318 6.98505 11.9168 7.58335 11.9168ZM18.4167 11.9168C19.015 11.9168 19.5 11.4318 19.5 10.8335C19.5 10.2352 19.015 9.75016 18.4167 9.75016C17.8184 9.75016 17.3334 10.2352 17.3334 10.8335C17.3334 11.4318 17.8184 11.9168 18.4167 11.9168Z" fill="#93AAA8"/>
</svg>
