<svg width="46" height="46" viewBox="0 0 46 46" fill="none" xmlns="http://www.w3.org/2000/svg">
<path d="M21.0128 6.76006C24.1171 5.78123 25.6693 5.29182 27.0217 5.31868C29.8495 5.37483 32.451 6.87683 33.9136 9.29769C34.613 10.4555 34.9653 12.0444 35.6697 15.2222C35.9433 16.4564 36.0801 17.0735 36.1229 17.6843C36.2114 18.9486 36.0071 20.2163 35.526 21.3889C35.2936 21.9553 34.9699 22.4982 34.3225 23.584L30.27 30.381C28.8005 32.8457 28.0658 34.078 27.1601 34.902C25.1558 36.7256 22.3833 37.4477 19.7441 36.8335C18.5515 36.5559 17.309 35.8385 14.824 34.4038C12.3389 32.9691 11.0964 32.2517 10.2598 31.3577C8.4082 29.3792 7.64727 26.6171 8.22442 23.9695C8.48521 22.7731 9.18506 21.5207 10.5848 19.0158L14.4449 12.1077C15.0615 11.0041 15.3698 10.4523 15.7442 9.96784C16.5191 8.96491 17.5148 8.15418 18.654 7.59865C19.2043 7.33029 19.8072 7.14021 21.0128 6.76006Z" stroke="white" stroke-width="2"/>
<path d="M22.923 14.6371C22.1916 15.9039 22.6256 17.5238 23.8925 18.2552C25.1593 18.9866 26.7791 18.5525 27.5105 17.2857C28.2419 16.0189 27.8079 14.399 26.5411 13.6676C25.2743 12.9362 23.6544 13.3703 22.923 14.6371Z" stroke="white" stroke-width="2"/>
</svg>
