<svg width="27" height="22" viewBox="0 0 27 22" fill="none" xmlns="http://www.w3.org/2000/svg">
<path fill-rule="evenodd" clip-rule="evenodd" d="M0.357178 6.68103C0.357178 3.14897 3.22047 0.285675 6.75253 0.285675H20.4324C23.9645 0.285675 26.8278 3.14897 26.8278 6.68103C26.8278 7.70504 26.2405 8.63833 25.3173 9.08145L24.7173 9.36947C23.3002 10.0497 23.3002 12.0675 24.7173 12.7477L25.3173 13.0357C26.2405 13.4789 26.8278 14.4121 26.8278 15.4362C26.8278 18.9682 23.9645 21.8315 20.4324 21.8315H6.75253C3.22047 21.8315 0.357178 18.9682 0.357178 15.4362C0.357178 14.4121 0.944432 13.4789 1.86761 13.0357L2.46765 12.7477C3.88478 12.0675 3.88478 10.0497 2.46765 9.36947L1.86761 9.08145C0.944431 8.63833 0.357178 7.70504 0.357178 6.68103ZM6.75253 2.13246C4.24042 2.13246 2.20396 4.16892 2.20396 6.68103C2.20396 6.99479 2.3839 7.28076 2.66677 7.41653L3.26681 7.70455C6.08078 9.05526 6.08078 13.0619 3.26681 14.4126L2.66677 14.7006C2.3839 14.8364 2.20396 15.1224 2.20396 15.4362C2.20396 17.9483 4.24042 19.9847 6.75253 19.9847H20.4324C22.9445 19.9847 24.981 17.9483 24.981 15.4362C24.981 15.1224 24.801 14.8364 24.5182 14.7006L23.9181 14.4126C21.1042 13.0619 21.1042 9.05526 23.9181 7.70455L24.5182 7.41653C24.801 7.28076 24.981 6.99479 24.981 6.68103C24.981 4.16892 22.9445 2.13246 20.4324 2.13246H6.75253ZM12.0655 5.08323H11.4286V6.19708C10.064 6.19708 8.95704 7.23178 8.95704 8.50811H11.4286H12.5762V5.56144C12.5771 5.29708 12.3474 5.08323 12.0655 5.08323ZM15.0478 6.34188C16.4836 6.65423 18.7561 7.64431 18.7561 10.777C18.7561 14.4814 16.0422 15.1895 15.0046 15.3242V16.8413H14.4047C14.102 16.8413 13.857 16.6123 13.857 16.3294V15.3562H12.5762V16.2604C12.5762 16.5811 12.2979 16.8413 11.9547 16.8413H11.4286V15.3562H8.95704V13.046C8.95704 11.7705 10.064 10.7358 11.4277 10.7358V13.0232L14.0273 13.0426C14.3831 13.0451 14.7361 12.9694 15.0505 12.8145C15.6126 12.5366 16.3277 11.9523 16.3277 10.7762C16.3277 8.50726 13.9003 8.50726 13.9003 8.50726V8.05348V6.19708V5.48567C13.9003 5.2634 14.093 5.08323 14.3308 5.08323H15.0478V6.34188Z" fill="white"/>
</svg>
